<svg width="16" height="16" viewBox="0 0 16 16" fill="none" xmlns="http://www.w3.org/2000/svg">
<rect width="16" height="16" fill="#F6E5DF"/>
<path d="M8.0014 2.70361C8.15358 2.81692 8.29382 2.98325 8.42109 3.12319C9.02688 3.78926 9.43303 4.44119 9.76998 5.27435C10.2864 4.79412 10.7899 4.4717 11.4417 4.20143C11.6408 4.95006 11.7198 5.65605 11.704 6.42976C11.8662 6.37159 12.0207 6.29245 12.183 6.23411C12.5239 6.11162 12.8762 6.02851 13.2302 5.95479C13.2187 6.34951 13.1128 6.73892 13.0318 7.12275C13.5246 7.11843 14.0071 7.19184 14.4904 7.28006C14.4629 7.39301 14.423 7.50473 14.3877 7.6155C14.1819 8.26091 13.8922 8.89006 13.5048 9.44725C13.8602 9.58396 14.198 9.74486 14.5376 9.91619C14.2263 10.306 13.857 10.6748 13.4274 10.9336C13.2414 11.0456 13.042 11.1365 12.8434 11.2233C13.209 11.4461 13.5699 11.6823 13.9126 11.9391C13.7152 12.1064 13.517 12.2709 13.3042 12.4185C12.533 12.9532 11.6171 13.2986 10.6706 13.2807C9.68864 13.2621 8.6839 12.8717 7.99802 12.158C7.30605 12.8747 6.33215 13.2764 5.33958 13.2958C4.16924 13.3188 2.95088 12.7471 2.118 11.9453C2.44035 11.6635 2.78572 11.4505 3.1624 11.2502C3.00393 11.176 2.84365 11.1041 2.69127 11.0178C2.21328 10.7471 1.78675 10.3599 1.46289 9.91706C1.79551 9.74616 2.12228 9.58054 2.47042 9.44237C2.38099 9.27373 2.26803 9.11792 2.17867 8.94911C1.98339 8.58031 1.81257 8.20376 1.67593 7.80915C1.61609 7.63635 1.56692 7.45909 1.51378 7.28409C2.04824 7.17518 2.43312 7.12927 2.97852 7.12974C2.87834 6.73947 2.81244 6.35219 2.77486 5.95096C3.29475 6.04991 3.7906 6.21966 4.27665 6.42597C4.20824 5.65903 4.30529 4.90597 4.53847 4.17342C5.22799 4.48425 5.69503 4.76669 6.24053 5.28888C6.61407 4.2986 7.2292 3.42401 8.0014 2.70361Z" fill="#1E2E6A"/>
<path d="M13.2849 9.74121C13.5152 9.82088 13.742 9.91097 13.9658 10.0075C13.7845 10.1087 12.8397 10.4335 12.6426 10.4612C12.8736 10.2313 13.084 9.99745 13.2849 9.74121Z" fill="#4EDDD4"/>
<path d="M11.7463 11.1362C11.8651 11.1749 11.9848 11.205 12.102 11.2493C12.5243 11.4088 12.9142 11.6457 13.2846 11.9008C13.2586 11.9113 13.2363 11.9176 13.2085 11.9217C13.0852 11.9135 12.7305 11.7478 12.5923 11.6956C12.4463 11.6403 12.2974 11.5903 12.1485 11.5431C12.0042 11.4973 11.8559 11.4582 11.708 11.4256C11.6058 11.403 11.4804 11.3915 11.3848 11.3519C11.5053 11.2801 11.625 11.2067 11.7463 11.1362Z" fill="#9CEDEE"/>
<path d="M2.00195 10.0174C2.23022 9.91662 2.45799 9.81753 2.69111 9.72839C2.90194 10.0204 3.14629 10.2716 3.4109 10.5148C3.29379 10.5017 3.1733 10.4571 3.06153 10.4203C2.7916 10.3315 2.53149 10.2294 2.26864 10.1218C2.18045 10.0857 2.08889 10.056 2.00195 10.0174Z" fill="#4EDDD4"/>
<path d="M2.83398 11.8256C3.13935 11.618 3.48642 11.4454 3.82736 11.3046C3.96996 11.2458 4.12355 11.2016 4.2617 11.1343C4.47047 11.2623 4.68861 11.3694 4.90846 11.4767C4.82079 11.5198 4.44605 11.5264 4.31927 11.5433C4.14721 11.5662 3.97571 11.5969 3.80491 11.6277C3.66829 11.6523 3.53028 11.6755 3.39512 11.7072C3.25478 11.7402 3.11631 11.7826 2.97502 11.8111C2.93917 11.8184 2.88597 11.8416 2.85114 11.8341C2.84336 11.8324 2.84011 11.8297 2.83398 11.8256Z" fill="#9CEDEE"/>
<path d="M13.9663 10.0074L13.9877 10.0196C13.9894 10.0424 13.9773 10.0541 13.9628 10.0707C13.9061 10.1353 13.8344 10.1945 13.7702 10.2519C13.3827 10.5985 12.9293 10.8523 12.4328 11.0066C12.3301 10.9658 12.2278 10.9229 12.123 10.8878C12.2321 10.8093 12.337 10.7296 12.4383 10.6413C12.5047 10.5835 12.5717 10.5116 12.6431 10.4611C12.8402 10.4334 13.785 10.1087 13.9663 10.0074Z" fill="#25C5C0"/>
<path d="M2.00067 10.0173C2.0876 10.056 2.17916 10.0856 2.26736 10.1217C2.5302 10.2294 2.79032 10.3315 3.06024 10.4203C3.17202 10.457 3.29251 10.5016 3.40961 10.5147C3.5842 10.6545 3.75487 10.7904 3.93683 10.921C3.81327 10.9546 3.6939 11.0039 3.57521 11.0515C3.04225 10.8468 2.59996 10.6001 2.17542 10.217C2.11957 10.1666 2.02188 10.0962 1.98828 10.03L2.00067 10.0173Z" fill="#25C5C0"/>
<path d="M9.88672 5.6707C10.1769 5.30981 10.7535 4.88516 11.1779 4.69824L11.1904 4.70338L11.1992 4.73477C11.1234 4.8759 11.0602 5.02535 10.9865 5.16813C10.8334 5.46478 10.6664 5.75463 10.5074 6.04816C10.3868 6.27066 10.2745 6.50294 10.1432 6.719C10.1264 6.74648 10.1087 6.77392 10.0836 6.79451C10.0337 6.41318 9.98398 6.0438 9.88672 5.6707Z" fill="#9CEDEE"/>
<path d="M4.79946 4.68933C5.2128 4.89405 5.60525 5.1526 5.93482 5.47655C5.99598 5.53669 6.06224 5.59992 6.11363 5.66859C6.01303 6.07151 5.91698 6.48392 5.90348 6.90092L5.89233 6.90581C5.88586 6.90173 5.88427 6.90127 5.87861 6.89453C5.83327 6.84057 5.75678 6.62736 5.72268 6.55243C5.67561 6.44895 5.62556 6.34476 5.57571 6.24246C5.39917 5.88025 5.21141 5.52188 5.02162 5.16644C4.98351 5.09509 4.78624 4.75619 4.79946 4.68933Z" fill="#9CEDEE"/>
<path d="M12.9222 7.47192C13.2778 7.47764 13.6287 7.49569 13.9819 7.53748C13.8561 7.73245 13.7044 7.90988 13.5581 8.0895C13.3837 8.3038 13.2102 8.5158 13.0215 8.71801C12.8464 8.90575 12.6584 9.08263 12.4699 9.25684C12.3097 9.40494 12.1487 9.55112 11.9762 9.68485C11.908 9.73773 11.7748 9.85673 11.6933 9.87364C11.6882 9.87471 11.6829 9.87542 11.6777 9.87631C12.0894 9.36759 12.4181 8.78693 12.662 8.18015C12.7558 7.94654 12.8285 7.70521 12.9222 7.47192Z" fill="#4EDDD4"/>
<path d="M10.084 6.79449C10.1091 6.7739 10.1269 6.74645 10.1436 6.71898C10.2749 6.50291 10.3873 6.27063 10.5078 6.04813C10.6669 5.75461 10.8338 5.46475 10.9869 5.16811C11.0606 5.02532 11.1238 4.87587 11.1996 4.73474C11.3338 5.3544 11.3803 5.95995 11.3414 6.59224C10.9052 6.83436 10.4769 7.08806 10.0894 7.40483C10.0954 7.29365 10.1023 7.18244 10.0986 7.07107C10.0956 6.97982 10.0831 6.88524 10.084 6.79449Z" fill="#4EDDD4"/>
<path d="M4.65987 6.59833C4.56727 6.15413 4.58833 5.6538 4.65594 5.20753C4.66798 5.12819 4.73525 4.71314 4.78193 4.67871L4.79965 4.68943C4.78642 4.75629 4.9837 5.09518 5.02181 5.16653C5.2116 5.52198 5.39936 5.88034 5.57589 6.24256C5.62574 6.34485 5.67579 6.44904 5.72287 6.55253C5.75697 6.62746 5.83345 6.84067 5.8788 6.89463C5.88446 6.90137 5.88604 6.90183 5.89252 6.90591L5.90366 6.90102C5.89878 7.06791 5.89828 7.23318 5.90152 7.40014C5.75578 7.29256 5.61691 7.17836 5.46698 7.07582C5.20757 6.89841 4.93532 6.74878 4.65987 6.59833Z" fill="#4EDDD4"/>
<path d="M1.96484 7.53413C2.3363 7.49058 2.71181 7.46461 3.08586 7.48081C3.39793 8.43922 3.83638 9.2578 4.48972 10.0256L4.47658 10.0303C4.35688 9.98561 4.23112 9.88599 4.12591 9.81314C3.39608 9.30785 2.77079 8.66218 2.2498 7.94583C2.15224 7.8117 2.04311 7.68053 1.96484 7.53413Z" fill="#9CEDEE"/>
<path d="M13.2865 11.9008L13.352 11.9418C12.8732 12.3911 12.0591 12.7489 11.4204 12.875C11.1671 12.925 10.9072 12.9452 10.6492 12.9371C9.77958 12.9098 8.95981 12.5924 8.30273 12.0182C8.44775 12.0241 8.59279 12.0301 8.73795 12.0282C8.83375 12.0269 8.93207 12.0174 9.02748 12.0194C9.03875 12.0287 9.04992 12.038 9.06207 12.0462C9.1734 12.1219 9.3157 12.1764 9.4398 12.2285C10.2816 12.5817 11.2221 12.5386 12.0854 12.2844C12.352 12.2059 12.6144 12.1061 12.8789 12.0201C12.9838 11.986 13.0924 11.9433 13.2008 11.9233C13.204 11.9227 13.2072 11.9222 13.2103 11.9217C13.2381 11.9175 13.2605 11.9113 13.2865 11.9008Z" fill="#25C5C0"/>
<path d="M2.75827 11.876C3.6013 12.2717 4.76696 12.5157 5.69914 12.4337C6.09121 12.3993 6.49467 12.3038 6.86432 12.1701C6.96762 12.1328 7.09331 12.0937 7.18588 12.0356C7.34276 12.0262 7.50448 12.03 7.66208 12.0266C7.08555 12.559 6.32919 12.8988 5.54294 12.9482C4.69448 13.0014 3.8941 12.7656 3.17017 12.3279C2.98835 12.2179 2.80419 12.1008 2.64453 11.9599C2.68064 11.9301 2.72034 11.9035 2.75827 11.876Z" fill="#25C5C0"/>
<path d="M8.00588 3.20227C9.08222 4.2437 9.72686 5.61673 9.75008 7.12039C9.75323 7.32468 9.73604 7.52731 9.72613 7.73103C9.66324 7.79215 9.60117 7.85397 9.53949 7.9163C9.51291 7.87758 9.54334 7.6548 9.54661 7.59644C9.60672 6.52047 9.33464 5.40689 8.76082 4.49213C8.54296 4.14481 8.27906 3.82586 8.00654 3.52066C7.82943 3.69924 7.66951 3.90373 7.52092 4.1063C6.85379 5.01573 6.4812 6.0409 6.45051 7.171C6.44788 7.2679 6.47309 7.86475 6.45589 7.90024C6.39473 7.83987 6.33495 7.77506 6.26983 7.71911C6.24747 7.45731 6.23439 7.19838 6.24727 6.93539C6.30766 5.70233 6.83044 4.54888 7.61915 3.61234C7.73914 3.46985 7.86497 3.32454 8.00588 3.20227Z" fill="#F3F8F6"/>
<path d="M9.08523 10.3425C9.09273 10.3428 9.09583 10.3431 9.10407 10.3418C9.2365 10.321 9.37838 10.2677 9.50678 10.2278C10.4493 9.9351 11.2722 9.3443 11.8932 8.58289C12.0286 8.41684 12.154 8.24035 12.2703 8.0605C12.3259 7.97454 12.3729 7.88187 12.4326 7.7989L12.4382 7.79114C12.3915 7.97454 12.2973 8.16101 12.2199 8.33337C11.7995 9.26853 11.1522 10.1175 10.2615 10.6462C9.83621 10.8987 9.39377 11.0825 8.92006 11.222C8.78978 11.2603 8.6506 11.3048 8.51562 11.322C8.63612 11.0644 8.78512 10.8172 8.93367 10.5747C8.97936 10.5002 9.02733 10.4077 9.08523 10.3425Z" fill="#8F5090"/>
<path d="M7.21691 7.41138C7.25013 7.52513 7.2691 7.64243 7.30834 7.75449C7.44337 8.1402 7.72887 8.60223 8.00813 8.90108C8.28075 8.56902 8.52676 8.20811 8.68044 7.80419C8.70934 7.72826 8.73175 7.65048 8.75136 7.5717C8.76309 7.5246 8.76997 7.46853 8.7889 7.4245C8.91551 7.76614 8.99441 8.15724 9.00318 8.52181C8.54367 9.1706 8.25708 9.68813 8.00504 10.4471C7.85331 9.91396 7.58561 9.3934 7.29029 8.92671C7.19985 8.78381 7.08002 8.65389 6.9981 8.50733C6.99677 8.50492 6.99546 8.50246 6.99414 8.50003C6.99497 8.12859 7.09442 7.75946 7.21691 7.41138Z" fill="#BF80A7"/>
<path d="M3.49805 7.61035C3.49983 7.61281 3.50165 7.61526 3.5034 7.61773C3.57324 7.71669 3.62567 7.83361 3.68688 7.93867C3.79846 8.13018 3.92162 8.31799 4.05697 8.49358C4.67587 9.29651 5.57513 9.91127 6.52654 10.251C6.6589 10.2983 6.80117 10.361 6.93873 10.3881C6.94043 10.3884 6.94215 10.3887 6.94385 10.389C7.02919 10.4698 7.4276 11.1961 7.49447 11.3429C6.87169 11.2335 6.29569 11.0095 5.76203 10.6686C4.84989 10.086 4.16571 9.16239 3.72504 8.18571C3.65467 8.02971 3.53338 7.76989 3.49805 7.61035Z" fill="#8F5090"/>
<path d="M4.90828 11.4766C5.42841 11.7013 5.97509 11.8864 6.53685 11.9726C6.75116 12.0055 6.96928 12.0201 7.18542 12.0356C7.09285 12.0937 6.96716 12.1328 6.86386 12.1701C6.49422 12.3038 6.09075 12.3993 5.69869 12.4337C4.7665 12.5157 3.60085 12.2717 2.75781 11.876C2.78233 11.8574 2.80753 11.8415 2.8338 11.8255C2.83993 11.8295 2.84318 11.8323 2.85096 11.834C2.88578 11.8415 2.93899 11.8183 2.97483 11.811C3.11613 11.7825 3.2546 11.7401 3.39494 11.7071C3.53009 11.6753 3.6681 11.6522 3.80473 11.6276C3.97553 11.5967 4.14703 11.5661 4.31908 11.5432C4.44587 11.5262 4.82061 11.5197 4.90828 11.4766Z" fill="#4EDDD4"/>
<path d="M9.02734 12.0194C9.71845 11.953 10.3851 11.8051 11.0246 11.528C11.1476 11.4747 11.2655 11.4097 11.3865 11.3519C11.4821 11.3915 11.6075 11.403 11.7098 11.4255C11.8576 11.4582 12.0059 11.4973 12.1502 11.5431C12.2991 11.5903 12.448 11.6403 12.594 11.6955C12.7322 11.7478 13.0869 11.9135 13.2102 11.9217C13.207 11.9222 13.2039 11.9227 13.2007 11.9233C13.0922 11.9433 12.9837 11.986 12.8788 12.0201C12.6143 12.1061 12.3518 12.2059 12.0853 12.2844C11.2219 12.5386 10.2814 12.5817 9.43967 12.2285C9.31557 12.1764 9.17326 12.1219 9.06194 12.0462C9.04978 12.0379 9.03862 12.0287 9.02734 12.0194Z" fill="#4EDDD4"/>
<path d="M7.99476 5.95422C8.0851 6.06479 8.1594 6.1954 8.23313 6.31748C8.44668 6.67112 8.64595 7.0357 8.78879 7.42441C8.76986 7.46844 8.76298 7.52451 8.75125 7.5716C8.73164 7.65038 8.70923 7.72817 8.68033 7.8041C8.52665 8.20802 8.28064 8.56893 8.00802 8.90099C7.72876 8.60214 7.44326 8.14011 7.30823 7.7544C7.26899 7.64234 7.25002 7.52504 7.2168 7.41129C7.41252 6.89784 7.68543 6.40773 7.99476 5.95422Z" fill="#F1A4B6"/>
<path d="M3.45312 7.49475C4.61846 7.92452 5.46609 8.53121 6.27125 9.47894C6.51535 9.76627 6.74659 10.0675 6.9445 10.3889C6.9428 10.3886 6.94108 10.3883 6.93938 10.388C6.80182 10.3609 6.65955 10.2982 6.52719 10.2509C5.57578 9.91119 4.67652 9.29643 4.05762 8.4935C3.92227 8.31791 3.79911 8.1301 3.68753 7.93859C3.62632 7.83353 3.5739 7.71661 3.50405 7.61765C3.5023 7.61518 3.50048 7.61273 3.4987 7.61027L3.45312 7.49475Z" fill="#F1A4B6"/>
<path d="M7.60827 11.6957C7.40456 11.7019 7.19877 11.7069 6.99553 11.6896C5.55374 11.5668 4.07033 10.8415 3.13415 9.73236C2.65483 9.16452 2.32006 8.52347 2.05193 7.83307C2.02847 7.77265 1.94457 7.59993 1.94942 7.54301L1.96587 7.53418C2.04414 7.68058 2.15327 7.81175 2.25082 7.94588C2.77182 8.66223 3.3971 9.3079 4.12693 9.81319C4.23215 9.88604 4.35791 9.98566 4.4776 10.0304L4.49075 10.0256C5.21131 10.7966 5.96034 11.2974 6.98457 11.5757C7.09923 11.6069 7.21678 11.6326 7.33422 11.6509C7.42183 11.6646 7.5146 11.6699 7.60008 11.6933C7.60282 11.6941 7.60555 11.6949 7.60827 11.6957Z" fill="#25C5C0"/>
<path d="M12.542 7.5094C12.5092 7.60403 12.4753 7.69787 12.4389 7.7912L12.4333 7.79896C12.3736 7.88193 12.3266 7.9746 12.271 8.06056C12.1547 8.24042 12.0293 8.4169 11.8939 8.58295C11.2729 9.34436 10.45 9.93516 9.50748 10.2278C9.37908 10.2677 9.23721 10.3211 9.10478 10.3419C9.09654 10.3432 9.09343 10.3428 9.08594 10.3426C9.27175 10.0463 9.48882 9.76372 9.71373 9.49614C10.4931 8.56896 11.391 7.90201 12.542 7.5094Z" fill="#F1A4B6"/>
<path d="M13.9815 7.5376C14.0041 7.54075 14.0272 7.54278 14.0492 7.54891C13.7006 8.54975 13.2468 9.38088 12.4806 10.1238C12.0518 10.5396 11.5812 10.8678 11.0433 11.1283C10.4506 11.4154 9.77749 11.598 9.12175 11.6569C8.87452 11.6791 8.63051 11.6794 8.38281 11.683L8.38945 11.6746C8.60068 11.6515 8.81897 11.5957 9.02361 11.5388C9.75461 11.3355 10.4708 11.0068 11.0493 10.5077C11.1919 10.3847 11.3321 10.2547 11.4609 10.1171C11.5311 10.0421 11.5995 9.94143 11.6774 9.87643C11.6825 9.87554 11.6878 9.87483 11.6929 9.87376C11.7745 9.85685 11.9076 9.73785 11.9758 9.68497C12.1483 9.55124 12.3094 9.40506 12.4696 9.25696C12.658 9.08275 12.846 8.90587 13.0212 8.71813C13.2098 8.51592 13.3833 8.30392 13.5578 8.08962C13.704 7.91 13.8557 7.73257 13.9815 7.5376Z" fill="#25C5C0"/>
<path d="M3.16797 6.39001C4.14849 6.68681 5.00227 7.08817 5.78738 7.75748C6.62271 8.46961 7.18538 9.24897 7.58197 10.2721C7.7004 10.5776 7.80989 10.8989 7.83606 11.2272C7.79521 11.1763 7.76425 11.106 7.73222 11.0486L7.51916 10.6651C7.39575 10.4457 7.25323 10.2303 7.11385 10.0205C7.03181 9.89703 6.94062 9.77779 6.85214 9.65881C5.95995 8.45871 4.76714 7.5164 3.31916 7.09459C3.25012 6.86689 3.20129 6.62543 3.16797 6.39001Z" fill="url(#paint0_linear_2043_16644)"/>
<path d="M12.8217 6.39807L12.8283 6.40856C12.8069 6.63446 12.7324 6.89582 12.674 7.11485C12.3009 7.19651 11.7707 7.43305 11.4327 7.62152C10.1628 8.32961 9.25647 9.37625 8.51944 10.6131C8.41905 10.7816 8.17386 11.178 8.12683 11.3441L8.12095 11.3425L8.11719 11.3291C8.15299 11.1938 8.18367 11.0569 8.22105 10.9221C8.37058 10.383 8.569 9.85631 8.85241 9.37266C9.71753 7.89637 11.1699 6.82812 12.8217 6.39807Z" fill="#F3F8F6"/>
<path d="M6.45675 7.90021C6.47395 7.86472 6.44874 7.26787 6.45137 7.17097C6.48206 6.04087 6.85465 5.0157 7.52178 4.10627C7.67037 3.9037 7.83029 3.69921 8.0074 3.52063C8.27992 3.82583 8.54382 4.14478 8.76168 4.4921C9.3355 5.40686 9.60758 6.52044 9.54747 7.59641C9.5442 7.65477 9.51377 7.87755 9.54036 7.91627C9.48497 7.99404 9.39658 8.06771 9.32858 8.13564C9.18641 7.27989 8.80295 6.50716 8.31433 5.79667C8.21348 5.65002 8.11445 5.49738 8.00009 5.36096C7.8756 5.50229 7.76695 5.67263 7.66248 5.82923C7.20231 6.51898 6.7971 7.30015 6.66011 8.1257L6.45675 7.90021Z" fill="#9CEDEE"/>
<path d="M7.92661 4.23528C8.01348 4.22694 8.09892 4.23236 8.17816 4.27265C8.27089 4.31979 8.34081 4.40592 8.37102 4.50517C8.4005 4.60197 8.38962 4.70261 8.34142 4.79143C8.28782 4.89019 8.20387 4.9442 8.09981 4.97733C7.99618 4.9956 7.88901 4.98502 7.79716 4.9306C7.71355 4.88108 7.65191 4.80059 7.62959 4.7057C7.60604 4.60552 7.62234 4.48997 7.678 4.40281C7.73464 4.31411 7.82576 4.25901 7.92661 4.23528Z" fill="#1E2E6A"/>
<defs>
<linearGradient id="paint0_linear_2043_16644" x1="5.96102" y1="7.22953" x2="5.0408" y2="10.3395" gradientUnits="userSpaceOnUse">
<stop stop-color="#E3F1EE"/>
<stop offset="1" stop-color="#FFFBF9"/>
</linearGradient>
</defs>
</svg>
