<svg width="32" height="32" viewBox="0 0 32 32" fill="none" xmlns="http://www.w3.org/2000/svg">
<rect width="32" height="32" fill="url(#paint0_linear_480_6446)"/>
<path fill-rule="evenodd" clip-rule="evenodd" d="M19.1249 7.34121C18.633 7.61179 18.1347 7.94117 17.6699 8.31472C17.4952 8.0477 17.303 7.78978 17.0986 7.54238C17.6066 7.13714 18.1427 6.78585 18.6621 6.50009C19.3153 6.14073 19.9631 5.8733 20.5226 5.7322C20.8019 5.66174 21.0725 5.61937 21.3185 5.61828C21.5574 5.61722 21.817 5.65482 22.0377 5.78646C22.2583 5.91809 22.4147 6.12871 22.5273 6.33948C22.6431 6.55642 22.7344 6.81469 22.8051 7.09402C22.9468 7.65343 23.0192 8.35054 23.0133 9.09613C23.0016 10.5794 22.6785 12.3494 21.8707 13.7033C21.4309 14.4403 20.9033 15.0802 20.3288 15.5979C20.3795 15.8665 20.405 16.1401 20.4045 16.4149C20.9641 16.9489 21.4733 17.6039 21.8918 18.3534C21.9949 18.538 22.089 18.7298 22.1747 18.9271C23.1637 18.7363 24.1659 18.3338 25.0088 17.856C25.6058 17.5176 26.102 17.153 26.4426 16.8217C26.6132 16.6557 26.735 16.5076 26.8115 16.3847C26.8917 16.2558 26.9006 16.1894 26.9008 16.1776C26.9009 16.1658 26.8939 16.0992 26.8175 15.9681C26.7445 15.8431 26.6271 15.6916 26.4614 15.5209C26.1304 15.18 25.6448 14.8015 25.0578 14.4462C24.5458 14.1363 23.9721 13.8534 23.3765 13.6307C23.5115 13.3424 23.6287 13.043 23.7298 12.738C24.3867 12.9849 25.0086 13.2943 25.5549 13.6249C26.1927 14.0109 26.7482 14.4382 27.1501 14.8521C27.3508 15.0588 27.5228 15.272 27.6467 15.4844C27.7671 15.6908 27.8643 15.9345 27.8607 16.1914C27.857 16.4483 27.7528 16.689 27.6265 16.8919C27.4966 17.1007 27.3186 17.3089 27.112 17.5098C26.6984 17.9122 26.1309 18.3234 25.4822 18.6911C24.1918 19.4226 22.4974 20.0278 20.921 20.0052C20.2001 19.9948 19.5076 19.8965 18.8684 19.7239C18.5195 20.0202 18.1292 20.2562 17.7144 20.4275C17.5266 21.0368 17.2548 21.6511 16.9004 22.245C16.8089 22.3984 16.7097 22.5488 16.6039 22.6961C17.2659 23.4651 18.1226 24.1389 18.9646 24.6341C19.556 24.9819 20.1197 25.2294 20.5769 25.3588C20.8059 25.4236 20.9949 25.455 21.1396 25.4598C21.2913 25.4648 21.3533 25.4393 21.3635 25.4336C21.3738 25.4279 21.428 25.3884 21.5033 25.2567C21.5752 25.1309 21.6477 24.9535 21.7127 24.7245C21.8425 24.2674 21.9277 23.6576 21.942 22.9715C21.9531 22.4371 21.921 21.8709 21.8393 21.3093C22.0367 21.2955 22.2353 21.2752 22.4347 21.2483C22.5542 21.2322 22.6733 21.2124 22.7919 21.1891C22.8807 21.8071 22.9136 22.4212 22.9018 22.9915C22.8862 23.7369 22.7938 24.4317 22.6362 24.9868C22.5575 25.264 22.4588 25.5195 22.3368 25.733C22.2182 25.9405 22.0558 26.1465 21.8315 26.2718C21.6072 26.397 21.3466 26.4272 21.1078 26.4192C20.862 26.4111 20.5927 26.361 20.3155 26.2825C19.7603 26.1254 19.1205 25.8395 18.4779 25.4616C17.1994 24.7097 15.8284 23.5447 15.0598 22.1682C14.7359 21.588 14.4887 20.9913 14.3188 20.4004C14.1485 20.3265 13.981 20.2408 13.8174 20.1432C13.5292 19.9712 13.268 19.7712 13.0354 19.5487C12.4052 19.6953 11.7269 19.7696 11.0241 19.7595C10.8613 19.7572 10.6973 19.7481 10.5329 19.7329C10.1721 20.7161 10.0057 21.838 9.99757 22.8503C9.99204 23.5364 10.0596 24.1484 10.1761 24.609C10.2345 24.8396 10.3018 25.0191 10.37 25.1468C10.4415 25.2806 10.4946 25.3216 10.5047 25.3276C10.5148 25.3336 10.576 25.3609 10.7278 25.3602C10.8726 25.3596 11.0625 25.3337 11.2933 25.2755C11.7541 25.1593 12.3248 24.9282 12.9261 24.5975C13.3903 24.3422 13.8603 24.0346 14.3024 23.6869C14.3278 23.7289 14.3536 23.7708 14.3798 23.8126C14.5237 24.042 14.6838 24.2618 14.8569 24.472C14.3774 24.8455 13.8757 25.1709 13.3887 25.4387C12.7354 25.798 12.0875 26.0653 11.528 26.2064C11.2486 26.2768 10.9779 26.3191 10.732 26.3202C10.493 26.3213 10.2334 26.2836 10.0128 26.152C9.79214 26.0204 9.63575 25.8098 9.5232 25.599C9.40736 25.382 9.31612 25.1238 9.24544 24.8445C9.10391 24.2851 9.0316 23.5881 9.03761 22.8425C9.04956 21.3594 9.37295 19.5896 10.1807 18.2358C10.613 17.5113 11.1301 16.8806 11.6932 16.3677C11.6949 16.1264 11.7167 15.8843 11.7592 15.6439C11.1503 15.0896 10.596 14.3935 10.1464 13.5882C10.0437 13.4044 9.94995 13.2134 9.86455 13.017C8.88135 13.2091 7.88625 13.6094 7.04856 14.0841C6.4516 14.4224 5.95536 14.7868 5.61475 15.1181C5.44417 15.284 5.32245 15.432 5.24596 15.5549C5.16577 15.6837 5.15685 15.7502 5.15668 15.7619C5.15651 15.7737 5.16353 15.8404 5.24 15.9715C5.31294 16.0966 5.43037 16.2481 5.59613 16.4189C5.92711 16.7598 6.41268 17.1385 6.99969 17.4939C7.44639 17.7644 7.93997 18.0143 8.45408 18.2215C8.33276 18.5191 8.22867 18.8235 8.13985 19.1298C7.55227 18.8959 6.9965 18.6142 6.5025 18.3151C5.86467 17.929 5.30921 17.5016 4.90729 17.0875C4.70659 16.8808 4.53461 16.6675 4.41071 16.4551C4.29033 16.2487 4.19309 16.005 4.19678 15.7481C4.20047 15.4912 4.30467 15.2505 4.43093 15.0476C4.56088 14.8388 4.73892 14.6307 4.94548 14.4298C5.35913 14.0276 5.92664 13.6164 6.57528 13.2489C7.86568 12.5177 9.56008 11.9128 11.1364 11.9355C12.2069 11.9508 13.2149 12.1601 14.0783 12.5188C14.0868 12.5145 14.0954 12.5102 14.1039 12.5059C14.2514 11.5823 14.6022 10.6138 15.151 9.69401C15.2405 9.54406 15.3372 9.39691 15.4404 9.25282C14.7775 8.48084 13.9179 7.80454 13.0732 7.3079C12.4817 6.96012 11.9178 6.71266 11.4605 6.58334C11.2315 6.51857 11.0424 6.4872 10.8977 6.48241C10.746 6.4774 10.684 6.50288 10.6737 6.50862C10.6634 6.51435 10.6092 6.55375 10.5339 6.6855C10.4621 6.81118 10.3896 6.98862 10.3247 7.21752C10.195 7.67458 10.1099 8.28437 10.0957 8.97037C10.085 9.49074 10.1152 10.0413 10.1923 10.5884C9.8758 10.6161 9.55848 10.6671 9.24378 10.7368C9.15665 10.1242 9.12427 9.5159 9.13594 8.95055C9.15133 8.20517 9.24361 7.51048 9.40114 6.95542C9.4798 6.67825 9.57842 6.42271 9.70044 6.20919C9.81899 6.00173 9.98136 5.79569 10.2057 5.67043C10.43 5.54518 10.6906 5.51504 10.9294 5.52294C11.1752 5.53107 11.4445 5.58115 11.7218 5.65957C12.2771 5.81662 12.917 6.10244 13.5598 6.48034C14.8385 7.23211 16.2097 8.39695 16.9784 9.77347C17.4739 10.661 17.7899 11.5873 17.9242 12.4723C18.0235 12.5198 18.1217 12.5714 18.2185 12.6271C19.0589 12.3271 20.0206 12.1666 21.0333 12.1811C21.194 12.1834 21.3558 12.1923 21.5181 12.2072C21.8791 11.2236 22.0454 10.1013 22.0533 9.08855C22.0588 8.40236 21.9911 7.7903 21.8745 7.32964C21.8161 7.09894 21.7487 6.91946 21.6805 6.79174C21.609 6.65786 21.5559 6.6169 21.5458 6.61087C21.5357 6.60484 21.4745 6.5776 21.3227 6.57827C21.178 6.57891 20.9881 6.60485 20.7574 6.66305C20.2967 6.77924 19.726 7.01047 19.1249 7.34121ZM16.8805 12.1271C16.7361 11.5112 16.4913 10.8704 16.1402 10.2415C16.1091 10.1858 16.0768 10.1305 16.0433 10.0754C16.0201 10.1121 15.9975 10.1489 15.9754 10.1859C15.588 10.8352 15.3175 11.5009 15.1579 12.1402C15.7198 12.0226 16.3057 12.0153 16.8805 12.1271ZM13.1062 13.1911C12.5057 13.0118 11.8352 12.9056 11.1227 12.8954C11.0383 12.8941 10.9532 12.8951 10.8676 12.898C10.9051 12.9736 10.9441 13.0477 10.9846 13.1202C11.3033 13.6911 11.6764 14.1924 12.078 14.6136C12.1457 14.4638 12.2226 14.3163 12.3088 14.1718C12.5316 13.7985 12.8014 13.4706 13.1062 13.1911ZM11.8528 17.5696C11.5475 17.9112 11.2611 18.2987 11.0051 18.7276C10.9912 18.7509 10.9775 18.7744 10.9639 18.798C10.9886 18.7987 11.0133 18.7992 11.0379 18.7996C11.4942 18.8061 11.9344 18.7728 12.351 18.7055C12.1307 18.351 11.9635 17.968 11.8528 17.5696ZM19.1535 13.3476C19.726 13.2063 20.3557 13.1315 21.0195 13.141C21.0419 13.1413 21.0642 13.1418 21.0867 13.1424C21.0733 13.1656 21.0599 13.1886 21.0463 13.2114C20.7366 13.7304 20.3822 14.1888 20.0037 14.5786C19.7964 14.1282 19.5111 13.7104 19.1535 13.3476ZM20.2293 17.6276C20.1279 17.9729 19.9817 18.3112 19.7888 18.6346C19.7321 18.7296 19.6724 18.8216 19.6099 18.9106C20.0288 18.9917 20.473 19.0386 20.9348 19.0453C21.0128 19.0464 21.0913 19.0457 21.1704 19.0432C21.133 18.9678 21.094 18.8938 21.0536 18.8214C20.8073 18.3804 20.5286 17.9808 20.2293 17.6276ZM15.4362 20.7161C15.562 21.0439 15.7157 21.3736 15.898 21.7002C15.9308 21.759 15.965 21.8174 16.0006 21.8755C16.0264 21.8349 16.0515 21.7941 16.076 21.7531C16.2791 21.4128 16.45 21.068 16.5897 20.7247C16.2092 20.7726 15.8213 20.7706 15.4362 20.7161ZM13.1333 14.6636C14.094 13.0534 16.1782 12.5269 17.7884 13.4876C19.3986 14.4484 19.9251 16.5325 18.9644 18.1428C18.0036 19.753 15.9195 20.2795 14.3093 19.3188C12.699 18.358 12.1725 16.2739 13.1333 14.6636Z" fill="white"/>
<defs>
<linearGradient id="paint0_linear_480_6446" x1="16" y1="0" x2="16" y2="32" gradientUnits="userSpaceOnUse">
<stop stop-color="#2C449C"/>
<stop offset="1" stop-color="#1B1D2E"/>
</linearGradient>
</defs>
</svg>
