<svg width="33" height="32" viewBox="0 0 33 32" fill="none" xmlns="http://www.w3.org/2000/svg">
<path d="M21.4908 7.59607C20.482 7.48906 19.4682 7.43698 18.4538 7.44007C15.0908 7.44007 13.0008 9.58207 13.0008 13.0301V15.3711H10.1758C10.0432 15.3711 9.916 15.4237 9.82223 15.5175C9.72846 15.6113 9.67578 15.7385 9.67578 15.8711V19.7211C9.67578 19.8537 9.72846 19.9809 9.82223 20.0746C9.916 20.1684 10.0432 20.2211 10.1758 20.2211H13.0008V27.9411C13.0008 28.0737 13.0535 28.2009 13.1472 28.2946C13.241 28.3884 13.3682 28.4411 13.5008 28.4411H17.4788C17.6114 28.4411 17.7386 28.3884 17.8323 28.2946C17.9261 28.2009 17.9788 28.0737 17.9788 27.9411V20.2211H20.7948C20.9162 20.2211 21.0334 20.177 21.1247 20.097C21.216 20.0169 21.275 19.9064 21.2908 19.7861L21.7878 15.9361C21.797 15.8655 21.7911 15.7938 21.7704 15.7257C21.7497 15.6576 21.7147 15.5947 21.6678 15.5412C21.6208 15.4877 21.563 15.4449 21.4982 15.4155C21.4333 15.3862 21.363 15.371 21.2918 15.3711H17.9788V13.4121C17.9788 12.4421 18.1738 12.0371 19.3868 12.0371H21.4258C21.5584 12.0371 21.6856 11.9844 21.7793 11.8906C21.8731 11.7969 21.9258 11.6697 21.9258 11.5371V8.09207C21.9258 7.97068 21.8817 7.85341 21.8017 7.76215C21.7217 7.67088 21.6111 7.61185 21.4908 7.59607ZM20.9258 11.0361L19.3858 11.0371C17.2288 11.0371 16.9788 12.3931 16.9788 13.4121V15.8721C16.9788 16.0045 17.0313 16.1315 17.1249 16.2253C17.2184 16.319 17.3453 16.3718 17.4778 16.3721H20.7238L20.3548 19.2221H17.4788C17.3462 19.2221 17.219 19.2747 17.1252 19.3685C17.0315 19.4623 16.9788 19.5895 16.9788 19.7221V27.4401H14.0008V19.7221C14.0008 19.5895 13.9481 19.4623 13.8543 19.3685C13.7606 19.2747 13.6334 19.2221 13.5008 19.2221H10.6768V16.3721H13.5008C13.6334 16.3721 13.7606 16.3194 13.8543 16.2256C13.9481 16.1319 14.0008 16.0047 14.0008 15.8721V13.0301C14.0008 10.1561 15.6658 8.44007 18.4538 8.44007C19.4628 8.44007 20.3738 8.49507 20.9258 8.54307V11.0361Z" fill="#E5E7F8" stroke="#E5E7F8" stroke-width="0.5"/>
<path d="M22.5 3H10.5C8.64409 3.00199 6.86477 3.74012 5.55245 5.05245C4.24012 6.36477 3.50199 8.14409 3.5 10V22C3.50199 23.8559 4.24012 25.6352 5.55245 26.9476C6.86477 28.2599 8.64409 28.998 10.5 29H22.5C24.3559 28.998 26.1352 28.2599 27.4476 26.9476C28.7599 25.6352 29.498 23.8559 29.5 22V10C29.498 8.14409 28.7599 6.36477 27.4476 5.05245C26.1352 3.74012 24.3559 3.00199 22.5 3ZM27.5 22C27.5 23.3261 26.9732 24.5979 26.0355 25.5355C25.0979 26.4732 23.8261 27 22.5 27H10.5C9.17392 27 7.90215 26.4732 6.96447 25.5355C6.02678 24.5979 5.5 23.3261 5.5 22V10C5.5 8.67392 6.02678 7.40215 6.96447 6.46447C7.90215 5.52678 9.17392 5 10.5 5H22.5C23.8261 5 25.0979 5.52678 26.0355 6.46447C26.9732 7.40215 27.5 8.67392 27.5 10V22Z" fill="#E5E7F8"/>
</svg>
