<svg width="198" height="64" viewBox="0 0 198 64" fill="none" xmlns="http://www.w3.org/2000/svg">
<g filter="url(#filter0_b_145_1132)">
<rect x="1" y="1" width="196" height="62.0664" rx="8.03319" fill="black" fill-opacity="0.12"/>
<rect x="1" y="1" width="196" height="62.0664" rx="8.03319" stroke="white" stroke-opacity="0.27" stroke-width="1.00415"/>
<mask id="mask0_145_1132" style="mask-type:alpha" maskUnits="userSpaceOnUse" x="34" y="17" width="28" height="30">
<path d="M60.3612 30.2259C61.7946 31.0146 61.7946 33.0511 60.3612 33.8399L37.4379 46.454C36.0419 47.2222 34.3242 46.2254 34.3242 44.647L34.3242 19.4187C34.3242 17.8404 36.0419 16.8435 37.4379 17.6117L60.3612 30.2259Z" fill="#C4C4C4"/>
</mask>
<g mask="url(#mask0_145_1132)">
<path d="M35.0412 46.2062L49.3401 31.827L35.2767 17.6846C34.7157 18.0442 34.3242 18.6652 34.3242 19.4187V44.647C34.3242 45.2899 34.6092 45.8363 35.0412 46.2062Z" fill="url(#paint0_linear_145_1132)"/>
<path d="M60.3609 30.2258C61.7943 31.0145 61.7943 33.051 60.3609 33.8398L54.5778 37.0221L49.3398 31.8268L54.3107 26.8965L60.3609 30.2258Z" fill="url(#paint1_linear_145_1132)"/>
<path d="M54.5779 37.0224L49.3399 31.8271L35.041 46.2064C35.6698 46.7448 36.6103 46.9096 37.4377 46.4543L54.5779 37.0224Z" fill="url(#paint2_linear_145_1132)"/>
<path d="M35.2773 17.6845L49.3407 31.8269L54.3116 26.8966L37.4385 17.6117C36.7089 17.2102 35.8915 17.2908 35.2773 17.6845Z" fill="url(#paint3_linear_145_1132)"/>
</g>
<path d="M73.5151 22.1292C72.9311 22.1292 72.3911 22.0212 71.8951 21.8052C71.3991 21.5892 70.9751 21.2932 70.6231 20.9172C70.2711 20.5332 69.9951 20.0812 69.7951 19.5612C69.5951 19.0332 69.4951 18.4612 69.4951 17.8452V17.8092C69.4951 17.1932 69.5951 16.6252 69.7951 16.1052C70.0031 15.5772 70.2871 15.1252 70.6471 14.7492C71.0071 14.3652 71.4351 14.0652 71.9311 13.8492C72.4271 13.6332 72.9711 13.5252 73.5631 13.5252C73.9391 13.5252 74.2871 13.5732 74.6071 13.6692C74.9351 13.7572 75.2311 13.8812 75.4951 14.0412C75.7671 14.2012 76.0071 14.3932 76.2151 14.6172C76.4231 14.8332 76.5951 15.0692 76.7311 15.3252L75.8911 15.8412C75.6671 15.4092 75.3631 15.0732 74.9791 14.8332C74.6031 14.5852 74.1271 14.4612 73.5511 14.4612C73.0951 14.4612 72.6791 14.5452 72.3031 14.7132C71.9271 14.8732 71.6031 15.1012 71.3311 15.3972C71.0671 15.6932 70.8631 16.0452 70.7191 16.4532C70.5751 16.8612 70.5031 17.3132 70.5031 17.8092V17.8572C70.5031 18.3452 70.5751 18.7972 70.7191 19.2132C70.8631 19.6212 71.0671 19.9732 71.3311 20.2692C71.6031 20.5572 71.9271 20.7852 72.3031 20.9532C72.6791 21.1132 73.0951 21.1932 73.5511 21.1932C73.9511 21.1932 74.3071 21.1372 74.6191 21.0252C74.9391 20.9132 75.2071 20.7572 75.4231 20.5572C75.6471 20.3492 75.8151 20.1052 75.9271 19.8252C76.0471 19.5372 76.1071 19.2212 76.1071 18.8772V18.6492H73.9231V17.7372H77.0671V22.0332H76.3351C76.2951 21.9212 76.2591 21.7812 76.2271 21.6132C76.1951 21.4372 76.1711 21.2692 76.1551 21.1092C75.8111 21.4452 75.4151 21.7012 74.9671 21.8772C74.5271 22.0452 74.0431 22.1292 73.5151 22.1292ZM81.5465 22.1052C81.0985 22.1052 80.6865 22.0292 80.3105 21.8772C79.9345 21.7252 79.6105 21.5132 79.3385 21.2412C79.0745 20.9692 78.8665 20.6492 78.7145 20.2812C78.5625 19.9052 78.4865 19.4972 78.4865 19.0572V18.9252C78.4865 18.4612 78.5625 18.0332 78.7145 17.6412C78.8665 17.2492 79.0785 16.9132 79.3505 16.6332C79.6305 16.3452 79.9585 16.1212 80.3345 15.9612C80.7105 15.8012 81.1225 15.7212 81.5705 15.7212C81.9945 15.7212 82.3785 15.7932 82.7225 15.9372C83.0745 16.0732 83.3745 16.2732 83.6225 16.5372C83.8785 16.7932 84.0745 17.1012 84.2105 17.4612C84.3545 17.8132 84.4265 18.2052 84.4265 18.6372V19.3092H79.4345C79.4665 19.5892 79.5385 19.8452 79.6505 20.0772C79.7705 20.3092 79.9265 20.5092 80.1185 20.6772C80.3105 20.8452 80.5345 20.9772 80.7905 21.0732C81.0465 21.1692 81.3225 21.2172 81.6185 21.2172C82.0505 21.2172 82.4385 21.1292 82.7825 20.9532C83.1265 20.7692 83.3865 20.5452 83.5625 20.2812L84.2705 20.7492C83.9745 21.1892 83.5825 21.5252 83.0945 21.7572C82.6145 21.9892 82.0985 22.1052 81.5465 22.1052ZM83.5505 18.4692C83.5345 18.1892 83.4705 17.9372 83.3585 17.7132C83.2545 17.4812 83.1105 17.2852 82.9265 17.1252C82.7505 16.9652 82.5425 16.8412 82.3025 16.7532C82.0625 16.6572 81.8025 16.6092 81.5225 16.6092C80.9705 16.6092 80.5105 16.7812 80.1425 17.1252C79.7745 17.4612 79.5465 17.9092 79.4585 18.4692H83.5505ZM88.0315 22.0692C87.4955 22.0692 87.0635 21.9412 86.7355 21.6852C86.4155 21.4292 86.2555 20.9972 86.2555 20.3892V16.6332H85.4155V15.9852C85.5435 15.9452 85.6795 15.9092 85.8235 15.8772C85.9755 15.8452 86.1195 15.8212 86.2555 15.8052V14.3532L87.1435 14.2332V15.7932H89.2435V16.6332H87.1435V20.2332C87.1435 20.6092 87.2315 20.8692 87.4075 21.0132C87.5835 21.1492 87.8355 21.2172 88.1635 21.2172C88.2435 21.2172 88.3395 21.2172 88.4515 21.2172C88.5635 21.2092 88.6755 21.2012 88.7875 21.1932C88.8995 21.1772 89.0075 21.1612 89.1115 21.1452C89.2155 21.1292 89.2995 21.1092 89.3635 21.0852V21.8772C89.2195 21.9412 89.0155 21.9892 88.7515 22.0212C88.4875 22.0532 88.2475 22.0692 88.0315 22.0692ZM94.608 14.5812C94.44 14.5812 94.3 14.5252 94.188 14.4132C94.076 14.3012 94.02 14.1612 94.02 13.9932C94.02 13.8252 94.076 13.6852 94.188 13.5732C94.3 13.4532 94.44 13.3932 94.608 13.3932C94.776 13.3932 94.916 13.4532 95.028 13.5732C95.14 13.6852 95.196 13.8252 95.196 13.9932C95.196 14.1612 95.14 14.3012 95.028 14.4132C94.916 14.5252 94.776 14.5812 94.608 14.5812ZM94.164 15.7932H95.052V22.0332H94.164V15.7932ZM99.0589 22.0692C98.5229 22.0692 98.0909 21.9412 97.7629 21.6852C97.4429 21.4292 97.2829 20.9972 97.2829 20.3892V16.6332H96.4429V15.9852C96.5709 15.9452 96.7069 15.9092 96.8509 15.8772C97.0029 15.8452 97.1469 15.8212 97.2829 15.8052V14.3532L98.1709 14.2332V15.7932H100.271V16.6332H98.1709V20.2332C98.1709 20.6092 98.2589 20.8692 98.4349 21.0132C98.6109 21.1492 98.8629 21.2172 99.1909 21.2172C99.2709 21.2172 99.3669 21.2172 99.4789 21.2172C99.5909 21.2092 99.7029 21.2012 99.8149 21.1932C99.9269 21.1772 100.035 21.1612 100.139 21.1452C100.243 21.1292 100.327 21.1092 100.391 21.0852V21.8772C100.247 21.9412 100.043 21.9892 99.7789 22.0212C99.5149 22.0532 99.2749 22.0692 99.0589 22.0692ZM107.903 22.1052C107.447 22.1052 107.027 22.0292 106.643 21.8772C106.259 21.7172 105.927 21.5012 105.647 21.2292C105.375 20.9492 105.163 20.6172 105.011 20.2332C104.859 19.8412 104.783 19.4132 104.783 18.9492V18.8772C104.783 18.4132 104.859 17.9892 105.011 17.6052C105.163 17.2132 105.375 16.8812 105.647 16.6092C105.927 16.3292 106.259 16.1132 106.643 15.9612C107.027 15.8012 107.447 15.7212 107.903 15.7212H107.963C108.419 15.7212 108.839 15.8012 109.223 15.9612C109.607 16.1132 109.935 16.3292 110.207 16.6092C110.487 16.8812 110.703 17.2132 110.855 17.6052C111.007 17.9892 111.083 18.4132 111.083 18.8772V18.9492C111.083 19.4132 111.007 19.8412 110.855 20.2332C110.703 20.6172 110.487 20.9492 110.207 21.2292C109.935 21.5012 109.607 21.7172 109.223 21.8772C108.839 22.0292 108.419 22.1052 107.963 22.1052H107.903ZM107.939 21.2292C108.267 21.2292 108.567 21.1732 108.839 21.0612C109.111 20.9492 109.343 20.7932 109.535 20.5932C109.727 20.3932 109.875 20.1532 109.979 19.8732C110.091 19.5932 110.147 19.2852 110.147 18.9492V18.8772C110.147 18.5412 110.091 18.2332 109.979 17.9532C109.875 17.6732 109.727 17.4332 109.535 17.2332C109.343 17.0332 109.111 16.8772 108.839 16.7652C108.567 16.6532 108.267 16.5972 107.939 16.5972H107.927C107.599 16.5972 107.299 16.6532 107.027 16.7652C106.755 16.8772 106.523 17.0332 106.331 17.2332C106.139 17.4332 105.987 17.6732 105.875 17.9532C105.771 18.2332 105.719 18.5412 105.719 18.8772V18.9492C105.719 19.2852 105.771 19.5932 105.875 19.8732C105.987 20.1532 106.139 20.3932 106.331 20.5932C106.523 20.7932 106.755 20.9492 107.027 21.0612C107.299 21.1732 107.599 21.2292 107.927 21.2292H107.939ZM112.832 15.7932H113.528C113.568 15.9052 113.604 16.0452 113.636 16.2132C113.668 16.3812 113.692 16.5332 113.708 16.6692C113.972 16.3652 114.296 16.1292 114.68 15.9612C115.064 15.7852 115.484 15.6972 115.94 15.6972H115.976C116.752 15.6972 117.328 15.8972 117.704 16.2972C118.08 16.6972 118.268 17.2772 118.268 18.0372V22.0332H117.38V18.1932C117.38 17.6812 117.26 17.2852 117.02 17.0052C116.788 16.7252 116.396 16.5852 115.844 16.5852H115.784C115.48 16.5852 115.2 16.6292 114.944 16.7172C114.688 16.8052 114.468 16.9332 114.284 17.1012C114.108 17.2692 113.968 17.4732 113.864 17.7132C113.768 17.9452 113.72 18.2132 113.72 18.5172V22.0332H112.832V15.7932Z" fill="white"/>
<path d="M75.6151 46.2132C74.7391 46.2132 73.9351 46.0572 73.2031 45.7452C72.4831 45.4212 71.8591 44.9772 71.3311 44.4132C70.8151 43.8372 70.4131 43.1592 70.1251 42.3792C69.8371 41.5872 69.6931 40.7232 69.6931 39.7872V39.6972C69.6931 38.7612 69.8491 37.9032 70.1611 37.1232C70.4731 36.3312 70.9051 35.6472 71.4571 35.0712C72.0091 34.4952 72.6631 34.0452 73.4191 33.7212C74.1751 33.3972 75.0031 33.2352 75.9031 33.2352H75.9391C77.0911 33.2352 78.0991 33.4872 78.9631 33.9912C79.8391 34.4952 80.5591 35.1792 81.1231 36.0432L79.2151 37.2492C78.8671 36.6252 78.4351 36.1512 77.9191 35.8272C77.4151 35.4912 76.8031 35.3232 76.0831 35.3232H76.0471C75.4591 35.3232 74.9251 35.4312 74.4451 35.6472C73.9651 35.8632 73.5511 36.1632 73.2031 36.5472C72.8671 36.9312 72.6031 37.3932 72.4111 37.9332C72.2311 38.4612 72.1411 39.0492 72.1411 39.6972V39.8052C72.1411 40.4532 72.2311 41.0412 72.4111 41.5692C72.6031 42.0972 72.8671 42.5532 73.2031 42.9372C73.5511 43.3092 73.9651 43.6032 74.4451 43.8192C74.9251 44.0232 75.4591 44.1252 76.0471 44.1252H76.0831C76.5751 44.1252 77.0191 44.0592 77.4151 43.9272C77.8111 43.7952 78.1471 43.6152 78.4231 43.3872C78.6991 43.1472 78.9091 42.8712 79.0531 42.5592C79.2091 42.2472 79.2871 41.9172 79.2871 41.5692V41.3172H76.4791V39.3372H81.4831V46.0332H79.7731C79.7011 45.9012 79.6351 45.7032 79.5751 45.4392C79.5271 45.1632 79.4911 44.8992 79.4671 44.6472C79.0711 45.1152 78.5371 45.4932 77.8651 45.7812C77.1931 46.0692 76.4851 46.2132 75.7411 46.2132H75.6151ZM88.2322 46.1952C87.5122 46.1952 86.8462 46.0812 86.2342 45.8532C85.6342 45.6132 85.1122 45.2892 84.6682 44.8812C84.2362 44.4612 83.8942 43.9632 83.6422 43.3872C83.4022 42.7992 83.2822 42.1632 83.2822 41.4792V41.2272C83.2822 40.5432 83.4022 39.9132 83.6422 39.3372C83.8942 38.7492 84.2362 38.2512 84.6682 37.8432C85.1122 37.4232 85.6342 37.0992 86.2342 36.8712C86.8462 36.6312 87.5122 36.5112 88.2322 36.5112H88.3762C89.0962 36.5112 89.7562 36.6312 90.3562 36.8712C90.9682 37.0992 91.4902 37.4232 91.9222 37.8432C92.3662 38.2512 92.7082 38.7492 92.9482 39.3372C93.2002 39.9132 93.3262 40.5432 93.3262 41.2272V41.4792C93.3262 42.1632 93.2002 42.7992 92.9482 43.3872C92.7082 43.9632 92.3662 44.4612 91.9222 44.8812C91.4902 45.2892 90.9682 45.6132 90.3562 45.8532C89.7562 46.0812 89.0962 46.1952 88.3762 46.1952H88.2322ZM88.3582 44.4312C88.7422 44.4312 89.0962 44.3592 89.4202 44.2152C89.7442 44.0592 90.0202 43.8492 90.2482 43.5852C90.4882 43.3212 90.6742 43.0092 90.8062 42.6492C90.9382 42.2772 91.0042 41.8752 91.0042 41.4432V41.2632C91.0042 40.8312 90.9382 40.4352 90.8062 40.0752C90.6742 39.7032 90.4882 39.3852 90.2482 39.1212C90.0202 38.8572 89.7442 38.6532 89.4202 38.5092C89.0962 38.3532 88.7422 38.2752 88.3582 38.2752H88.2502C87.8662 38.2752 87.5122 38.3532 87.1882 38.5092C86.8762 38.6532 86.6002 38.8572 86.3602 39.1212C86.1322 39.3852 85.9522 39.7032 85.8202 40.0752C85.6882 40.4352 85.6222 40.8312 85.6222 41.2632V41.4432C85.6222 41.8752 85.6882 42.2772 85.8202 42.6492C85.9522 43.0092 86.1322 43.3212 86.3602 43.5852C86.6002 43.8492 86.8762 44.0592 87.1882 44.2152C87.5122 44.3592 87.8662 44.4312 88.2502 44.4312H88.3582ZM99.869 46.1952C99.149 46.1952 98.483 46.0812 97.871 45.8532C97.271 45.6132 96.749 45.2892 96.305 44.8812C95.873 44.4612 95.531 43.9632 95.279 43.3872C95.039 42.7992 94.919 42.1632 94.919 41.4792V41.2272C94.919 40.5432 95.039 39.9132 95.279 39.3372C95.531 38.7492 95.873 38.2512 96.305 37.8432C96.749 37.4232 97.271 37.0992 97.871 36.8712C98.483 36.6312 99.149 36.5112 99.869 36.5112H100.013C100.733 36.5112 101.393 36.6312 101.993 36.8712C102.605 37.0992 103.127 37.4232 103.559 37.8432C104.003 38.2512 104.345 38.7492 104.585 39.3372C104.837 39.9132 104.963 40.5432 104.963 41.2272V41.4792C104.963 42.1632 104.837 42.7992 104.585 43.3872C104.345 43.9632 104.003 44.4612 103.559 44.8812C103.127 45.2892 102.605 45.6132 101.993 45.8532C101.393 46.0812 100.733 46.1952 100.013 46.1952H99.869ZM99.995 44.4312C100.379 44.4312 100.733 44.3592 101.057 44.2152C101.381 44.0592 101.657 43.8492 101.885 43.5852C102.125 43.3212 102.311 43.0092 102.443 42.6492C102.575 42.2772 102.641 41.8752 102.641 41.4432V41.2632C102.641 40.8312 102.575 40.4352 102.443 40.0752C102.311 39.7032 102.125 39.3852 101.885 39.1212C101.657 38.8572 101.381 38.6532 101.057 38.5092C100.733 38.3532 100.379 38.2752 99.995 38.2752H99.887C99.503 38.2752 99.149 38.3532 98.825 38.5092C98.513 38.6532 98.237 38.8572 97.997 39.1212C97.769 39.3852 97.589 39.7032 97.457 40.0752C97.325 40.4352 97.259 40.8312 97.259 41.2632V41.4432C97.259 41.8752 97.325 42.2772 97.457 42.6492C97.589 43.0092 97.769 43.3212 97.997 43.5852C98.237 43.8492 98.513 44.0592 98.825 44.2152C99.149 44.3592 99.503 44.4312 99.887 44.4312H99.995ZM106.502 39.8592C106.502 39.3552 106.604 38.8992 106.808 38.4912C107.024 38.0712 107.318 37.7172 107.69 37.4292C108.062 37.1412 108.5 36.9192 109.004 36.7632C109.52 36.5952 110.084 36.5112 110.696 36.5112H110.966C111.686 36.5112 112.322 36.6192 112.874 36.8352C112.97 36.5472 113.066 36.2952 113.162 36.0792C113.27 35.8632 113.39 35.6712 113.522 35.5032H115.556L114.386 37.8252C114.89 38.3892 115.142 39.0672 115.142 39.8592V40.0032C115.142 40.4832 115.034 40.9272 114.818 41.3352C114.614 41.7432 114.326 42.0972 113.954 42.3972C113.582 42.6852 113.138 42.9132 112.622 43.0812C112.118 43.2492 111.566 43.3332 110.966 43.3332H110.876C110.672 43.3332 110.462 43.3152 110.246 43.2792V44.2872C110.402 44.2752 110.546 44.2692 110.678 44.2692C110.822 44.2572 110.972 44.2512 111.128 44.2512H111.29C111.902 44.2512 112.472 44.3172 113 44.4492C113.528 44.5692 113.984 44.7492 114.368 44.9892C114.752 45.2172 115.052 45.4992 115.268 45.8352C115.484 46.1592 115.592 46.5252 115.592 46.9332V47.1132C115.592 47.5212 115.478 47.8872 115.25 48.2112C115.034 48.5472 114.734 48.8292 114.35 49.0572C113.966 49.2972 113.504 49.4772 112.964 49.5972C112.436 49.7292 111.86 49.7952 111.236 49.7952H110.786C110.162 49.7952 109.58 49.7292 109.04 49.5972C108.5 49.4772 108.038 49.2972 107.654 49.0572C107.27 48.8292 106.964 48.5472 106.736 48.2112C106.52 47.8872 106.412 47.5212 106.412 47.1132V46.8972C106.412 46.3692 106.592 45.9012 106.952 45.4932C107.324 45.0852 107.81 44.7612 108.41 44.5212V42.8292C107.822 42.5532 107.354 42.1692 107.006 41.6772C106.67 41.1732 106.502 40.6152 106.502 40.0032V39.8592ZM108.716 40.0752C108.716 40.3272 108.77 40.5552 108.878 40.7592C108.986 40.9632 109.13 41.1372 109.31 41.2812C109.502 41.4252 109.724 41.5392 109.976 41.6232C110.228 41.6952 110.492 41.7312 110.768 41.7312H110.966C111.242 41.7312 111.5 41.6892 111.74 41.6052C111.992 41.5212 112.208 41.4072 112.388 41.2632C112.58 41.1192 112.73 40.9452 112.838 40.7412C112.946 40.5372 113 40.3152 113 40.0752V39.8772C113 39.6372 112.946 39.4152 112.838 39.2112C112.73 39.0072 112.58 38.8332 112.388 38.6892C112.208 38.5452 111.992 38.4312 111.74 38.3472C111.5 38.2632 111.236 38.2212 110.948 38.2212H110.786C110.498 38.2212 110.228 38.2632 109.976 38.3472C109.736 38.4312 109.52 38.5452 109.328 38.6892C109.136 38.8332 108.986 39.0072 108.878 39.2112C108.77 39.4152 108.716 39.6372 108.716 39.8772V40.0752ZM108.644 47.0052C108.644 47.3412 108.842 47.6112 109.238 47.8152C109.634 48.0312 110.156 48.1392 110.804 48.1392H111.218C111.866 48.1392 112.388 48.0312 112.784 47.8152C113.192 47.5992 113.396 47.3292 113.396 47.0052V46.8612C113.396 46.5372 113.192 46.2672 112.784 46.0512C112.388 45.8472 111.866 45.7452 111.218 45.7452H110.804C110.156 45.7452 109.634 45.8472 109.238 46.0512C108.842 46.2672 108.644 46.5372 108.644 46.8612V47.0052ZM117.396 33.0732H119.628V46.0332H117.396V33.0732ZM126.62 46.1952C125.912 46.1952 125.258 46.0812 124.658 45.8532C124.07 45.6252 123.56 45.3072 123.128 44.8992C122.708 44.4912 122.378 43.9992 122.138 43.4232C121.91 42.8472 121.796 42.2172 121.796 41.5332V41.2812C121.796 40.5972 121.916 39.9612 122.156 39.3732C122.396 38.7852 122.726 38.2812 123.146 37.8612C123.578 37.4412 124.088 37.1112 124.676 36.8712C125.264 36.6312 125.9 36.5112 126.584 36.5112H126.692C127.34 36.5112 127.934 36.6192 128.474 36.8352C129.026 37.0512 129.5 37.3512 129.896 37.7352C130.292 38.1072 130.598 38.5572 130.814 39.0852C131.042 39.6132 131.156 40.1952 131.156 40.8312V42.0372H124.01V42.0552C124.094 42.7392 124.382 43.2912 124.874 43.7112C125.378 44.1192 126.008 44.3232 126.764 44.3232H126.854C127.43 44.3232 127.958 44.2092 128.438 43.9812C128.93 43.7532 129.314 43.4652 129.59 43.1172L130.832 44.4672C130.388 45.0072 129.794 45.4332 129.05 45.7452C128.318 46.0452 127.562 46.1952 126.782 46.1952H126.62ZM129.032 40.5432C128.984 39.8712 128.738 39.3252 128.294 38.9052C127.85 38.4732 127.286 38.2572 126.602 38.2572H126.584C125.936 38.2572 125.384 38.4672 124.928 38.8872C124.484 39.2952 124.196 39.8472 124.064 40.5432H129.032ZM138.283 33.4332H142.819C143.503 33.4332 144.127 33.5352 144.691 33.7392C145.255 33.9312 145.735 34.2072 146.131 34.5672C146.539 34.9272 146.851 35.3652 147.067 35.8812C147.295 36.3852 147.409 36.9492 147.409 37.5732V37.6812C147.409 38.3172 147.295 38.8932 147.067 39.4092C146.851 39.9252 146.545 40.3692 146.149 40.7412C145.753 41.1012 145.273 41.3832 144.709 41.5872C144.145 41.7792 143.521 41.8752 142.837 41.8752H140.641V46.0332H138.283V33.4332ZM142.657 39.9312C143.413 39.9312 143.995 39.7332 144.403 39.3372C144.811 38.9292 145.015 38.3892 145.015 37.7172V37.6092C145.015 36.9612 144.817 36.4512 144.421 36.0792C144.025 35.6952 143.455 35.5032 142.711 35.5032H140.587V39.9312H142.657ZM149.389 33.0732H151.621V46.0332H149.389V33.0732ZM156.956 46.2132C156.476 46.2132 156.032 46.1472 155.624 46.0152C155.228 45.8712 154.886 45.6792 154.598 45.4392C154.31 45.1992 154.082 44.9052 153.914 44.5572C153.758 44.2092 153.68 43.8312 153.68 43.4232V43.2972C153.68 41.2692 155.564 40.2552 159.332 40.2552H160.088V39.8412C160.088 39.3852 159.92 39.0192 159.584 38.7432C159.248 38.4672 158.768 38.3292 158.144 38.3292H158.09C157.598 38.3292 157.082 38.4132 156.542 38.5812C156.014 38.7492 155.516 38.9832 155.048 39.2832L154.13 37.6632C154.706 37.3032 155.342 37.0152 156.038 36.7992C156.734 36.5832 157.46 36.4752 158.216 36.4752H158.324C158.888 36.4752 159.404 36.5472 159.872 36.6912C160.34 36.8352 160.748 37.0512 161.096 37.3392C161.444 37.6272 161.714 37.9812 161.906 38.4012C162.098 38.8212 162.194 39.3132 162.194 39.8772V44.1072C162.194 44.4312 162.224 44.7552 162.284 45.0792C162.344 45.4032 162.422 45.7212 162.518 46.0332H160.394C160.334 45.8892 160.28 45.7212 160.232 45.5292C160.196 45.3252 160.166 45.1212 160.142 44.9172C159.746 45.3132 159.278 45.6312 158.738 45.8712C158.198 46.0992 157.604 46.2132 156.956 46.2132ZM157.406 44.4132C157.934 44.4132 158.432 44.3112 158.9 44.1072C159.368 43.8912 159.764 43.6092 160.088 43.2612V41.6952H159.458C158.222 41.6952 157.31 41.8212 156.722 42.0732C156.134 42.3132 155.84 42.6852 155.84 43.1892V43.2612C155.84 43.5972 155.984 43.8732 156.272 44.0892C156.56 44.3052 156.938 44.4132 157.406 44.4132ZM165.999 49.6512C165.747 49.6512 165.459 49.6272 165.135 49.5792C164.823 49.5312 164.535 49.4412 164.271 49.3092V47.4012C164.487 47.5092 164.697 47.5932 164.901 47.6532C165.117 47.7252 165.339 47.7612 165.567 47.7612C165.951 47.7612 166.293 47.6472 166.593 47.4192C166.893 47.1912 167.163 46.8672 167.403 46.4472L163.353 36.6732H165.729L168.483 43.8552H168.609L170.895 36.6732H173.163L169.725 46.5552C169.593 46.9392 169.431 47.3112 169.239 47.6712C169.047 48.0432 168.807 48.3732 168.519 48.6612C168.231 48.9612 167.877 49.2012 167.457 49.3812C167.049 49.5612 166.563 49.6512 165.999 49.6512Z" fill="white"/>
</g>
<defs>
<filter id="filter0_b_145_1132" x="-23.6015" y="-23.6015" width="245.203" height="111.269" filterUnits="userSpaceOnUse" color-interpolation-filters="sRGB">
<feFlood flood-opacity="0" result="BackgroundImageFix"/>
<feGaussianBlur in="BackgroundImageFix" stdDeviation="12.0498"/>
<feComposite in2="SourceAlpha" operator="in" result="effect1_backgroundBlur_145_1132"/>
<feBlend mode="normal" in="SourceGraphic" in2="effect1_backgroundBlur_145_1132" result="shape"/>
</filter>
<linearGradient id="paint0_linear_145_1132" x1="44.1263" y1="26.242" x2="34.4045" y2="36.0437" gradientUnits="userSpaceOnUse">
<stop stop-color="#00C3FF"/>
<stop offset="1" stop-color="#1BE2FA"/>
</linearGradient>
<linearGradient id="paint1_linear_145_1132" x1="49.3398" y1="31.8268" x2="62.2702" y2="31.8268" gradientUnits="userSpaceOnUse">
<stop stop-color="#FFCE00"/>
<stop offset="1" stop-color="#FFEA00"/>
</linearGradient>
<linearGradient id="paint2_linear_145_1132" x1="34.7412" y1="47.9617" x2="51.9411" y2="34.1721" gradientUnits="userSpaceOnUse">
<stop stop-color="#DE2453"/>
<stop offset="1" stop-color="#FE3944"/>
</linearGradient>
<linearGradient id="paint3_linear_145_1132" x1="35.5761" y1="16.1061" x2="51.9448" y2="29.4758" gradientUnits="userSpaceOnUse">
<stop stop-color="#11D574"/>
<stop offset="1" stop-color="#01F176"/>
</linearGradient>
</defs>
</svg>
