<svg width="12" height="13" viewBox="0 0 12 13" fill="none" xmlns="http://www.w3.org/2000/svg">
<g id="star-05" clip-path="url(#clip0_143_1143)">
<g id="Icon">
<path d="M6 1.06641L6.65075 3.6694C6.77773 4.17733 6.84122 4.4313 6.97346 4.63795C7.09042 4.82074 7.24566 4.97598 7.42846 5.09295C7.63511 5.22518 7.88908 5.28868 8.39701 5.41566L11 6.06641L8.397 6.71715C7.88908 6.84414 7.63511 6.90763 7.42846 7.03986C7.24566 7.15683 7.09042 7.31207 6.97346 7.49486C6.84122 7.70152 6.77773 7.95548 6.65075 8.46341L6 11.0664L5.34925 8.46341C5.22227 7.95548 5.15878 7.70152 5.02654 7.49486C4.90958 7.31207 4.75434 7.15683 4.57154 7.03986C4.36489 6.90763 4.11092 6.84414 3.60299 6.71715L1 6.06641L3.603 5.41566C4.11092 5.28868 4.36489 5.22518 4.57154 5.09295C4.75434 4.97598 4.90958 4.82074 5.02654 4.63795C5.15878 4.43129 5.22227 4.17733 5.34925 3.6694L6 1.06641Z" fill="#8946C7"/>
<path d="M6 1.06641L6.65075 3.6694C6.77773 4.17733 6.84122 4.4313 6.97346 4.63795C7.09042 4.82074 7.24566 4.97598 7.42846 5.09295C7.63511 5.22518 7.88908 5.28868 8.39701 5.41566L11 6.06641L8.397 6.71715C7.88908 6.84414 7.63511 6.90763 7.42846 7.03986C7.24566 7.15683 7.09042 7.31207 6.97346 7.49486C6.84122 7.70152 6.77773 7.95548 6.65075 8.46341L6 11.0664L5.34925 8.46341C5.22227 7.95548 5.15878 7.70152 5.02654 7.49486C4.90958 7.31207 4.75434 7.15683 4.57154 7.03986C4.36489 6.90763 4.11092 6.84414 3.60299 6.71715L1 6.06641L3.603 5.41566C4.11092 5.28868 4.36489 5.22518 4.57154 5.09295C4.75434 4.97598 4.90958 4.82074 5.02654 4.63795C5.15878 4.43129 5.22227 4.17733 5.34925 3.6694L6 1.06641Z" fill="#8946C7"/>
<path d="M6 1.06641L6.65075 3.6694C6.77773 4.17733 6.84122 4.4313 6.97346 4.63795C7.09042 4.82074 7.24566 4.97598 7.42846 5.09295C7.63511 5.22518 7.88908 5.28868 8.39701 5.41566L11 6.06641L8.397 6.71715C7.88908 6.84414 7.63511 6.90763 7.42846 7.03986C7.24566 7.15683 7.09042 7.31207 6.97346 7.49486C6.84122 7.70152 6.77773 7.95548 6.65075 8.46341L6 11.0664L5.34925 8.46341C5.22227 7.95548 5.15878 7.70152 5.02654 7.49486C4.90958 7.31207 4.75434 7.15683 4.57154 7.03986C4.36489 6.90763 4.11092 6.84414 3.60299 6.71715L1 6.06641L3.603 5.41566C4.11092 5.28868 4.36489 5.22518 4.57154 5.09295C4.75434 4.97598 4.90958 4.82074 5.02654 4.63795C5.15878 4.43129 5.22227 4.17733 5.34925 3.6694L6 1.06641Z" stroke="#8946C7" stroke-width="2" stroke-linecap="round" stroke-linejoin="round"/>
<path d="M6 1.06641L6.65075 3.6694C6.77773 4.17733 6.84122 4.4313 6.97346 4.63795C7.09042 4.82074 7.24566 4.97598 7.42846 5.09295C7.63511 5.22518 7.88908 5.28868 8.39701 5.41566L11 6.06641L8.397 6.71715C7.88908 6.84414 7.63511 6.90763 7.42846 7.03986C7.24566 7.15683 7.09042 7.31207 6.97346 7.49486C6.84122 7.70152 6.77773 7.95548 6.65075 8.46341L6 11.0664L5.34925 8.46341C5.22227 7.95548 5.15878 7.70152 5.02654 7.49486C4.90958 7.31207 4.75434 7.15683 4.57154 7.03986C4.36489 6.90763 4.11092 6.84414 3.60299 6.71715L1 6.06641L3.603 5.41566C4.11092 5.28868 4.36489 5.22518 4.57154 5.09295C4.75434 4.97598 4.90958 4.82074 5.02654 4.63795C5.15878 4.43129 5.22227 4.17733 5.34925 3.6694L6 1.06641Z" stroke="#8946C7" stroke-width="2" stroke-linecap="round" stroke-linejoin="round"/>
</g>
</g>
<defs>
<clipPath id="clip0_143_1143">
<rect width="12" height="12" fill="white" transform="translate(0 0.0664062)"/>
</clipPath>
</defs>
</svg>
