<svg width="12" height="12" viewBox="0 0 12 12" fill="none" xmlns="http://www.w3.org/2000/svg">
<g clip-path="url(#clip0_480_310)">
<path d="M6 1L6.65075 3.603C6.77773 4.11092 6.84122 4.36489 6.97346 4.57154C7.09042 4.75434 7.24566 4.90958 7.42846 5.02654C7.63511 5.15878 7.88908 5.22227 8.39701 5.34925L11 6L8.397 6.65075C7.88908 6.77773 7.63511 6.84122 7.42846 6.97346C7.24566 7.09042 7.09042 7.24566 6.97346 7.42846C6.84122 7.63511 6.77773 7.88908 6.65075 8.39701L6 11L5.34925 8.397C5.22227 7.88908 5.15878 7.63511 5.02654 7.42846C4.90958 7.24566 4.75434 7.09042 4.57154 6.97346C4.36489 6.84122 4.11092 6.77773 3.60299 6.65075L1 6L3.603 5.34925C4.11092 5.22227 4.36489 5.15878 4.57154 5.02654C4.75434 4.90958 4.90958 4.75434 5.02654 4.57154C5.15878 4.36489 5.22227 4.11092 5.34925 3.60299L6 1Z" fill="#B0C9FF"/>
<path d="M6 1L6.65075 3.603C6.77773 4.11092 6.84122 4.36489 6.97346 4.57154C7.09042 4.75434 7.24566 4.90958 7.42846 5.02654C7.63511 5.15878 7.88908 5.22227 8.39701 5.34925L11 6L8.397 6.65075C7.88908 6.77773 7.63511 6.84122 7.42846 6.97346C7.24566 7.09042 7.09042 7.24566 6.97346 7.42846C6.84122 7.63511 6.77773 7.88908 6.65075 8.39701L6 11L5.34925 8.397C5.22227 7.88908 5.15878 7.63511 5.02654 7.42846C4.90958 7.24566 4.75434 7.09042 4.57154 6.97346C4.36489 6.84122 4.11092 6.77773 3.60299 6.65075L1 6L3.603 5.34925C4.11092 5.22227 4.36489 5.15878 4.57154 5.02654C4.75434 4.90958 4.90958 4.75434 5.02654 4.57154C5.15878 4.36489 5.22227 4.11092 5.34925 3.60299L6 1Z" fill="#B0C9FF"/>
<path d="M6 1L6.65075 3.603C6.77773 4.11092 6.84122 4.36489 6.97346 4.57154C7.09042 4.75434 7.24566 4.90958 7.42846 5.02654C7.63511 5.15878 7.88908 5.22227 8.39701 5.34925L11 6L8.397 6.65075C7.88908 6.77773 7.63511 6.84122 7.42846 6.97346C7.24566 7.09042 7.09042 7.24566 6.97346 7.42846C6.84122 7.63511 6.77773 7.88908 6.65075 8.39701L6 11L5.34925 8.397C5.22227 7.88908 5.15878 7.63511 5.02654 7.42846C4.90958 7.24566 4.75434 7.09042 4.57154 6.97346C4.36489 6.84122 4.11092 6.77773 3.60299 6.65075L1 6L3.603 5.34925C4.11092 5.22227 4.36489 5.15878 4.57154 5.02654C4.75434 4.90958 4.90958 4.75434 5.02654 4.57154C5.15878 4.36489 5.22227 4.11092 5.34925 3.60299L6 1Z" stroke="#B0C9FF" stroke-width="2" stroke-linecap="round" stroke-linejoin="round"/>
<path d="M6 1L6.65075 3.603C6.77773 4.11092 6.84122 4.36489 6.97346 4.57154C7.09042 4.75434 7.24566 4.90958 7.42846 5.02654C7.63511 5.15878 7.88908 5.22227 8.39701 5.34925L11 6L8.397 6.65075C7.88908 6.77773 7.63511 6.84122 7.42846 6.97346C7.24566 7.09042 7.09042 7.24566 6.97346 7.42846C6.84122 7.63511 6.77773 7.88908 6.65075 8.39701L6 11L5.34925 8.397C5.22227 7.88908 5.15878 7.63511 5.02654 7.42846C4.90958 7.24566 4.75434 7.09042 4.57154 6.97346C4.36489 6.84122 4.11092 6.77773 3.60299 6.65075L1 6L3.603 5.34925C4.11092 5.22227 4.36489 5.15878 4.57154 5.02654C4.75434 4.90958 4.90958 4.75434 5.02654 4.57154C5.15878 4.36489 5.22227 4.11092 5.34925 3.60299L6 1Z" stroke="#B0C9FF" stroke-width="2" stroke-linecap="round" stroke-linejoin="round"/>
</g>
<defs>
<clipPath id="clip0_480_310">
<rect width="12" height="12" fill="white"/>
</clipPath>
</defs>
</svg>
