<svg width="38" height="37" viewBox="0 0 38 37" fill="none" xmlns="http://www.w3.org/2000/svg">
<g id="apple">
<path id="apple_2" d="M29.5455 14.2246C29.416 14.3001 26.3343 15.8939 26.3343 19.4275C26.4796 23.4574 30.2233 24.8707 30.2875 24.8707C30.2233 24.9462 29.7223 26.7959 28.2383 28.7349C27.0606 30.4051 25.7534 32.0891 23.7684 32.0891C21.8802 32.0891 21.2024 30.9759 19.0238 30.9759C16.6841 30.9759 16.0221 32.0891 14.2307 32.0891C12.2457 32.0891 10.8417 30.3149 9.59977 28.6604C7.9863 26.4948 6.61491 23.0965 6.5665 19.8336C6.53387 18.1045 6.88961 16.4048 7.79265 14.9612C9.06721 12.9457 11.3427 11.5775 13.8276 11.5324C15.7316 11.4726 17.4261 12.7505 18.588 12.7505C19.7016 12.7505 21.7834 11.5324 24.1388 11.5324C25.1555 11.5334 27.8668 11.8188 29.5455 14.2246ZM18.427 11.1872C18.0881 9.60818 19.0238 8.02916 19.8952 7.02193C21.0087 5.80383 22.7675 4.97705 24.2841 4.97705C24.3809 6.55607 23.7673 8.10468 22.6706 9.23255C21.6865 10.4507 19.992 11.3677 18.427 11.1872Z" fill="white"/>
</g>
</svg>
