<svg width="198" height="64" viewBox="0 0 198 64" fill="none" xmlns="http://www.w3.org/2000/svg">
<g filter="url(#filter0_b_145_1125)">
<path d="M1 9C1 4.58172 4.58172 1 9 1H189C193.418 1 197 4.58172 197 9V55.0664C197 59.4847 193.418 63.0664 189 63.0664H9C4.58172 63.0664 1 59.4847 1 55.0664V9Z" fill="black" fill-opacity="0.12"/>
<path d="M1 9C1 4.58172 4.58172 1 9 1H189C193.418 1 197 4.58172 197 9V55.0664C197 59.4847 193.418 63.0664 189 63.0664H9C4.58172 63.0664 1 59.4847 1 55.0664V9Z" stroke="white" stroke-opacity="0.27" stroke-width="1.00415"/>
<path d="M63.0455 27.7246C62.916 27.8001 59.8343 29.3939 59.8343 32.9275C59.9796 36.9574 63.7233 38.3707 63.7875 38.3707C63.7233 38.4462 63.2223 40.2959 61.7383 42.2349C60.5606 43.9051 59.2534 45.5891 57.2684 45.5891C55.3802 45.5891 54.7024 44.4759 52.5238 44.4759C50.1841 44.4759 49.5221 45.5891 47.7307 45.5891C45.7457 45.5891 44.3417 43.8149 43.0998 42.1604C41.4863 39.9948 40.1149 36.5965 40.0665 33.3336C40.0339 31.6045 40.3896 29.9048 41.2926 28.4612C42.5672 26.4457 44.8427 25.0775 47.3276 25.0324C49.2316 24.9726 50.9261 26.2505 52.088 26.2505C53.2016 26.2505 55.2834 25.0324 57.6388 25.0324C58.6555 25.0334 61.3668 25.3188 63.0455 27.7246ZM51.927 24.6872C51.5881 23.1082 52.5238 21.5292 53.3952 20.5219C54.5087 19.3038 56.2675 18.4771 57.7841 18.4771C57.8809 20.0561 57.2673 21.6047 56.1706 22.7326C55.1865 23.9507 53.492 24.8677 51.927 24.6872Z" fill="white"/>
<path d="M81.5151 22.1292C80.9311 22.1292 80.3911 22.0212 79.8951 21.8052C79.3991 21.5892 78.9751 21.2932 78.6231 20.9172C78.2711 20.5332 77.9951 20.0812 77.7951 19.5612C77.5951 19.0332 77.4951 18.4612 77.4951 17.8452V17.8092C77.4951 17.1932 77.5951 16.6252 77.7951 16.1052C78.0031 15.5772 78.2871 15.1252 78.6471 14.7492C79.0071 14.3652 79.4351 14.0652 79.9311 13.8492C80.4271 13.6332 80.9711 13.5252 81.5631 13.5252C81.9391 13.5252 82.2871 13.5732 82.6071 13.6692C82.9351 13.7572 83.2311 13.8812 83.4951 14.0412C83.7671 14.2012 84.0071 14.3932 84.2151 14.6172C84.4231 14.8332 84.5951 15.0692 84.7311 15.3252L83.8911 15.8412C83.6671 15.4092 83.3631 15.0732 82.9791 14.8332C82.6031 14.5852 82.1271 14.4612 81.5511 14.4612C81.0951 14.4612 80.6791 14.5452 80.3031 14.7132C79.9271 14.8732 79.6031 15.1012 79.3311 15.3972C79.0671 15.6932 78.8631 16.0452 78.7191 16.4532C78.5751 16.8612 78.5031 17.3132 78.5031 17.8092V17.8572C78.5031 18.3452 78.5751 18.7972 78.7191 19.2132C78.8631 19.6212 79.0671 19.9732 79.3311 20.2692C79.6031 20.5572 79.9271 20.7852 80.3031 20.9532C80.6791 21.1132 81.0951 21.1932 81.5511 21.1932C81.9511 21.1932 82.3071 21.1372 82.6191 21.0252C82.9391 20.9132 83.2071 20.7572 83.4231 20.5572C83.6471 20.3492 83.8151 20.1052 83.9271 19.8252C84.0471 19.5372 84.1071 19.2212 84.1071 18.8772V18.6492H81.9231V17.7372H85.0671V22.0332H84.3351C84.2951 21.9212 84.2591 21.7812 84.2271 21.6132C84.1951 21.4372 84.1711 21.2692 84.1551 21.1092C83.8111 21.4452 83.4151 21.7012 82.9671 21.8772C82.5271 22.0452 82.0431 22.1292 81.5151 22.1292ZM89.5465 22.1052C89.0985 22.1052 88.6865 22.0292 88.3105 21.8772C87.9345 21.7252 87.6105 21.5132 87.3385 21.2412C87.0745 20.9692 86.8665 20.6492 86.7145 20.2812C86.5625 19.9052 86.4865 19.4972 86.4865 19.0572V18.9252C86.4865 18.4612 86.5625 18.0332 86.7145 17.6412C86.8665 17.2492 87.0785 16.9132 87.3505 16.6332C87.6305 16.3452 87.9585 16.1212 88.3345 15.9612C88.7105 15.8012 89.1225 15.7212 89.5705 15.7212C89.9945 15.7212 90.3785 15.7932 90.7225 15.9372C91.0745 16.0732 91.3745 16.2732 91.6225 16.5372C91.8785 16.7932 92.0745 17.1012 92.2105 17.4612C92.3545 17.8132 92.4265 18.2052 92.4265 18.6372V19.3092H87.4345C87.4665 19.5892 87.5385 19.8452 87.6505 20.0772C87.7705 20.3092 87.9265 20.5092 88.1185 20.6772C88.3105 20.8452 88.5345 20.9772 88.7905 21.0732C89.0465 21.1692 89.3225 21.2172 89.6185 21.2172C90.0505 21.2172 90.4385 21.1292 90.7825 20.9532C91.1265 20.7692 91.3865 20.5452 91.5625 20.2812L92.2705 20.7492C91.9745 21.1892 91.5825 21.5252 91.0945 21.7572C90.6145 21.9892 90.0985 22.1052 89.5465 22.1052ZM91.5505 18.4692C91.5345 18.1892 91.4705 17.9372 91.3585 17.7132C91.2545 17.4812 91.1105 17.2852 90.9265 17.1252C90.7505 16.9652 90.5425 16.8412 90.3025 16.7532C90.0625 16.6572 89.8025 16.6092 89.5225 16.6092C88.9705 16.6092 88.5105 16.7812 88.1425 17.1252C87.7745 17.4612 87.5465 17.9092 87.4585 18.4692H91.5505ZM96.0315 22.0692C95.4955 22.0692 95.0635 21.9412 94.7355 21.6852C94.4155 21.4292 94.2555 20.9972 94.2555 20.3892V16.6332H93.4155V15.9852C93.5435 15.9452 93.6795 15.9092 93.8235 15.8772C93.9755 15.8452 94.1195 15.8212 94.2555 15.8052V14.3532L95.1435 14.2332V15.7932H97.2435V16.6332H95.1435V20.2332C95.1435 20.6092 95.2315 20.8692 95.4075 21.0132C95.5835 21.1492 95.8355 21.2172 96.1635 21.2172C96.2435 21.2172 96.3395 21.2172 96.4515 21.2172C96.5635 21.2092 96.6755 21.2012 96.7875 21.1932C96.8995 21.1772 97.0075 21.1612 97.1115 21.1452C97.2155 21.1292 97.2995 21.1092 97.3635 21.0852V21.8772C97.2195 21.9412 97.0155 21.9892 96.7515 22.0212C96.4875 22.0532 96.2475 22.0692 96.0315 22.0692ZM102.608 14.5812C102.44 14.5812 102.3 14.5252 102.188 14.4132C102.076 14.3012 102.02 14.1612 102.02 13.9932C102.02 13.8252 102.076 13.6852 102.188 13.5732C102.3 13.4532 102.44 13.3932 102.608 13.3932C102.776 13.3932 102.916 13.4532 103.028 13.5732C103.14 13.6852 103.196 13.8252 103.196 13.9932C103.196 14.1612 103.14 14.3012 103.028 14.4132C102.916 14.5252 102.776 14.5812 102.608 14.5812ZM102.164 15.7932H103.052V22.0332H102.164V15.7932ZM107.059 22.0692C106.523 22.0692 106.091 21.9412 105.763 21.6852C105.443 21.4292 105.283 20.9972 105.283 20.3892V16.6332H104.443V15.9852C104.571 15.9452 104.707 15.9092 104.851 15.8772C105.003 15.8452 105.147 15.8212 105.283 15.8052V14.3532L106.171 14.2332V15.7932H108.271V16.6332H106.171V20.2332C106.171 20.6092 106.259 20.8692 106.435 21.0132C106.611 21.1492 106.863 21.2172 107.191 21.2172C107.271 21.2172 107.367 21.2172 107.479 21.2172C107.591 21.2092 107.703 21.2012 107.815 21.1932C107.927 21.1772 108.035 21.1612 108.139 21.1452C108.243 21.1292 108.327 21.1092 108.391 21.0852V21.8772C108.247 21.9412 108.043 21.9892 107.779 22.0212C107.515 22.0532 107.275 22.0692 107.059 22.0692ZM115.903 22.1052C115.447 22.1052 115.027 22.0292 114.643 21.8772C114.259 21.7172 113.927 21.5012 113.647 21.2292C113.375 20.9492 113.163 20.6172 113.011 20.2332C112.859 19.8412 112.783 19.4132 112.783 18.9492V18.8772C112.783 18.4132 112.859 17.9892 113.011 17.6052C113.163 17.2132 113.375 16.8812 113.647 16.6092C113.927 16.3292 114.259 16.1132 114.643 15.9612C115.027 15.8012 115.447 15.7212 115.903 15.7212H115.963C116.419 15.7212 116.839 15.8012 117.223 15.9612C117.607 16.1132 117.935 16.3292 118.207 16.6092C118.487 16.8812 118.703 17.2132 118.855 17.6052C119.007 17.9892 119.083 18.4132 119.083 18.8772V18.9492C119.083 19.4132 119.007 19.8412 118.855 20.2332C118.703 20.6172 118.487 20.9492 118.207 21.2292C117.935 21.5012 117.607 21.7172 117.223 21.8772C116.839 22.0292 116.419 22.1052 115.963 22.1052H115.903ZM115.939 21.2292C116.267 21.2292 116.567 21.1732 116.839 21.0612C117.111 20.9492 117.343 20.7932 117.535 20.5932C117.727 20.3932 117.875 20.1532 117.979 19.8732C118.091 19.5932 118.147 19.2852 118.147 18.9492V18.8772C118.147 18.5412 118.091 18.2332 117.979 17.9532C117.875 17.6732 117.727 17.4332 117.535 17.2332C117.343 17.0332 117.111 16.8772 116.839 16.7652C116.567 16.6532 116.267 16.5972 115.939 16.5972H115.927C115.599 16.5972 115.299 16.6532 115.027 16.7652C114.755 16.8772 114.523 17.0332 114.331 17.2332C114.139 17.4332 113.987 17.6732 113.875 17.9532C113.771 18.2332 113.719 18.5412 113.719 18.8772V18.9492C113.719 19.2852 113.771 19.5932 113.875 19.8732C113.987 20.1532 114.139 20.3932 114.331 20.5932C114.523 20.7932 114.755 20.9492 115.027 21.0612C115.299 21.1732 115.599 21.2292 115.927 21.2292H115.939ZM120.832 15.7932H121.528C121.568 15.9052 121.604 16.0452 121.636 16.2132C121.668 16.3812 121.692 16.5332 121.708 16.6692C121.972 16.3652 122.296 16.1292 122.68 15.9612C123.064 15.7852 123.484 15.6972 123.94 15.6972H123.976C124.752 15.6972 125.328 15.8972 125.704 16.2972C126.08 16.6972 126.268 17.2772 126.268 18.0372V22.0332H125.38V18.1932C125.38 17.6812 125.26 17.2852 125.02 17.0052C124.788 16.7252 124.396 16.5852 123.844 16.5852H123.784C123.48 16.5852 123.2 16.6292 122.944 16.7172C122.688 16.8052 122.468 16.9332 122.284 17.1012C122.108 17.2692 121.968 17.4732 121.864 17.7132C121.768 17.9452 121.72 18.2132 121.72 18.5172V22.0332H120.832V15.7932Z" fill="white"/>
<path d="M81.3455 33.4332H84.4415L88.8695 46.0332H86.3495L85.3775 43.0632H80.4095L79.4375 46.0332H76.8995L81.3455 33.4332ZM84.7655 41.1192L82.9655 35.7912H82.8215L81.0035 41.1192H84.7655ZM90.1855 36.6732H91.9495C92.0095 36.8292 92.0635 37.0272 92.1115 37.2672C92.1715 37.5072 92.2135 37.7292 92.2375 37.9332C92.6335 37.4772 93.1075 37.1292 93.6595 36.8892C94.2235 36.6372 94.8475 36.5112 95.5315 36.5112H95.6215C96.2695 36.5112 96.8695 36.6312 97.4215 36.8712C97.9735 37.0992 98.4475 37.4232 98.8435 37.8432C99.2515 38.2512 99.5635 38.7432 99.7795 39.3192C100.008 39.8952 100.122 40.5312 100.122 41.2272V41.4792C100.122 42.1752 100.008 42.8112 99.7795 43.3872C99.5635 43.9632 99.2515 44.4612 98.8435 44.8812C98.4475 45.2892 97.9735 45.6132 97.4215 45.8532C96.8695 46.0812 96.2695 46.1952 95.6215 46.1952H95.5315C94.9075 46.1952 94.3255 46.0872 93.7855 45.8712C93.2575 45.6552 92.8015 45.3492 92.4175 44.9532V49.6332H90.1855V36.6732ZM95.1715 44.4132C95.9515 44.4132 96.5815 44.1432 97.0615 43.6032C97.5535 43.0632 97.7995 42.3432 97.7995 41.4432V41.2632C97.7995 40.3632 97.5595 39.6432 97.0795 39.1032C96.5995 38.5632 95.9635 38.2932 95.1715 38.2932H95.0455C94.2655 38.2932 93.6295 38.5632 93.1375 39.1032C92.6575 39.6432 92.4175 40.3632 92.4175 41.2632V41.4432C92.4175 42.3432 92.6575 43.0632 93.1375 43.6032C93.6295 44.1432 94.2655 44.4132 95.0455 44.4132H95.1715ZM102.262 36.6732H104.026C104.086 36.8292 104.14 37.0272 104.188 37.2672C104.248 37.5072 104.29 37.7292 104.314 37.9332C104.71 37.4772 105.184 37.1292 105.736 36.8892C106.3 36.6372 106.924 36.5112 107.608 36.5112H107.698C108.346 36.5112 108.946 36.6312 109.498 36.8712C110.05 37.0992 110.524 37.4232 110.92 37.8432C111.328 38.2512 111.64 38.7432 111.856 39.3192C112.084 39.8952 112.198 40.5312 112.198 41.2272V41.4792C112.198 42.1752 112.084 42.8112 111.856 43.3872C111.64 43.9632 111.328 44.4612 110.92 44.8812C110.524 45.2892 110.05 45.6132 109.498 45.8532C108.946 46.0812 108.346 46.1952 107.698 46.1952H107.608C106.984 46.1952 106.402 46.0872 105.862 45.8712C105.334 45.6552 104.878 45.3492 104.494 44.9532V49.6332H102.262V36.6732ZM107.248 44.4132C108.028 44.4132 108.658 44.1432 109.138 43.6032C109.63 43.0632 109.876 42.3432 109.876 41.4432V41.2632C109.876 40.3632 109.636 39.6432 109.156 39.1032C108.676 38.5632 108.04 38.2932 107.248 38.2932H107.122C106.342 38.2932 105.706 38.5632 105.214 39.1032C104.734 39.6432 104.494 40.3632 104.494 41.2632V41.4432C104.494 42.3432 104.734 43.0632 105.214 43.6032C105.706 44.1432 106.342 44.4132 107.122 44.4132H107.248ZM123.331 46.2312C122.395 46.2312 121.495 46.0872 120.631 45.7992C119.767 45.5112 119.005 45.0612 118.345 44.4492L119.551 42.5772C120.079 43.0812 120.691 43.4592 121.387 43.7112C122.083 43.9512 122.767 44.0712 123.439 44.0712C124.123 44.0712 124.657 43.9392 125.041 43.6752C125.437 43.4112 125.635 43.0512 125.635 42.5952C125.635 42.3072 125.557 42.0672 125.401 41.8752C125.257 41.6832 125.059 41.5152 124.807 41.3712C124.555 41.2272 124.261 41.1012 123.925 40.9932C123.601 40.8852 123.259 40.7772 122.899 40.6692C122.395 40.5252 121.885 40.3632 121.369 40.1832C120.865 40.0032 120.409 39.7692 120.001 39.4812C119.605 39.1932 119.275 38.8392 119.011 38.4192C118.759 37.9872 118.633 37.4592 118.633 36.8352C118.633 36.2352 118.747 35.7132 118.975 35.2692C119.215 34.8132 119.533 34.4352 119.929 34.1352C120.325 33.8232 120.781 33.5952 121.297 33.4512C121.813 33.2952 122.347 33.2172 122.899 33.2172C123.799 33.2172 124.639 33.3552 125.419 33.6312C126.199 33.8952 126.889 34.2792 127.489 34.7832L126.247 36.6372C125.803 36.2172 125.275 35.9052 124.663 35.7012C124.051 35.4972 123.469 35.3952 122.917 35.3952C122.305 35.3952 121.819 35.5212 121.459 35.7732C121.111 36.0252 120.937 36.3672 120.937 36.7992C120.937 37.0512 121.009 37.2672 121.153 37.4472C121.297 37.6272 121.489 37.7892 121.729 37.9332C121.981 38.0652 122.269 38.1852 122.593 38.2932C122.929 38.3892 123.283 38.4912 123.655 38.5992C124.183 38.7432 124.705 38.9112 125.221 39.1032C125.749 39.2832 126.217 39.5232 126.625 39.8232C127.045 40.1112 127.381 40.4712 127.633 40.9032C127.897 41.3232 128.029 41.8452 128.029 42.4692C128.029 43.0812 127.903 43.6212 127.651 44.0892C127.411 44.5572 127.075 44.9532 126.643 45.2772C126.223 45.5892 125.725 45.8292 125.149 45.9972C124.585 46.1532 123.979 46.2312 123.331 46.2312ZM133.011 46.1232C132.579 46.1232 132.183 46.0692 131.823 45.9612C131.475 45.8532 131.169 45.6852 130.905 45.4572C130.641 45.2172 130.437 44.9172 130.293 44.5572C130.149 44.1972 130.077 43.7592 130.077 43.2432V38.4732H128.835V36.9612C129.003 36.9012 129.195 36.8472 129.411 36.7992C129.639 36.7512 129.861 36.7152 130.077 36.6912V34.5132L132.291 34.2432V36.6732H135.225V38.4732H132.273V42.8292C132.273 43.3452 132.387 43.7052 132.615 43.9092C132.855 44.1012 133.191 44.1972 133.623 44.1972C133.743 44.1972 133.881 44.1912 134.037 44.1792C134.193 44.1672 134.349 44.1552 134.505 44.1432C134.661 44.1192 134.811 44.0952 134.955 44.0712C135.099 44.0472 135.219 44.0232 135.315 43.9992V45.7632C135.027 45.8952 134.661 45.9852 134.217 46.0332C133.773 46.0932 133.371 46.1232 133.011 46.1232ZM141.406 46.1952C140.686 46.1952 140.02 46.0812 139.408 45.8532C138.808 45.6132 138.286 45.2892 137.842 44.8812C137.41 44.4612 137.068 43.9632 136.816 43.3872C136.576 42.7992 136.456 42.1632 136.456 41.4792V41.2272C136.456 40.5432 136.576 39.9132 136.816 39.3372C137.068 38.7492 137.41 38.2512 137.842 37.8432C138.286 37.4232 138.808 37.0992 139.408 36.8712C140.02 36.6312 140.686 36.5112 141.406 36.5112H141.55C142.27 36.5112 142.93 36.6312 143.53 36.8712C144.142 37.0992 144.664 37.4232 145.096 37.8432C145.54 38.2512 145.882 38.7492 146.122 39.3372C146.374 39.9132 146.5 40.5432 146.5 41.2272V41.4792C146.5 42.1632 146.374 42.7992 146.122 43.3872C145.882 43.9632 145.54 44.4612 145.096 44.8812C144.664 45.2892 144.142 45.6132 143.53 45.8532C142.93 46.0812 142.27 46.1952 141.55 46.1952H141.406ZM141.532 44.4312C141.916 44.4312 142.27 44.3592 142.594 44.2152C142.918 44.0592 143.194 43.8492 143.422 43.5852C143.662 43.3212 143.848 43.0092 143.98 42.6492C144.112 42.2772 144.178 41.8752 144.178 41.4432V41.2632C144.178 40.8312 144.112 40.4352 143.98 40.0752C143.848 39.7032 143.662 39.3852 143.422 39.1212C143.194 38.8572 142.918 38.6532 142.594 38.5092C142.27 38.3532 141.916 38.2752 141.532 38.2752H141.424C141.04 38.2752 140.686 38.3532 140.362 38.5092C140.05 38.6532 139.774 38.8572 139.534 39.1212C139.306 39.3852 139.126 39.7032 138.994 40.0752C138.862 40.4352 138.796 40.8312 138.796 41.2632V41.4432C138.796 41.8752 138.862 42.2772 138.994 42.6492C139.126 43.0092 139.306 43.3212 139.534 43.5852C139.774 43.8492 140.05 44.0592 140.362 44.2152C140.686 44.3592 141.04 44.4312 141.424 44.4312H141.532ZM148.651 36.6732H150.415C150.475 36.8532 150.529 37.0692 150.577 37.3212C150.637 37.5732 150.673 37.8012 150.685 38.0052C151.045 37.5852 151.483 37.2612 151.999 37.0332C152.527 36.7932 153.115 36.6732 153.763 36.6732H153.979V38.8332C153.799 38.7612 153.601 38.7252 153.385 38.7252C152.569 38.7252 151.945 38.9352 151.513 39.3552C151.093 39.7752 150.883 40.3452 150.883 41.0652V46.0332H148.651V36.6732ZM159.878 46.1952C159.17 46.1952 158.516 46.0812 157.916 45.8532C157.328 45.6252 156.818 45.3072 156.386 44.8992C155.966 44.4912 155.636 43.9992 155.396 43.4232C155.168 42.8472 155.054 42.2172 155.054 41.5332V41.2812C155.054 40.5972 155.174 39.9612 155.414 39.3732C155.654 38.7852 155.984 38.2812 156.404 37.8612C156.836 37.4412 157.346 37.1112 157.934 36.8712C158.522 36.6312 159.158 36.5112 159.842 36.5112H159.95C160.598 36.5112 161.192 36.6192 161.732 36.8352C162.284 37.0512 162.758 37.3512 163.154 37.7352C163.55 38.1072 163.856 38.5572 164.072 39.0852C164.3 39.6132 164.414 40.1952 164.414 40.8312V42.0372H157.268V42.0552C157.352 42.7392 157.64 43.2912 158.132 43.7112C158.636 44.1192 159.266 44.3232 160.022 44.3232H160.112C160.688 44.3232 161.216 44.2092 161.696 43.9812C162.188 43.7532 162.572 43.4652 162.848 43.1172L164.09 44.4672C163.646 45.0072 163.052 45.4332 162.308 45.7452C161.576 46.0452 160.82 46.1952 160.04 46.1952H159.878ZM162.29 40.5432C162.242 39.8712 161.996 39.3252 161.552 38.9052C161.108 38.4732 160.544 38.2572 159.86 38.2572H159.842C159.194 38.2572 158.642 38.4672 158.186 38.8872C157.742 39.2952 157.454 39.8472 157.322 40.5432H162.29Z" fill="white"/>
</g>
<defs>
<filter id="filter0_b_145_1125" x="-23.6015" y="-23.6015" width="245.203" height="111.269" filterUnits="userSpaceOnUse" color-interpolation-filters="sRGB">
<feFlood flood-opacity="0" result="BackgroundImageFix"/>
<feGaussianBlur in="BackgroundImageFix" stdDeviation="12.0498"/>
<feComposite in2="SourceAlpha" operator="in" result="effect1_backgroundBlur_145_1125"/>
<feBlend mode="normal" in="SourceGraphic" in2="effect1_backgroundBlur_145_1125" result="shape"/>
</filter>
</defs>
</svg>
