<svg width="37" height="37" viewBox="0 0 37 37" fill="none" xmlns="http://www.w3.org/2000/svg">
<g id="google_play">
<mask id="mask0_147_1557" style="mask-type:alpha" maskUnits="userSpaceOnUse" x="8" y="3" width="28" height="31">
<path id="polygon" d="M34.3612 16.7259C35.7946 17.5146 35.7946 19.5511 34.3612 20.3399L11.4379 32.954C10.0419 33.7222 8.32422 32.7254 8.32422 31.147L8.32422 5.91868C8.32422 4.34035 10.0419 3.3435 11.4379 4.11168L34.3612 16.7259Z" fill="#C4C4C4"/>
</mask>
<g mask="url(#mask0_147_1557)">
<path id="blue" d="M9.04125 32.7062L23.3401 18.327L9.27674 4.18457C8.71569 4.54424 8.32422 5.1652 8.32422 5.91869V31.147C8.32422 31.7899 8.60916 32.3363 9.04125 32.7062Z" fill="url(#paint0_linear_147_1557)"/>
<path id="yellow" d="M34.3609 16.7258C35.7943 17.5145 35.7943 19.551 34.3609 20.3398L28.5778 23.5221L23.3398 18.3268L28.3107 13.3965L34.3609 16.7258Z" fill="url(#paint1_linear_147_1557)"/>
<path id="red" d="M28.5779 23.5224L23.3399 18.3271L9.04102 32.7064C9.66981 33.2448 10.6103 33.4096 11.4377 32.9543L28.5779 23.5224Z" fill="url(#paint2_linear_147_1557)"/>
<path id="green" d="M9.27734 4.18454L23.3407 18.3269L28.3116 13.3966L11.4385 4.11168C10.7089 3.71023 9.89153 3.79083 9.27734 4.18454Z" fill="url(#paint3_linear_147_1557)"/>
</g>
</g>
<defs>
<linearGradient id="paint0_linear_147_1557" x1="18.1263" y1="12.742" x2="8.40449" y2="22.5437" gradientUnits="userSpaceOnUse">
<stop stop-color="#00C3FF"/>
<stop offset="1" stop-color="#1BE2FA"/>
</linearGradient>
<linearGradient id="paint1_linear_147_1557" x1="23.3398" y1="18.3268" x2="36.2702" y2="18.3268" gradientUnits="userSpaceOnUse">
<stop stop-color="#FFCE00"/>
<stop offset="1" stop-color="#FFEA00"/>
</linearGradient>
<linearGradient id="paint2_linear_147_1557" x1="8.74115" y1="34.4617" x2="25.9411" y2="20.6721" gradientUnits="userSpaceOnUse">
<stop stop-color="#DE2453"/>
<stop offset="1" stop-color="#FE3944"/>
</linearGradient>
<linearGradient id="paint3_linear_147_1557" x1="9.57611" y1="2.60608" x2="25.9448" y2="15.9758" gradientUnits="userSpaceOnUse">
<stop stop-color="#11D574"/>
<stop offset="1" stop-color="#01F176"/>
</linearGradient>
</defs>
</svg>
