<svg width="33" height="32" viewBox="0 0 33 32" fill="none" xmlns="http://www.w3.org/2000/svg">
<path fill-rule="evenodd" clip-rule="evenodd" d="M10.5 3H22.5C24.3559 3.00199 26.1352 3.74012 27.4476 5.05245C28.7599 6.36477 29.498 8.14409 29.5 10V22C29.498 23.8559 28.7599 25.6352 27.4476 26.9476C26.1352 28.2599 24.3559 28.998 22.5 29H10.5C8.64409 28.998 6.86477 28.2599 5.55245 26.9476C4.24012 25.6352 3.50199 23.8559 3.5 22V10C3.50199 8.14409 4.24012 6.36477 5.55245 5.05245C6.86477 3.74012 8.64409 3.00199 10.5 3ZM26.0355 25.5355C26.9732 24.5979 27.5 23.3261 27.5 22V10C27.5 8.67392 26.9732 7.40215 26.0355 6.46447C25.0979 5.52678 23.8261 5 22.5 5H10.5C9.17392 5 7.90215 5.52678 6.96447 6.46447C6.02678 7.40215 5.5 8.67392 5.5 10V22C5.5 23.3261 6.02678 24.5979 6.96447 25.5355C7.90215 26.4732 9.17392 27 10.5 27H22.5C23.8261 27 25.0979 26.4732 26.0355 25.5355ZM18.7821 7.68415C18.6271 7.21876 18.1575 6.93448 17.6733 7.01298C17.1891 7.09148 16.8333 7.50958 16.8333 8.00009V20.0001C16.8333 20.5934 16.6574 21.1735 16.3277 21.6668C15.9981 22.1601 15.5296 22.5447 14.9814 22.7717C14.4332 22.9988 13.83 23.0582 13.2481 22.9424C12.6661 22.8267 12.1316 22.541 11.712 22.1214C11.2925 21.7019 11.0067 21.1673 10.891 20.5854C10.7752 20.0034 10.8346 19.4002 11.0617 18.852C11.2888 18.3039 11.6733 17.8353 12.1666 17.5057C12.66 17.176 13.24 17.0001 13.8333 17.0001C14.3856 17.0001 14.8333 16.5524 14.8333 16.0001C14.8333 15.4478 14.3856 15.0001 13.8333 15.0001C12.8444 15.0001 11.8777 15.2933 11.0555 15.8427C10.2332 16.3922 9.59238 17.173 9.21394 18.0867C8.8355 19.0003 8.73648 20.0056 8.92941 20.9755C9.12234 21.9454 9.59854 22.8364 10.2978 23.5356C10.9971 24.2349 11.888 24.7111 12.8579 24.904C13.8278 25.0969 14.8331 24.9979 15.7468 24.6195C16.6604 24.2411 17.4413 23.6002 17.9907 22.7779C18.5401 21.9557 18.8333 20.989 18.8333 20.0001V11.2773C19.8559 12.2274 21.2965 13.0001 23.1667 13.0001C23.719 13.0001 24.1667 12.5524 24.1667 12.0001C24.1667 11.4478 23.719 11.0001 23.1667 11.0001C21.8708 11.0001 20.885 10.4678 20.155 9.77484C19.408 9.06573 18.9577 8.21131 18.7821 7.68415Z" fill="#E5E7F8"/>
</svg>
