<svg width="33" height="32" viewBox="0 0 33 32" fill="none" xmlns="http://www.w3.org/2000/svg">
<path d="M16.5 10C15.3133 10 14.1533 10.3519 13.1666 11.0112C12.1799 11.6705 11.4108 12.6075 10.9567 13.7039C10.5026 14.8003 10.3838 16.0067 10.6153 17.1705C10.8468 18.3344 11.4182 19.4035 12.2574 20.2426C13.0965 21.0818 14.1656 21.6532 15.3295 21.8847C16.4933 22.1162 17.6997 21.9974 18.7961 21.5433C19.8925 21.0892 20.8295 20.3201 21.4888 19.3334C22.1481 18.3467 22.5 17.1867 22.5 16C22.4983 14.4092 21.8657 12.884 20.7408 11.7592C19.616 10.6343 18.0908 10.0017 16.5 10ZM16.5 20C15.7089 20 14.9355 19.7654 14.2777 19.3259C13.6199 18.8864 13.1072 18.2616 12.8045 17.5307C12.5017 16.7998 12.4225 15.9956 12.5769 15.2196C12.7312 14.4437 13.1122 13.731 13.6716 13.1716C14.231 12.6122 14.9437 12.2312 15.7196 12.0769C16.4956 11.9225 17.2998 12.0017 18.0307 12.3045C18.7616 12.6072 19.3864 13.1199 19.8259 13.7777C20.2654 14.4355 20.5 15.2089 20.5 16C20.5 17.0609 20.0786 18.0783 19.3284 18.8284C18.5783 19.5786 17.5609 20 16.5 20ZM22.5 3H10.5C8.64409 3.00199 6.86477 3.74012 5.55245 5.05245C4.24012 6.36477 3.50199 8.14409 3.5 10V22C3.50199 23.8559 4.24012 25.6352 5.55245 26.9476C6.86477 28.2599 8.64409 28.998 10.5 29H22.5C24.3559 28.998 26.1352 28.2599 27.4476 26.9476C28.7599 25.6352 29.498 23.8559 29.5 22V10C29.498 8.14409 28.7599 6.36477 27.4476 5.05245C26.1352 3.74012 24.3559 3.00199 22.5 3ZM27.5 22C27.5 23.3261 26.9732 24.5979 26.0355 25.5355C25.0979 26.4732 23.8261 27 22.5 27H10.5C9.17392 27 7.90215 26.4732 6.96447 25.5355C6.02678 24.5979 5.5 23.3261 5.5 22V10C5.5 8.67392 6.02678 7.40215 6.96447 6.46447C7.90215 5.52678 9.17392 5 10.5 5H22.5C23.8261 5 25.0979 5.52678 26.0355 6.46447C26.9732 7.40215 27.5 8.67392 27.5 10V22ZM24.5 9.5C24.5 9.79667 24.412 10.0867 24.2472 10.3334C24.0824 10.58 23.8481 10.7723 23.574 10.8858C23.2999 10.9994 22.9983 11.0291 22.7074 10.9712C22.4164 10.9133 22.1491 10.7704 21.9393 10.5607C21.7296 10.3509 21.5867 10.0836 21.5288 9.79264C21.4709 9.50166 21.5007 9.20006 21.6142 8.92597C21.7277 8.65189 21.92 8.41762 22.1666 8.2528C22.4133 8.08797 22.7033 8 23 8C23.3978 8 23.7794 8.15804 24.0607 8.43934C24.342 8.72064 24.5 9.10218 24.5 9.5Z" fill="#E5E7F8"/>
</svg>
