<svg width="33" height="32" viewBox="0 0 33 32" fill="none" xmlns="http://www.w3.org/2000/svg">
<g clip-path="url(#clip0_588_173)">
<path d="M13.5 10L24.5 16.5L13.5 23V10Z" fill="#E5E7F8"/>
<path fill-rule="evenodd" clip-rule="evenodd" d="M3.71767 9.19557C3.50215 10.8008 3.5 12.9706 3.5 16C3.5 19.0294 3.50215 21.1992 3.71767 22.8044C3.93129 24.3956 4.33052 25.2169 4.95007 25.7296C5.6098 26.2756 6.70544 26.6325 8.70876 26.8167C10.691 26.999 13.3547 27 17 27C20.6453 27 23.309 26.999 25.2912 26.8167C27.2946 26.6325 28.3902 26.2756 29.0499 25.7296C29.6695 25.2169 30.0687 24.3956 30.2823 22.8044C30.4978 21.1992 30.5 19.0294 30.5 16C30.5 12.9706 30.4978 10.8008 30.2823 9.19557C30.0687 7.60444 29.6695 6.78313 29.0499 6.27039C28.3902 5.72441 27.2946 5.36751 25.2912 5.1833C23.309 5.00102 20.6453 5 17 5C13.3547 5 10.691 5.00102 8.70876 5.1833C6.70544 5.36751 5.6098 5.72441 4.95007 6.27039C4.33052 6.78313 3.93129 7.60444 3.71767 9.19557ZM16.9434 3H17.0566C20.6338 2.99999 23.3895 2.99999 25.4744 3.1917C27.5492 3.38249 29.1723 3.77559 30.3251 4.72961C31.518 5.71687 32.025 7.14556 32.2645 8.92943C32.5 10.6834 32.5 12.9878 32.5 15.9206V16.0794C32.5 19.0122 32.5 21.3166 32.2645 23.0706C32.025 24.8544 31.518 26.2831 30.3251 27.2704C29.1723 28.2244 27.5492 28.6175 25.4744 28.8083C23.3895 29 20.6338 29 17.0567 29H16.9433C13.3662 29 10.6105 29 8.52562 28.8083C6.45081 28.6175 4.8277 28.2244 3.67493 27.2704C2.48199 26.2831 1.97496 24.8544 1.73546 23.0706C1.49997 21.3166 1.49998 19.0121 1.5 16.0793V15.9207C1.49998 12.9879 1.49997 10.6834 1.73546 8.92943C1.97496 7.14556 2.48199 5.71687 3.67493 4.72961C4.8277 3.77559 6.45081 3.38249 8.52562 3.1917C10.6105 2.99999 13.3662 2.99999 16.9434 3Z" fill="#E5E7F8"/>
</g>
<defs>
<clipPath id="clip0_588_173">
<rect width="32" height="32" fill="white" transform="translate(0.5)"/>
</clipPath>
</defs>
</svg>
