<svg width="26" height="26" viewBox="0 0 26 26" fill="none" xmlns="http://www.w3.org/2000/svg">
<path fill-rule="evenodd" clip-rule="evenodd" d="M16.2665 3.89097C15.7472 4.17665 15.221 4.52443 14.7303 4.91883C14.5458 4.63691 14.3429 4.36459 14.1271 4.10337C14.6635 3.6755 15.2295 3.30459 15.778 3.00289C16.4676 2.62345 17.1516 2.3411 17.7423 2.19211C18.0372 2.11772 18.323 2.07298 18.5826 2.07183C18.8349 2.07071 19.109 2.11041 19.342 2.2494C19.5749 2.38839 19.7401 2.61076 19.8589 2.83331C19.9812 3.06236 20.0776 3.33505 20.1523 3.62998C20.3018 4.22062 20.3783 4.95666 20.3721 5.74388C20.3597 7.30996 20.0186 9.17878 19.1657 10.6083C18.7014 11.3864 18.1443 12.0621 17.5377 12.6087C17.5912 12.8923 17.6182 13.1811 17.6177 13.4713C18.2085 14.0352 18.7461 14.7267 19.188 15.5181C19.2968 15.713 19.3962 15.9155 19.4866 16.1238C20.5309 15.9223 21.5891 15.4974 22.479 14.9929C23.1093 14.6356 23.6333 14.2506 23.9929 13.9008C24.173 13.7256 24.3016 13.5692 24.3823 13.4394C24.467 13.3033 24.4764 13.2332 24.4766 13.2208C24.4768 13.2083 24.4694 13.138 24.3887 12.9996C24.3117 12.8676 24.1877 12.7076 24.0127 12.5274C23.6632 12.1675 23.1505 11.7678 22.5308 11.3927C21.9901 11.0655 21.3844 10.7668 20.7556 10.5317C20.8981 10.2272 21.0218 9.91115 21.1286 9.58906C21.8222 9.84978 22.4787 10.1764 23.0556 10.5255C23.729 10.9331 24.3155 11.3842 24.7399 11.8213C24.9518 12.0395 25.1334 12.2646 25.2642 12.4889C25.3913 12.7068 25.494 12.9641 25.4901 13.2353C25.4862 13.5065 25.3762 13.7607 25.2429 13.9749C25.1057 14.1954 24.9177 14.4152 24.6997 14.6274C24.2629 15.0522 23.6637 15.4864 22.9789 15.8747C21.6164 16.647 19.8274 17.2859 18.1629 17.262C17.4018 17.2511 16.6706 17.1473 15.9958 16.965C15.6273 17.2779 15.2153 17.5271 14.7773 17.7079C14.579 18.3513 14.292 18.9999 13.9179 19.627C13.8212 19.7889 13.7165 19.9478 13.6048 20.1032C14.3038 20.9152 15.2083 21.6266 16.0973 22.1494C16.7217 22.5167 17.317 22.778 17.7996 22.9146C18.0414 22.983 18.241 23.0162 18.3938 23.0212C18.5539 23.0265 18.6193 22.9996 18.6302 22.9936C18.641 22.9875 18.6983 22.9459 18.7778 22.8068C18.8537 22.674 18.9302 22.4867 18.9989 22.245C19.1359 21.7623 19.2259 21.1184 19.2409 20.394C19.2527 19.8298 19.2188 19.232 19.1326 18.639C19.341 18.6244 19.5507 18.603 19.7611 18.5746C19.8873 18.5576 20.0131 18.5367 20.1383 18.5121C20.2321 19.1646 20.2668 19.8129 20.2543 20.4151C20.2379 21.2022 20.1404 21.9357 19.9739 22.5218C19.8908 22.8145 19.7867 23.0843 19.6578 23.3097C19.5326 23.5288 19.3612 23.7463 19.1243 23.8786C18.8875 24.0108 18.6123 24.0426 18.3602 24.0343C18.1007 24.0257 17.8164 23.9728 17.5237 23.8899C16.9375 23.7241 16.2619 23.4222 15.5834 23.0231C14.2336 22.2292 12.786 20.9992 11.9745 19.5459C11.6325 18.9333 11.3714 18.3033 11.1921 17.6794C11.0123 17.6013 10.8355 17.5108 10.6627 17.4078C10.3584 17.2262 10.0827 17.015 9.837 16.7801C9.17163 16.9349 8.45548 17.0133 7.71347 17.0027C7.54152 17.0002 7.36843 16.9906 7.19481 16.9745C6.81383 18.0127 6.6382 19.1972 6.62959 20.266C6.62375 20.9905 6.69504 21.6366 6.81809 22.1229C6.87972 22.3665 6.95085 22.5559 7.02284 22.6908C7.0983 22.8321 7.15432 22.8753 7.16499 22.8817C7.17566 22.888 7.24033 22.9168 7.40059 22.9161C7.55347 22.9155 7.75403 22.8881 7.99767 22.8267C8.48418 22.704 9.0868 22.4599 9.72166 22.1108C10.2118 21.8413 10.708 21.5165 11.1748 21.1494C11.2016 21.1937 11.2289 21.238 11.2565 21.2821C11.4084 21.5243 11.5775 21.7564 11.7602 21.9783C11.254 22.3726 10.7243 22.7162 10.2101 22.999C9.52027 23.3783 8.83622 23.6606 8.24542 23.8095C7.95042 23.8839 7.66467 23.9286 7.405 23.9297C7.15271 23.9308 6.87858 23.8911 6.64564 23.7521C6.41269 23.6131 6.24756 23.3908 6.12872 23.1682C6.00641 22.9392 5.91008 22.6665 5.83546 22.3716C5.68602 21.781 5.60967 21.045 5.61601 20.2579C5.62864 18.6919 5.97009 16.8233 6.82296 15.3938C7.27934 14.6289 7.82535 13.9631 8.41988 13.4214C8.42171 13.1668 8.44474 12.9111 8.48962 12.6573C7.84668 12.072 7.26144 11.3371 6.7867 10.4868C6.67833 10.2927 6.5793 10.0911 6.48913 9.88364C5.45104 10.0865 4.40037 10.5092 3.51591 11.0104C2.88561 11.3675 2.36167 11.7523 2.00204 12.1021C1.82193 12.2772 1.69341 12.4335 1.61265 12.5633C1.52799 12.6993 1.51857 12.7694 1.51839 12.7819C1.51821 12.7943 1.52562 12.8647 1.60636 13.0031C1.68337 13.1352 1.80736 13.2952 1.98237 13.4755C2.33183 13.8355 2.84452 14.2353 3.46431 14.6106C3.93594 14.8961 4.45709 15.16 4.99991 15.3788C4.87181 15.693 4.76191 16.0144 4.66814 16.3378C4.04774 16.0909 3.46094 15.7934 2.93935 15.4776C2.26591 15.0699 1.67944 14.6187 1.25507 14.1815C1.04317 13.9632 0.861578 13.7381 0.730765 13.5137C0.603668 13.2958 0.500996 13.0385 0.504888 12.7673C0.508781 12.4961 0.6188 12.2419 0.752113 12.0277C0.889321 11.8073 1.07731 11.5875 1.29539 11.3754C1.73214 10.9507 2.33134 10.5166 3.0162 10.1285C4.37865 9.35647 6.16766 8.71785 7.83203 8.74174C8.96225 8.75796 10.0265 8.97894 10.9382 9.35766C10.9472 9.35309 10.9562 9.34856 10.9652 9.34406C11.121 8.36882 11.4913 7.34631 12.0708 6.37514C12.1652 6.21682 12.2674 6.06146 12.3763 5.90932C11.6764 5.09423 10.7689 4.38017 9.87697 3.8558C9.25239 3.4886 8.65703 3.22732 8.17424 3.09078C7.93245 3.02239 7.73276 2.98927 7.57996 2.98422C7.41979 2.97892 7.35432 3.00583 7.34347 3.01189C7.33263 3.01794 7.27539 3.05954 7.1959 3.19864C7.12007 3.33135 7.04354 3.51869 6.97495 3.76037C6.83799 4.24295 6.74818 4.88679 6.73323 5.6111C6.72189 6.16053 6.7538 6.7418 6.8352 7.31947C6.50101 7.34872 6.16598 7.40252 5.83371 7.47615C5.74171 6.82934 5.70752 6.18708 5.71984 5.59018C5.73609 4.80317 5.83352 4.0697 5.99985 3.48363C6.08291 3.19099 6.18703 2.92118 6.31586 2.69574C6.44103 2.47669 6.61247 2.25915 6.84932 2.1269C7.08615 1.99466 7.3613 1.96283 7.61346 1.97117C7.87299 1.97975 8.15734 2.03263 8.45009 2.11543C9.03637 2.28125 9.71204 2.58303 10.3907 2.98202C11.7408 3.77577 13.1886 5.00566 14.0002 6.45904C14.5234 7.39617 14.8571 8.37415 14.9988 9.30856C15.1036 9.3587 15.2073 9.41316 15.3096 9.472C16.1968 9.15529 17.2123 8.98577 18.2815 9.00112C18.4512 9.00355 18.622 9.01291 18.7934 9.02862C19.1745 7.99017 19.3501 6.80514 19.3585 5.73588C19.3642 5.01137 19.2928 4.36513 19.1697 3.87875C19.108 3.63517 19.0369 3.44567 18.9648 3.31082C18.8893 3.16946 18.8333 3.12621 18.8226 3.11985C18.812 3.11349 18.7473 3.08472 18.5871 3.08543C18.4343 3.0861 18.2338 3.1135 17.9902 3.17494C17.5038 3.29762 16.9013 3.54176 16.2665 3.89097ZM13.8968 8.94405C13.7444 8.29384 13.486 7.61724 13.1152 6.95319C13.0824 6.89444 13.0482 6.83598 13.0129 6.77783C12.9884 6.81657 12.9645 6.85545 12.9412 6.89449C12.5322 7.58001 12.2465 8.28289 12.0781 8.95791C12.6714 8.83378 13.2899 8.82605 13.8968 8.94405ZM9.91174 10.0675C9.27772 9.8782 8.56979 9.76604 7.81749 9.75524C7.72839 9.75396 7.63857 9.75494 7.54815 9.75808C7.58775 9.83784 7.62892 9.91608 7.67169 9.99267C8.00824 10.5954 8.40215 11.1247 8.82614 11.5695C8.89766 11.4113 8.97885 11.2555 9.06991 11.1029C9.30508 10.7088 9.58995 10.3626 9.91174 10.0675ZM8.58844 14.6905C8.26607 15.0512 7.96362 15.4603 7.6934 15.9132C7.67874 15.9378 7.66423 15.9625 7.6499 15.9875C7.67599 15.9882 7.70203 15.9888 7.72802 15.9892C8.20978 15.9961 8.67455 15.9609 9.11439 15.8898C8.88179 15.5155 8.70531 15.1112 8.58844 14.6905ZM16.2968 10.2327C16.9012 10.0835 17.5661 10.0046 18.267 10.0146C18.2906 10.015 18.3142 10.0155 18.3379 10.0161C18.3238 10.0406 18.3096 10.0648 18.2952 10.0889C17.9682 10.637 17.594 11.1209 17.1944 11.5325C16.9756 11.057 16.6744 10.6158 16.2968 10.2327ZM17.4327 14.7517C17.3256 15.1163 17.1712 15.4735 16.9675 15.815C16.9077 15.9152 16.8447 16.0124 16.7786 16.1064C17.2209 16.192 17.6899 16.2415 18.1775 16.2485C18.2598 16.2497 18.3428 16.249 18.4263 16.2464C18.3868 16.1668 18.3457 16.0887 18.303 16.0122C18.0429 15.5465 17.7486 15.1246 17.4327 14.7517ZM12.3719 18.0127C12.5048 18.3588 12.667 18.7069 12.8595 19.0517C12.8941 19.1138 12.9303 19.1755 12.9678 19.2369C12.995 19.194 13.0216 19.1509 13.0474 19.1076C13.2618 18.7483 13.4423 18.3842 13.5898 18.0218C13.1881 18.0724 12.7785 18.0703 12.3719 18.0127ZM9.94036 11.6223C10.9547 9.92214 13.1553 9.36623 14.8554 10.3806C16.5555 11.395 17.1114 13.5955 16.0971 15.2956C15.0827 16.9958 12.8822 17.5517 11.182 16.5373C9.4819 15.5229 8.92598 13.3224 9.94036 11.6223Z" fill="white"/>
</svg>
