<svg width="360" height="360" viewBox="0 0 360 360" fill="none" xmlns="http://www.w3.org/2000/svg">
<mask id="mask0_313_224" style="mask-type:alpha" maskUnits="userSpaceOnUse" x="5" y="14" width="350" height="330">
<path d="M179.859 14.4619C181.253 16.1878 183.731 21.8913 185.046 24.3096C192.481 37.9901 200.136 50.9434 205.644 65.599C206.912 68.9705 208.21 72.3873 209.287 75.8221C210.084 78.3678 210.831 82.5805 212.058 84.8017C212.534 84.7212 212.916 84.0796 213.234 83.7059C227.723 66.6853 246.071 52.5634 265.253 41.1963C265.611 43.2843 265.828 45.3972 266.188 47.4869C267.693 56.2084 269.302 64.853 270.344 73.6498C271.046 79.5845 271.404 85.5308 271.837 91.4877L275.64 89.7682C275.675 99.073 275.028 108.523 274.137 117.787C273.749 121.813 272.976 125.853 272.785 129.887C279.831 127.688 286.758 125.257 293.908 123.383C304.974 120.483 316.551 118.893 327.932 117.913C331.542 117.602 335.208 117.21 338.83 117.211C337.833 121.799 336.31 126.297 334.875 130.762C333.805 134.157 332.643 137.52 331.388 140.85C330.132 144.181 328.786 147.474 327.349 150.731C325.911 153.987 324.385 157.201 322.77 160.373C321.155 163.545 319.454 166.669 317.667 169.747C314.304 175.467 310.607 180.903 306.834 186.353C310.412 187.367 314.102 187.943 317.67 189.04C327.03 191.916 335.93 196.201 344.481 200.93C347.913 202.828 351.428 204.757 354.502 207.207C351.943 210.853 348.94 214.293 345.965 217.604C334.657 230.191 321.615 241.109 306.643 249.085C303.095 250.958 299.49 252.713 295.828 254.351C292.96 255.606 290.022 256.709 287.204 258.078C288.09 259.535 289.229 260.904 290.229 262.29C291.864 264.557 293.427 266.873 294.919 269.236C300.726 278.518 305.518 288.507 309.804 298.566C283.029 306.171 256.624 306.395 230.653 295.639C226.009 293.715 221.545 291.386 217.116 289.018C215.091 293.257 213.706 297.812 211.666 302.073C203.636 318.848 193.615 331.232 180.116 343.859C179.867 343.786 179.928 343.814 179.645 343.672C177.512 342.6 174.384 338.883 172.662 337.09C158.927 322.779 149.465 307.325 143.149 288.552C140.645 290.38 137.454 291.871 134.679 293.264C113.797 303.742 90.1217 306.103 67.2497 302.161C61.8462 301.23 56.4103 300.04 51.2016 298.31C55.0972 284.65 62.9571 269.107 72.2897 258.357C70.2218 257.185 67.7841 256.355 65.603 255.396C61.7142 253.727 57.9131 251.877 54.1997 249.846C38.1372 241.041 15.5527 222.369 5.43359 206.966C8.46733 204.817 11.8544 202.967 15.0979 201.157C27.414 194.283 39.6208 189.408 53.3616 186.198C41.9692 170.709 33.6976 153.991 27.1328 135.957C24.8711 129.744 22.7485 123.57 21.0852 117.163C28.8084 117.695 36.5615 118.049 44.2392 119.075C58.7415 121.014 73.3563 125.089 87.0852 130.076C85.4677 119.582 84.2347 109.188 84.1964 98.5503C84.1845 95.2241 84.1848 91.8266 84.5737 88.5198C85.6456 89.1245 86.6595 89.7661 87.6695 90.4696C88.3631 85.2067 88.5906 79.8809 89.2537 74.6103C90.7462 63.3896 92.7838 52.2687 95.3666 41.2477C99.6286 43.4442 103.669 46.3668 107.616 49.0921C122.469 59.3475 136.252 70.8851 147.911 84.7159C150.065 77.3693 152.31 70.0923 155.206 62.9974C157.597 57.1894 160.196 51.4759 163.003 45.857C166.623 38.7843 170.639 31.9461 174.444 24.9765C176.333 21.5158 177.998 17.9374 179.859 14.4619ZM334.464 120.633C320.087 121.367 305.697 123.245 291.8 127.069C285.033 128.931 278.434 131.293 271.845 133.698C271.34 138.147 269.999 142.78 268.82 147.104C261.394 174.33 244.534 197.128 222.604 214.603C217.184 218.923 211.382 223.229 205.194 226.39C208.204 225.796 211.258 223.877 213.951 222.444C227.987 214.98 239.985 206.63 252.805 197.346C258.037 193.558 263.372 189.958 268.336 185.817C267.507 184.143 267.125 182.463 267.785 180.644C267.849 180.468 267.921 180.296 268.003 180.127C268.084 179.959 268.174 179.795 268.272 179.636C268.37 179.477 268.476 179.323 268.59 179.174C268.704 179.026 268.826 178.884 268.954 178.748C269.083 178.612 269.218 178.483 269.359 178.361C269.501 178.238 269.649 178.124 269.802 178.017C269.956 177.91 270.114 177.811 270.278 177.72C270.441 177.63 270.609 177.548 270.781 177.474C270.939 177.406 271.1 177.346 271.264 177.294C271.428 177.242 271.594 177.199 271.762 177.165C271.931 177.13 272.1 177.104 272.271 177.088C272.443 177.07 272.614 177.062 272.786 177.063C272.958 177.064 273.129 177.073 273.3 177.091C273.471 177.11 273.64 177.137 273.808 177.173C273.977 177.208 274.142 177.253 274.306 177.306C274.47 177.359 274.63 177.42 274.787 177.489C275.555 177.821 276.177 178.372 276.786 178.932C280.216 174.42 284.895 170.943 288.302 166.383C287.401 165.066 286.767 163.547 287.049 161.923C287.286 160.556 288.174 159.349 289.333 158.609C290.531 157.845 291.956 157.639 293.334 157.961C294.491 158.232 295.515 158.88 296.121 159.918C296.867 161.194 296.97 162.99 296.572 164.395C296.21 165.671 295.257 166.748 294.08 167.345C292.875 167.956 291.511 167.843 290.204 167.804C288.915 169.515 287.481 171.146 286.053 172.742C283.414 175.658 280.799 178.412 277.74 180.903C278.095 182.566 277.99 184.256 277.011 185.704C276.231 186.856 274.979 187.519 273.625 187.731C272.305 187.938 271.068 187.702 269.801 187.348C251.818 203.358 228.121 219.764 206.062 229.105C199.68 231.808 192.969 233.749 186.424 236.013C195.989 236.156 204.51 236.68 214.152 235.754C242.792 233.005 270.456 219.158 291.021 199.196C310.127 180.65 321.587 159.024 330.488 134.184C331.43 131.554 334.627 123.291 334.601 120.961C334.601 120.887 334.596 120.812 334.594 120.737L334.464 120.633ZM25.4231 120.775C27.2994 128.139 29.962 135.293 32.764 142.347C45.0274 173.221 64.4456 200.891 93.4306 218.071C113.15 229.76 134.447 235.653 157.338 236.343C160.951 236.452 164.619 236.446 168.231 236.331C170.292 236.266 172.366 236.073 174.426 236.075C168.738 234.508 163.349 232.396 157.867 230.239C153.145 228.38 148.45 226.57 143.939 224.226C136.861 220.55 130.201 216.066 123.599 211.611C115.327 206.087 107.235 200.31 99.3231 194.281C95.8859 191.642 92.6652 188.72 89.2301 186.082C87.6664 186.403 86.1441 186.567 84.7203 185.684C83.5162 184.937 82.8035 183.583 82.5458 182.218C82.4168 181.534 82.4003 180.814 82.3961 180.119C79.6841 177.609 77.1729 174.918 74.649 172.221C73.1377 170.539 71.5592 168.885 70.1142 167.147C68.4137 167.034 66.811 166.621 65.6462 165.29C65.5365 165.163 65.4334 165.031 65.3369 164.894C65.2405 164.757 65.1512 164.615 65.069 164.469C64.9869 164.322 64.9125 164.172 64.8457 164.019C64.7787 163.865 64.7196 163.708 64.6685 163.548C64.6174 163.389 64.5746 163.227 64.5399 163.063C64.5052 162.898 64.4788 162.733 64.4608 162.566C64.443 162.399 64.4335 162.232 64.4323 162.065C64.4311 161.897 64.4385 161.729 64.4544 161.563C64.4692 161.393 64.4925 161.224 64.5244 161.057C64.5563 160.889 64.5966 160.724 64.6453 160.56C64.6941 160.397 64.7509 160.236 64.8158 160.079C64.8808 159.921 64.9535 159.767 65.0342 159.617C65.1146 159.466 65.2024 159.321 65.2978 159.179C65.3932 159.038 65.4955 158.902 65.6047 158.771C65.714 158.64 65.8294 158.515 65.951 158.395C66.0729 158.276 66.2005 158.164 66.3339 158.057C67.294 157.306 68.489 157.025 69.6889 157.215C71.1236 157.442 72.5196 158.186 73.3198 159.421C74.018 160.498 74.2883 161.805 74.0103 163.064C73.742 164.28 72.9869 165.385 72.2482 166.368C73.8366 168.217 75.4242 170.046 77.1472 171.773C79.2717 173.902 81.624 175.976 83.514 178.31C84.5237 177.227 85.8713 176.395 87.3907 176.352C88.6008 176.317 89.7258 176.789 90.5773 177.645C91.6453 178.721 92.1474 180.234 92.1094 181.733C92.0816 182.816 91.7251 183.664 91.2653 184.619C95.7786 188.202 100.267 191.845 104.894 195.284C113.411 201.642 122.17 207.646 131.173 213.295C138.764 218.14 146.268 222.912 154.645 226.302C154.567 226.229 154.491 226.154 154.412 226.082C153.081 224.865 147.952 222.205 146.095 221.016C141.653 218.172 137.481 214.974 133.345 211.709C127.339 206.967 121.573 201.851 116.588 196.028C102.446 179.508 91.6713 155.292 87.9813 133.933C72.4746 127.948 56.9633 123.654 40.4276 121.763C37.2778 121.408 34.1197 121.158 30.9531 121.015C29.1488 120.934 27.2072 121.012 25.4231 120.775ZM112.181 230.938C89.8394 239.129 69.9666 262.288 60.1833 283.445C58.2494 287.628 56.4138 291.925 55.233 296.389C62.3915 298.439 69.9733 299.682 77.3853 300.33C97.9228 302.125 118.266 299.056 136.446 288.969C150.374 281.242 163.108 269.586 170.797 255.512C172.673 252.077 174.112 248.502 175.474 244.84C176.167 242.723 176.836 240.61 177.421 238.461C173.492 240.27 169.878 242.508 166.167 244.717C162.642 246.801 159.086 248.832 155.499 250.808C145.438 256.309 135.188 261.134 124.04 263.968C119.661 265.082 115.181 265.698 110.795 266.744C110.691 268.667 110.243 270.465 108.784 271.835C107.65 272.901 106.16 273.371 104.619 273.276C103.099 273.182 101.498 272.641 100.467 271.472C99.424 270.29 98.9891 268.506 99.1709 266.959C99.184 266.855 99.1998 266.751 99.2183 266.648C99.2366 266.545 99.2576 266.442 99.2813 266.34C99.3049 266.238 99.3312 266.137 99.36 266.036C99.3888 265.935 99.4202 265.835 99.4542 265.736C99.4882 265.637 99.5247 265.538 99.5636 265.441C99.6025 265.344 99.6438 265.247 99.6877 265.152C99.7315 265.057 99.7778 264.963 99.8265 264.87C99.8751 264.777 99.926 264.686 99.9795 264.596C100.033 264.505 100.089 264.417 100.146 264.329C100.204 264.242 100.264 264.156 100.326 264.072C100.389 263.987 100.453 263.904 100.519 263.823C100.586 263.742 100.655 263.663 100.725 263.586C100.796 263.508 100.868 263.432 100.942 263.359C101.017 263.284 101.093 263.213 101.171 263.143C101.249 263.073 101.329 263.005 101.41 262.939C101.492 262.873 101.575 262.809 101.66 262.748C102.857 261.859 104.466 261.351 105.956 261.612C107.483 261.878 108.91 263.016 109.792 264.256C110.126 264.726 110.406 265.253 110.691 265.754C113.704 265.098 116.751 264.494 119.728 263.686C133.922 259.83 146.726 253.674 159.48 246.472C163.553 244.172 167.788 241.992 171.651 239.354C159.212 239.569 147.066 239.061 134.787 236.934C130.869 236.227 126.994 235.337 123.16 234.264C121.232 233.728 113.189 230.762 112.181 230.938ZM246.696 231.085C232.177 236.777 216.682 239.06 201.163 239.606C196.793 239.76 192.24 239.988 187.924 239.179C190.593 240.548 193.145 242.154 195.752 243.639C199.768 245.895 203.817 248.091 207.899 250.225C221.422 257.229 234.399 261.722 249.098 265.468C250.186 263.759 251.634 262.086 253.716 261.639C255.161 261.33 256.721 261.735 257.925 262.563C259.183 263.426 260.132 264.788 260.406 266.298C260.684 267.829 260.361 269.73 259.418 270.992C258.521 272.194 257.171 272.69 255.728 272.869C253.974 273.086 252.368 272.685 250.983 271.573C249.569 270.437 249.21 268.737 248.875 267.054C232.305 263.637 216.213 256.984 201.437 248.828C198.287 247.114 195.17 245.344 192.083 243.519C189.072 241.726 186.017 239.709 182.773 238.363C183.538 241.087 184.254 244.201 185.386 246.783C194.012 268.342 209.925 283.613 231.124 292.694C254.819 302.843 280.814 303.686 305.401 296.356C303.256 290.643 300.4 285.176 297.505 279.814C286.202 258.88 271.718 242.253 249.765 232.242C248.909 231.852 247.632 231.173 246.696 231.085ZM87.0311 93.7019C86.6335 131.176 96.8597 171.74 123.702 199.147C136.073 211.779 153.23 222.571 169.003 230.518C165.015 226.502 161.331 222.286 157.521 218.112C152.029 212.094 146.532 206.143 141.633 199.619C138.471 195.409 135.763 191.023 132.826 186.676L132.825 186.523C133.206 186.225 133.209 186.257 133.698 186.285C137.186 190.523 140.156 195.181 143.634 199.448C146.419 202.864 149.209 206.314 152.134 209.611C154.811 212.629 157.634 215.501 160.229 218.594C158.631 214.961 156.614 211.567 155.194 207.843C148.855 191.219 146.79 172.182 147.842 154.506L147.716 154.326C146.321 152.301 145.164 150.097 143.893 147.992C142.714 146.036 141.407 144.149 140.112 142.269C138.962 140.585 137.779 138.926 136.561 137.291C135.344 135.657 134.093 134.048 132.81 132.464C131.526 130.881 130.211 129.324 128.863 127.795C127.516 126.265 126.137 124.764 124.728 123.291C123.319 121.819 121.88 120.375 120.412 118.962C118.943 117.548 117.446 116.165 115.921 114.813C114.396 113.461 112.843 112.14 111.264 110.852C109.684 109.564 108.079 108.308 106.448 107.086C103.095 104.545 99.7116 101.955 96.1889 99.6552C93.2284 97.7227 89.7494 95.8914 87.0311 93.7019ZM272.474 94.5474C267.458 97.7294 262.389 100.753 257.506 104.152C255.82 105.325 254.157 106.531 252.52 107.771C250.882 109.011 249.27 110.284 247.684 111.59C246.098 112.895 244.54 114.233 243.008 115.602C241.477 116.971 239.974 118.37 238.499 119.8C237.024 121.23 235.579 122.69 234.164 124.178C232.748 125.667 231.364 127.184 230.01 128.729C228.657 130.274 227.335 131.846 226.045 133.445C224.755 135.044 223.498 136.668 222.275 138.318C218.477 143.374 214.662 148.685 211.641 154.252C211.774 159.163 212.082 164.049 211.98 168.968C211.674 183.728 208.614 198.835 202.724 212.389C201.7 214.744 200.28 216.842 199.173 219.139C203.669 214.022 208.337 209.047 212.686 203.802C217.244 198.197 221.573 192.421 225.673 186.473C224.598 185.393 223.9 183.934 223.937 182.39C223.966 181.173 224.427 179.889 225.335 179.052C226.279 178.183 227.892 177.758 229.15 177.838C229.299 177.846 229.447 177.862 229.595 177.886C229.742 177.909 229.888 177.94 230.033 177.979C230.177 178.018 230.319 178.063 230.459 178.116C230.598 178.169 230.735 178.229 230.869 178.296C231.003 178.362 231.132 178.436 231.259 178.516C231.385 178.596 231.506 178.682 231.624 178.775C231.741 178.867 231.853 178.965 231.961 179.069C232.068 179.173 232.17 179.282 232.266 179.397C233.12 180.402 233.59 181.836 233.434 183.153C233.288 184.388 232.625 185.445 231.615 186.161C229.993 187.31 228.229 187.103 226.368 186.986L225.21 188.898C218.481 201.097 207.739 212.919 198.026 222.862C195.339 225.613 192.732 228.453 189.929 231.087C193.285 229.307 196.749 227.738 200.1 225.955C203.61 224.088 207.074 221.946 210.404 219.777C235.699 203.3 256.192 178.569 265.078 149.515C269.708 134.378 271.29 118.86 272.391 103.139C272.505 101.517 273.061 95.9536 272.565 94.6982C272.543 94.6437 272.515 94.5889 272.474 94.5474ZM179.898 75.5602C169.436 93.4888 160.77 112.351 155.098 132.348C154.231 135.304 153.475 138.288 152.831 141.301C152.187 144.313 151.656 147.346 151.238 150.398C149.227 166.185 151.131 182.757 155.382 198.028C156.965 203.716 158.886 210.051 161.773 215.227L162.043 215.248L162.031 215.273C157.427 201.782 155.915 187.138 160.134 173.317C162.983 163.982 168.426 156.503 174.049 148.678C175.398 146.801 177.178 143.558 179.228 142.463C179.782 142.523 179.991 142.715 180.405 143.101C182.799 145.334 184.759 148.563 186.672 151.217C192.949 159.927 198.297 168.181 200.582 178.858C201.158 181.552 201.631 184.309 201.666 187.067C202 189.411 202.014 194.086 201.455 196.328C201.603 200.241 199.636 207.935 198.495 211.75C198.023 213.328 197.383 214.862 196.991 216.463L197.172 216.504L197.021 216.628L197.011 216.279L197.288 216.318L197.022 216.204L197.37 216.171C199.219 212.565 201.027 208.861 202.437 205.059C203.739 201.546 204.629 197.618 205.492 193.972C213.356 160.732 207.163 130.079 192.757 99.5631C188.909 91.4107 184.633 83.2394 179.898 75.5602ZM180.94 243.712L180.917 243.978C180.707 246.468 181.496 252.845 180.057 254.569L179.766 254.579C178.631 252.993 179.101 246.537 178.952 244.388C177.93 246.981 176.977 249.636 175.807 252.166C172.471 259.383 167.813 266.055 162.544 271.987C159.072 275.896 154.973 279.818 150.796 282.97C149.78 283.736 146.16 285.951 145.726 286.972C145.371 287.807 147.911 293.86 148.39 294.966C154.56 309.205 163.487 323.094 174.463 334.116C176.219 335.913 178.245 337.669 179.811 339.62C183.683 336.773 187.013 332.924 190.138 329.306C197.677 320.581 204.091 311.076 208.925 300.586C210.915 296.27 212.509 291.799 214.425 287.459C202.395 277.999 195.402 271.728 187.7 258.084C186.097 255.178 184.658 252.194 183.383 249.13C182.749 247.607 182.226 245.988 181.514 244.506C181.343 244.15 181.237 243.981 180.94 243.712ZM304.66 188.91C288.68 207.664 273.129 218.65 251.153 229.63C253.455 230.787 255.832 231.795 258.094 233.03C266.058 237.378 272.818 243.06 279.255 249.403C281.227 251.347 283.431 253.267 285.231 255.36L293.372 252.06C299.017 249.392 304.659 246.785 310.029 243.578C321.957 236.455 332.717 227.281 342.201 217.167C344.908 214.28 347.713 211.231 349.99 207.995C339.829 201.241 327.008 195.008 315.336 191.485C311.809 190.421 308.19 189.886 304.66 188.91ZM55.1085 189.116C42.1341 190.942 20.6093 199.966 10.1972 207.798C20.724 221.016 35.4013 234.817 49.8136 243.627C52.9921 245.57 56.2075 247.49 59.5262 249.186C61.7759 250.336 64.1637 251.292 66.3515 252.546C69.0367 253.724 71.9719 254.237 74.6163 255.432C76.1928 253.324 78.2202 251.5 80.0958 249.661C85.711 244.156 91.4608 238.927 98.1422 234.726C101.25 232.772 105.003 231.077 107.897 229.137C106.749 228.63 105.609 228.107 104.476 227.568C103.342 227.029 102.217 226.475 101.098 225.906C99.9803 225.337 98.8699 224.753 97.7674 224.154C96.6649 223.554 95.5709 222.94 94.4853 222.312C93.3994 221.682 92.3223 221.039 91.254 220.381C90.1858 219.723 89.1266 219.05 88.0766 218.363C87.0264 217.677 85.9858 216.976 84.9547 216.261C83.9237 215.546 82.9026 214.817 81.8912 214.074C80.8799 213.331 79.8788 212.575 78.8878 211.805C77.8971 211.036 76.917 210.252 75.9474 209.456C74.9778 208.66 74.019 207.85 73.0712 207.028C72.1236 206.205 71.1873 205.37 70.2622 204.522C69.3374 203.675 68.424 202.815 67.5222 201.942C66.6205 201.069 65.7308 200.185 64.8531 199.288C63.9754 198.392 63.1099 197.483 62.2568 196.563C61.4037 195.643 60.5632 194.711 59.7354 193.768C58.8569 192.782 56.3281 189.154 55.1085 189.116ZM199.734 107.402C200.95 111.443 202.729 115.424 204.094 119.436C207.462 129.339 209.676 138.343 211.121 148.707C214.197 144.19 217.266 139.594 220.689 135.334C224.027 131.179 227.868 127.203 230.852 122.8C233.385 119.063 235.007 114.778 237.349 110.919C236.558 109.456 235.923 107.937 236.109 106.227C236.213 105.27 236.658 104.497 237.416 103.904C238.918 102.728 240.581 102.543 242.406 102.735L242.607 102.567C242.939 102.796 243.07 102.825 243.248 103.19C243.553 103.818 243.979 104.002 244.61 104.196C245.896 105.928 245.617 107.115 245.659 109.107C246.574 108.874 252.175 104.174 253.425 103.25C258.33 99.6289 263.281 96.4405 268.583 93.4392C268.667 80.6775 266.772 68.1296 264.657 55.5865C264.149 52.569 263.94 49.2067 262.849 46.3552C259.255 48.699 255.598 50.9153 252.071 53.3681C250.191 54.6504 248.335 55.9664 246.503 57.3162C244.671 58.666 242.864 60.0487 241.083 61.4643C239.301 62.8797 237.546 64.3272 235.817 65.8068C234.088 67.2862 232.387 68.7966 230.713 70.3381C229.039 71.8793 227.394 73.4506 225.777 75.0518C224.16 76.6533 222.574 78.2835 221.016 79.9424C219.459 81.6015 217.932 83.2885 216.436 85.0032C214.94 86.7178 213.476 88.4591 212.044 90.227C209.159 93.7794 206.431 97.4476 203.858 101.232C202.529 103.185 201.357 105.51 199.83 107.293C199.799 107.33 199.766 107.366 199.734 107.402ZM97.5245 46.4568C96.7113 49.1135 96.1984 51.9127 95.6081 54.6278C93.1033 66.1503 90.9264 80.706 90.6599 92.4707C93.1975 93.7933 95.5863 95.4734 97.9436 97.0874C103.618 100.973 109.017 105.183 114.384 109.479C113.979 108.152 113.455 106.194 114.201 104.915C114.736 103.997 115.97 103.223 115.729 102.024C115.494 100.853 112.709 92.6278 111.975 92.2242C110.026 91.152 107.862 91.7496 106.945 89.0159C106.539 87.8069 106.574 86.1545 107.157 85.0067C107.626 84.0831 108.45 83.3251 109.443 83.0309C109.53 83.0052 109.618 82.9817 109.705 82.9549C111.055 82.5401 112.16 82.2029 113.502 82.904C114.687 83.5234 115.548 84.7054 115.893 85.9854C116.251 87.3119 116.038 88.8292 115.332 90.0073C114.73 91.0131 113.536 91.2768 113.801 92.3835C114.124 93.7331 117.098 101.334 118.075 101.786C118.523 101.993 119.177 101.922 119.664 101.996C121.06 102.209 122.343 103.061 123.034 104.297C123.718 105.522 123.826 106.941 123.442 108.28C123.137 109.342 122.508 110.095 121.765 110.883L121.931 111.137C123.292 113.229 124.439 115.514 125.766 117.643C128.228 121.594 130.916 125.257 133.816 128.893C139.395 135.431 144.389 142.075 148.274 149.783C149.06 145.861 149.688 141.919 150.556 138.012C151.412 134.233 152.389 130.485 153.488 126.769C154.587 123.053 155.804 119.376 157.14 115.739C158.129 113.058 159.04 110.237 160.363 107.702C156.672 100.456 151.607 94.0035 146.336 87.8529C144.991 86.2521 143.62 84.6741 142.222 83.1188C140.825 81.5635 139.402 80.0319 137.953 78.5242C136.505 77.0162 135.032 75.5328 133.534 74.0738C132.036 72.6148 130.514 71.1811 128.969 69.7728C127.424 68.3644 125.855 66.9822 124.264 65.6261C122.673 64.2697 121.059 62.9403 119.423 61.6376C117.788 60.3352 116.131 59.0602 114.453 57.8126C112.775 56.5653 111.077 55.346 109.358 54.1549C105.533 51.4672 101.598 48.7578 97.5245 46.4568ZM179.382 144.574C176.748 147.234 174.49 150.474 172.343 153.535C164.343 164.938 159.16 176.279 159.236 190.468C159.307 203.919 163.889 221.622 173.535 231.255C175.543 233.26 177.662 234.277 180.47 234.711C184.548 233.97 187.2 230.218 189.441 227.012C198.227 214.437 202.05 195.225 199.288 180.246C197.24 169.13 191.148 159.617 184.53 150.681C183.276 148.989 181.247 145.895 179.566 144.7C179.506 144.656 179.443 144.616 179.382 144.574ZM179.811 21.7077C176.084 28.6025 172.032 35.3248 168.329 42.2352C160.799 56.2865 153.823 72.1419 150.392 87.7474C153.293 91.0138 156.486 95.748 158.966 99.432C159.966 100.917 160.863 102.508 161.969 103.915C163.223 99.9442 177.633 71.4645 179.792 69.939C180.109 70.0814 180.007 69.9823 180.15 70.1732C183.93 76.2946 187.825 82.5492 191.104 88.9508C192.504 91.6865 193.868 94.4399 195.196 97.2112C196.246 99.438 197.204 101.754 198.473 103.865C200.139 101.097 201.914 98.4006 203.799 95.7768C205.684 93.1527 207.672 90.6095 209.764 88.1472C207.779 81.4341 205.875 74.6809 203.405 68.125C198.694 55.6213 192.396 43.8703 185.888 32.2323C184.108 29.0494 182.168 24.3629 179.811 21.7077ZM103.856 263.292C101.838 264.494 101.136 265.182 100.507 267.493C100.814 268.923 101.283 270.243 102.607 271.049C103.787 271.767 104.937 271.733 106.258 271.692C107.567 270.964 108.722 270.026 109.134 268.518C109.169 268.391 109.198 268.263 109.22 268.133C109.242 268.003 109.258 267.873 109.267 267.741C109.276 267.61 109.278 267.478 109.274 267.346C109.27 267.215 109.259 267.083 109.242 266.953C109.225 266.822 109.201 266.693 109.17 266.565C109.14 266.437 109.103 266.31 109.06 266.185C109.017 266.061 108.968 265.939 108.912 265.819C108.857 265.7 108.796 265.583 108.729 265.47C108.144 264.485 107.066 263.673 105.935 263.44C105.264 263.302 104.537 263.333 103.856 263.292ZM254.368 262.992C252.887 263.603 251.589 264.326 250.903 265.872C250.477 266.83 250.456 267.882 250.874 268.847C251.38 270.017 252.525 270.992 253.737 271.373C254.253 271.535 254.829 271.564 255.366 271.601C256.005 271.341 256.629 271.083 257.296 270.904C258.36 269.744 259.17 268.676 259.103 267C259.059 265.901 258.591 264.915 257.763 264.191C256.765 263.32 255.646 263.1 254.368 262.992ZM271.754 181.153C271.429 181.609 271.091 182.005 271.173 182.603C271.248 183.152 271.56 183.532 272.016 183.816C272.477 184.102 272.924 184.149 273.454 184.182C273.822 183.439 274.236 182.81 273.968 181.957C273.844 181.562 273.561 181.366 273.186 181.215C272.763 181.044 272.2 181.125 271.754 181.153ZM117.22 112.003C118.159 113.05 120.895 115.726 122.024 116.333C121.392 114.84 120.687 113.378 119.994 111.912L117.22 112.003ZM86.5146 179.922C86.2007 180.466 85.7834 181.033 85.9022 181.692C85.9883 182.169 86.1371 182.426 86.5491 182.684C86.933 182.926 87.5018 182.968 87.9349 182.932C88.2506 182.497 88.676 181.99 88.6606 181.419C88.6483 180.958 88.4584 180.6 88.0928 180.329C87.6358 179.991 87.0613 179.946 86.5146 179.922ZM68.6756 160.653C68.296 161.068 67.8185 161.514 67.782 162.113C67.7538 162.572 67.9113 162.869 68.226 163.19C68.5125 163.481 69.0719 163.682 69.4445 163.809C70.0021 163.3 70.4567 162.905 70.4749 162.091C70.4851 161.65 70.3048 161.269 69.9581 160.995C69.5862 160.701 69.1274 160.685 68.6756 160.653ZM239.257 111.933C238.709 113.378 238.271 114.853 237.75 116.304L239.449 114.609C240.314 113.844 241.167 113.085 241.962 112.246C241.102 112.177 240.074 112.203 239.257 111.933ZM110.928 86.0782C110.52 86.5549 110.215 86.8545 110.157 87.4957C110.294 87.9443 110.39 88.1922 110.8 88.4565C111.17 88.6946 111.663 88.8042 112.088 88.8742C112.416 88.4692 112.809 88.029 112.784 87.4697C112.765 87.0598 112.534 86.6298 112.18 86.4105C111.779 86.1619 111.387 86.1046 110.928 86.0782ZM240.691 105.874C240.236 106.197 239.695 106.52 239.545 107.098C239.439 107.505 239.527 107.838 239.804 108.156C240.176 108.581 240.715 108.651 241.239 108.729C241.657 108.294 241.968 107.988 242.146 107.403C242.087 106.919 242.094 106.736 241.709 106.387C241.459 106.161 241.002 105.992 240.691 105.874ZM291.189 161.664C290.828 162.138 290.543 162.444 290.534 163.072C290.744 163.566 290.93 163.82 291.448 164.012C291.818 164.149 292.194 164.214 292.585 164.256C292.902 163.74 293.108 163.406 293.137 162.793C292.961 162.366 292.842 162.081 292.397 161.875C292.007 161.695 291.61 161.678 291.189 161.664ZM118.308 105.752C117.974 106.136 117.568 106.556 117.571 107.102C117.573 107.517 117.75 107.822 118.109 108.032C118.492 108.255 118.95 108.229 119.372 108.199C119.741 107.707 119.949 107.414 120.017 106.797C119.873 106.386 119.794 106.138 119.367 105.923C119.08 105.778 118.629 105.769 118.308 105.752ZM228.089 181.446C227.742 181.996 227.528 182.304 227.575 182.967C227.799 183.369 227.984 183.621 228.435 183.793C228.651 183.874 228.927 183.89 229.151 183.917C229.371 183.494 229.68 182.985 229.586 182.489C229.503 182.047 229.258 181.823 228.873 181.617C228.666 181.506 228.316 181.471 228.089 181.446ZM201.666 187.067C201.39 188.27 201.002 195.422 201.455 196.328C202.014 194.086 202 189.411 201.666 187.067Z" fill="white"/>
</mask>
<g mask="url(#mask0_313_224)">
<path d="M201.665 186.067C201.999 188.411 202.013 193.086 201.454 195.328C201.001 194.422 201.389 187.27 201.665 186.067Z" fill="white"/>
<path d="M178.918 55.9127C179.857 55.8772 180.862 55.8259 181.766 56.1138C183.155 56.5561 184.34 57.4926 184.948 58.8338C185.562 60.1866 185.616 61.8204 185.053 63.1985C184.361 64.8948 183 65.7705 181.379 66.4304C180.168 66.5095 179.092 66.5534 177.944 66.0873C177.782 66.0231 177.623 65.9508 177.469 65.8704C177.314 65.7902 177.164 65.7022 177.018 65.6063C176.872 65.5107 176.732 65.4078 176.597 65.2977C176.461 65.1877 176.332 65.0711 176.208 64.9479C176.085 64.8246 175.968 64.6953 175.858 64.5601C175.748 64.4251 175.645 64.2847 175.549 64.1389C175.453 63.9934 175.365 63.8432 175.285 63.6886C175.204 63.5339 175.132 63.3754 175.068 63.2133C174.538 61.9033 174.52 60.3663 175.087 59.0655C175.866 57.2799 177.229 56.6158 178.918 55.9127ZM179.151 57.3109C178.47 57.686 177.789 58.0495 177.146 58.4886C176.765 59.3018 176.366 60.1061 176.07 60.9552C176.626 63.0234 176.967 63.8007 178.87 64.9141C178.931 64.9493 178.991 64.9827 179.052 65.0171C179.777 65.0161 180.495 65.0305 181.215 64.9306C182.484 64.1688 183.427 63.4548 183.803 61.9276C184.052 60.9137 183.88 59.808 183.287 58.9421C182.693 58.0731 181.617 57.4866 180.584 57.3478C180.107 57.2838 179.631 57.2845 179.151 57.3109Z" fill="white"/>
<path d="M243.374 99.8365L243.709 99.8393L244.424 98.6665C244.494 98.9594 244.439 98.7945 244.624 99.1489L245.185 98.9376C244.745 100.091 244.167 101.232 244.021 102.463C244.195 102.779 244.358 102.945 244.61 103.196C243.979 103.002 243.553 102.818 243.248 102.19C243.07 101.825 242.94 101.796 242.607 101.567C242.837 100.983 243.118 100.41 243.374 99.8365Z" fill="white"/>
<path d="M246.211 91.3266C245.236 90.4783 244.286 89.4212 243.808 88.2079C243.355 87.0566 243.369 85.8328 243.899 84.7081C244.483 83.4706 245.612 82.5281 246.905 82.1038C247.049 82.0562 247.195 82.0158 247.342 81.9825C247.49 81.9492 247.639 81.9233 247.789 81.9048C247.94 81.8863 248.09 81.8751 248.242 81.8714C248.393 81.8679 248.544 81.8717 248.695 81.883C248.846 81.8945 248.996 81.9132 249.145 81.9392C249.295 81.9655 249.442 81.999 249.588 82.0398C249.734 82.0806 249.877 82.1284 250.018 82.1832C250.159 82.2381 250.297 82.2998 250.432 82.3685C251.649 82.9886 252.593 84.1973 252.977 85.5023C253.273 86.5116 253.252 88.151 252.681 89.0689C251.503 90.9624 249.663 91.3516 247.641 91.7647C246.662 94.0906 246.122 96.5857 245.184 98.9373L244.623 99.1486C244.438 98.7942 244.493 98.9591 244.423 98.6662L243.708 99.839L243.373 99.8362C243.597 98.8982 244.056 97.9128 244.379 96.9938C245.038 95.1158 245.658 93.2391 246.211 91.3266ZM247.87 85.1922C247.468 85.5456 247.12 85.8236 247.069 86.3998C247.028 86.8716 247.169 87.1982 247.49 87.5372C247.86 87.9281 248.349 88.0167 248.855 88.1014C249.27 87.7383 249.622 87.4099 249.671 86.8245C249.708 86.3865 249.614 86.0325 249.291 85.7203C248.907 85.3487 248.372 85.2822 247.87 85.1922Z" fill="white"/>
<path d="M179.099 262.462C179.931 262.431 180.688 262.471 181.494 262.701C182.801 263.074 183.905 263.858 184.51 265.097C185.156 266.419 185.198 268.114 184.65 269.477C183.896 271.351 182.405 272.117 180.657 272.847C179.386 272.882 178.304 272.846 177.153 272.243C175.909 271.59 174.943 270.486 174.545 269.129C174.499 268.966 174.46 268.802 174.43 268.635C174.4 268.469 174.378 268.301 174.365 268.133C174.352 267.964 174.347 267.795 174.351 267.626C174.355 267.457 174.367 267.288 174.387 267.12C174.408 266.952 174.437 266.786 174.475 266.621C174.512 266.456 174.558 266.293 174.612 266.133C174.666 265.972 174.727 265.815 174.797 265.661C174.867 265.507 174.944 265.357 175.029 265.21C175.942 263.616 177.401 262.916 179.099 262.462ZM179.173 266.402C178.86 266.871 178.411 267.352 178.53 267.965C178.621 268.427 178.826 268.65 179.231 268.878C179.456 269.004 179.836 269.04 180.085 269.041C180.492 268.603 180.813 268.302 180.939 267.693C180.832 267.241 180.814 267.081 180.403 266.8C180.094 266.589 179.54 266.45 179.173 266.402Z" fill="white"/>
<path d="M178.648 286.715C179.645 286.649 180.625 286.592 181.605 286.845C183.083 287.226 184.339 288.123 185.083 289.471C185.853 290.867 185.966 292.669 185.446 294.169C184.746 296.187 183.221 297.194 181.408 298.091C180.43 298.146 179.519 298.119 178.569 297.855C177.051 297.435 175.767 296.511 175.024 295.103C174.309 293.749 174.16 292.081 174.655 290.629C175.326 288.657 176.865 287.585 178.648 286.715ZM179.102 288.304C177.709 289.013 176.53 289.7 176.02 291.29C175.671 292.381 175.872 293.601 176.438 294.583C177.025 295.601 177.92 296.199 179.053 296.469C179.597 296.599 180.188 296.669 180.731 296.509C182.26 295.79 183.443 295.081 184.003 293.363C184.043 293.238 184.078 293.111 184.106 292.983C184.134 292.855 184.156 292.725 184.171 292.595C184.186 292.464 184.195 292.333 184.197 292.202C184.199 292.07 184.194 291.939 184.183 291.808C184.172 291.677 184.155 291.547 184.131 291.418C184.107 291.288 184.076 291.16 184.04 291.034C184.003 290.908 183.96 290.784 183.911 290.662C183.862 290.54 183.807 290.421 183.746 290.304C183.219 289.32 182.277 288.678 181.208 288.401C180.53 288.226 179.795 288.236 179.102 288.304Z" fill="white"/>
<path d="M237.37 154.263C238.33 154.166 239.837 154.677 240.61 155.258C241.716 156.09 242.369 157.456 242.565 158.804C242.791 160.352 242.489 161.979 241.534 163.242C240.512 164.595 239.058 165.151 237.422 165.363C236.044 165.266 234.891 165.006 233.776 164.144C233.626 164.027 233.481 163.903 233.344 163.772C233.206 163.64 233.074 163.502 232.951 163.357C232.827 163.213 232.71 163.062 232.601 162.906C232.492 162.749 232.392 162.588 232.299 162.421C232.207 162.255 232.123 162.084 232.047 161.909C231.972 161.734 231.906 161.556 231.848 161.374C231.791 161.192 231.743 161.008 231.704 160.822C231.666 160.635 231.636 160.447 231.616 160.257C231.453 158.792 231.842 157.261 232.827 156.143C234.001 154.811 235.654 154.358 237.37 154.263ZM236.128 155.78C234.768 156.53 233.738 157.203 233.268 158.792C233.231 158.919 233.2 159.048 233.175 159.179C233.151 159.31 233.133 159.441 233.122 159.574C233.11 159.706 233.106 159.839 233.108 159.972C233.11 160.104 233.119 160.237 233.134 160.369C233.149 160.501 233.171 160.632 233.199 160.762C233.228 160.892 233.263 161.02 233.304 161.146C233.345 161.272 233.393 161.396 233.446 161.518C233.5 161.64 233.56 161.758 233.625 161.874C234.187 162.854 235.113 163.424 236.202 163.663C236.826 163.799 237.423 163.81 238.058 163.78C239.363 163.27 240.328 162.743 240.943 161.399C240.998 161.279 241.046 161.157 241.088 161.032C241.131 160.907 241.167 160.781 241.196 160.652C241.225 160.524 241.248 160.394 241.265 160.264C241.281 160.133 241.291 160.002 241.294 159.87C241.297 159.739 241.293 159.607 241.283 159.476C241.273 159.345 241.256 159.214 241.233 159.085C241.21 158.955 241.18 158.827 241.144 158.701C241.107 158.574 241.065 158.45 241.016 158.327C240.624 157.323 239.802 156.524 238.813 156.106C237.981 155.755 237.018 155.75 236.128 155.78Z" fill="white"/>
<path d="M132.825 185.676C132.477 185.94 132.174 186.045 131.757 186.171C130.628 186.511 129.477 186.335 128.464 185.751C128.316 185.665 128.173 185.572 128.035 185.472C127.896 185.372 127.763 185.265 127.636 185.152C127.508 185.038 127.386 184.919 127.27 184.793C127.155 184.668 127.046 184.536 126.943 184.4C126.841 184.263 126.745 184.122 126.657 183.976C126.568 183.83 126.487 183.68 126.414 183.525C126.34 183.371 126.275 183.214 126.217 183.053C126.159 182.893 126.11 182.729 126.069 182.564C125.79 181.435 125.913 180.208 126.549 179.219C127.217 178.18 128.406 177.534 129.59 177.28C130.782 177.025 132.04 177.212 133.065 177.888C133.188 177.969 133.307 178.056 133.421 178.149C133.535 178.243 133.645 178.342 133.749 178.446C133.853 178.551 133.951 178.661 134.044 178.775C134.137 178.89 134.224 179.009 134.305 179.132C134.385 179.256 134.459 179.383 134.527 179.514C134.594 179.646 134.655 179.78 134.709 179.917C134.763 180.055 134.809 180.195 134.849 180.337C134.888 180.479 134.92 180.623 134.945 180.768C135.237 182.433 134.655 183.949 133.697 185.285C133.209 185.257 133.205 185.225 132.824 185.523L132.825 185.676ZM129.981 180.295C129.577 180.815 129.156 181.279 129.286 181.987C129.346 182.315 129.621 182.621 129.907 182.782C130.287 182.996 130.682 183.065 131.107 183.129C131.455 182.653 131.902 182.104 131.784 181.469C131.704 181.037 131.378 180.76 131.016 180.559C130.702 180.384 130.331 180.344 129.981 180.295Z" fill="white"/>
<path d="M121.75 153.821C122.738 153.769 123.689 153.772 124.641 154.082C124.728 154.11 124.815 154.141 124.901 154.174C124.987 154.207 125.073 154.242 125.157 154.279C125.241 154.316 125.324 154.356 125.406 154.398C125.488 154.44 125.569 154.483 125.649 154.53C125.729 154.576 125.807 154.624 125.885 154.674C125.962 154.724 126.038 154.776 126.112 154.831C126.187 154.885 126.26 154.941 126.331 154.999C126.403 155.057 126.473 155.117 126.541 155.179C126.61 155.241 126.676 155.304 126.741 155.37C126.806 155.435 126.87 155.502 126.931 155.571C126.993 155.639 127.052 155.709 127.11 155.781C127.168 155.853 127.224 155.926 127.278 156.001C127.332 156.076 127.383 156.152 127.433 156.229C127.483 156.307 127.531 156.385 127.576 156.465C127.622 156.546 127.666 156.627 127.707 156.709C127.749 156.791 127.788 156.875 127.825 156.959C127.902 157.129 127.97 157.302 128.029 157.479C128.088 157.656 128.138 157.835 128.179 158.017C128.219 158.199 128.251 158.382 128.273 158.567C128.295 158.752 128.307 158.938 128.31 159.125C128.313 159.311 128.306 159.497 128.289 159.682C128.273 159.868 128.248 160.053 128.212 160.236C128.177 160.419 128.133 160.6 128.079 160.778C128.026 160.957 127.963 161.132 127.891 161.304C127.164 163.039 125.772 163.923 124.1 164.623C123.03 164.709 122.046 164.674 121.015 164.342C119.6 163.887 118.388 162.947 117.755 161.582C117.679 161.415 117.611 161.245 117.552 161.072C117.494 160.898 117.444 160.722 117.403 160.543C117.363 160.365 117.331 160.185 117.309 160.003C117.287 159.821 117.274 159.638 117.27 159.455C117.267 159.272 117.273 159.089 117.288 158.907C117.304 158.724 117.329 158.543 117.363 158.363C117.396 158.183 117.44 158.005 117.492 157.829C117.544 157.654 117.605 157.481 117.675 157.312C118.466 155.399 119.961 154.596 121.75 153.821ZM122.72 155.271C121.306 155.598 120.291 156.275 119.535 157.525C119.084 158.269 118.932 159.02 118.769 159.866C119.302 161.173 119.892 162.365 121.298 162.903C121.859 163.118 122.535 163.197 123.132 163.216C124.465 162.937 125.59 162.427 126.332 161.224C126.395 161.121 126.453 161.015 126.505 160.906C126.557 160.797 126.604 160.685 126.645 160.572C126.686 160.458 126.722 160.343 126.752 160.226C126.782 160.108 126.806 159.99 126.824 159.871C126.842 159.751 126.854 159.631 126.861 159.51C126.867 159.39 126.867 159.269 126.861 159.148C126.856 159.027 126.844 158.907 126.827 158.787C126.809 158.668 126.786 158.549 126.757 158.432C126.483 157.313 125.669 156.301 124.648 155.771C124.049 155.46 123.379 155.373 122.72 155.271Z" fill="white"/>
<path d="M57.6715 141.522C58.9639 141.382 60.2489 141.358 61.4533 141.921C62.7316 142.518 63.6471 143.588 64.1125 144.914C64.668 146.497 64.6138 148.37 63.8474 149.874C63.0962 151.349 61.8172 152.061 60.3044 152.569C59.2912 152.732 58.2935 152.695 57.3038 152.405C55.8128 151.967 54.5433 150.989 53.8501 149.584C53.7671 149.414 53.6929 149.24 53.6275 149.062C53.5619 148.884 53.5054 148.704 53.4581 148.52C53.411 148.337 53.373 148.151 53.3442 147.964C53.3156 147.776 53.2965 147.588 53.2869 147.399C53.277 147.21 53.2768 147.02 53.2862 146.831C53.2955 146.642 53.3144 146.453 53.3428 146.266C53.3709 146.079 53.4085 145.893 53.4556 145.71C53.5025 145.526 53.5585 145.345 53.6237 145.167C54.3591 143.188 55.8607 142.336 57.6715 141.522ZM58.6313 142.951C57.2409 143.382 56.061 143.815 55.3653 145.212C55.1269 145.69 54.9926 146.24 54.851 146.753C55.1565 148.21 55.5147 149.551 56.876 150.389C57.7289 150.914 58.5614 151.039 59.539 151.072C60.8725 150.574 62.0552 149.909 62.656 148.546C62.7066 148.428 62.751 148.308 62.7892 148.186C62.8277 148.064 62.8598 147.94 62.8856 147.814C62.9111 147.689 62.9303 147.563 62.9432 147.435C62.9561 147.308 62.9626 147.18 62.9626 147.052C62.9623 146.924 62.9558 146.796 62.9429 146.668C62.9297 146.541 62.9102 146.414 62.8842 146.289C62.8581 146.164 62.8259 146.04 62.7875 145.917C62.7488 145.795 62.7042 145.675 62.6535 145.558C62.2369 144.573 61.3313 143.685 60.3304 143.303C59.7915 143.098 59.1998 143.028 58.6313 142.951Z" fill="white"/>
<path d="M300.953 141.893C302.224 141.817 303.447 141.867 304.599 142.473C304.753 142.553 304.903 142.641 305.048 142.736C305.193 142.832 305.333 142.935 305.467 143.045C305.602 143.154 305.731 143.271 305.853 143.394C305.976 143.517 306.092 143.646 306.201 143.781C306.311 143.916 306.413 144.056 306.508 144.202C306.603 144.347 306.69 144.497 306.77 144.652C306.849 144.806 306.921 144.964 306.984 145.126C307.048 145.288 307.103 145.452 307.149 145.62C307.202 145.802 307.245 145.986 307.28 146.173C307.314 146.359 307.34 146.547 307.356 146.736C307.372 146.925 307.378 147.114 307.376 147.304C307.373 147.493 307.361 147.682 307.34 147.871C307.319 148.059 307.289 148.246 307.249 148.432C307.21 148.617 307.161 148.8 307.104 148.981C307.046 149.162 306.98 149.339 306.905 149.513C306.83 149.687 306.747 149.858 306.655 150.024C305.862 151.432 304.506 152.338 302.965 152.741C301.834 152.791 300.846 152.783 299.779 152.331C299.693 152.295 299.609 152.257 299.525 152.216C299.441 152.176 299.359 152.133 299.277 152.089C299.196 152.044 299.115 151.997 299.036 151.948C298.957 151.899 298.88 151.848 298.803 151.795C298.727 151.742 298.652 151.687 298.579 151.63C298.505 151.573 298.433 151.514 298.363 151.454C298.292 151.393 298.224 151.33 298.157 151.266C298.09 151.202 298.024 151.135 297.961 151.068C297.897 151 297.835 150.931 297.775 150.86C297.715 150.789 297.657 150.716 297.601 150.642C297.545 150.568 297.491 150.492 297.439 150.415C297.387 150.338 297.336 150.26 297.288 150.18C297.24 150.101 297.194 150.02 297.151 149.938C297.107 149.856 297.065 149.773 297.026 149.689C296.986 149.605 296.949 149.52 296.914 149.433C296.879 149.347 296.847 149.26 296.816 149.172C296.314 147.759 296.359 146.148 297.058 144.808C297.89 143.216 299.306 142.432 300.953 141.893ZM300.898 143.312C299.708 144.051 298.457 144.825 298.149 146.312C298.02 146.935 298.066 147.621 298.048 148.255C298.628 149.478 299.368 150.607 300.708 151.071C301.619 151.387 302.438 151.304 303.349 151.074C304.56 150.332 305.529 149.507 305.87 148.062C305.901 147.933 305.925 147.804 305.942 147.673C305.96 147.541 305.97 147.41 305.974 147.277C305.977 147.145 305.974 147.013 305.964 146.881C305.954 146.749 305.937 146.618 305.913 146.488C305.889 146.358 305.858 146.23 305.821 146.103C305.784 145.976 305.74 145.851 305.69 145.729C305.64 145.607 305.583 145.487 305.521 145.371C305.458 145.254 305.39 145.141 305.315 145.032C304.634 144.05 303.564 143.473 302.396 143.297C301.893 143.222 301.401 143.263 300.898 143.312Z" fill="white"/>
<g filter="url(#filter0_f_313_224)">
<circle cx="44.5" cy="68.5" r="166.5" fill="#A357FC"/>
</g>
<g filter="url(#filter1_f_313_224)">
<circle cx="284.5" cy="87.5" r="166.5" fill="#54DAF1"/>
</g>
<g filter="url(#filter2_f_313_224)">
<circle cx="75.5" cy="279.5" r="166.5" fill="#DB5CE1"/>
</g>
<g filter="url(#filter3_f_313_224)">
<circle cx="313.5" cy="311.5" r="166.5" fill="#A357FF"/>
</g>
</g>
<defs>
<filter id="filter0_f_313_224" x="-206" y="-182" width="501" height="501" filterUnits="userSpaceOnUse" color-interpolation-filters="sRGB">
<feFlood flood-opacity="0" result="BackgroundImageFix"/>
<feBlend mode="normal" in="SourceGraphic" in2="BackgroundImageFix" result="shape"/>
<feGaussianBlur stdDeviation="42" result="effect1_foregroundBlur_313_224"/>
</filter>
<filter id="filter1_f_313_224" x="34" y="-163" width="501" height="501" filterUnits="userSpaceOnUse" color-interpolation-filters="sRGB">
<feFlood flood-opacity="0" result="BackgroundImageFix"/>
<feBlend mode="normal" in="SourceGraphic" in2="BackgroundImageFix" result="shape"/>
<feGaussianBlur stdDeviation="42" result="effect1_foregroundBlur_313_224"/>
</filter>
<filter id="filter2_f_313_224" x="-175" y="29" width="501" height="501" filterUnits="userSpaceOnUse" color-interpolation-filters="sRGB">
<feFlood flood-opacity="0" result="BackgroundImageFix"/>
<feBlend mode="normal" in="SourceGraphic" in2="BackgroundImageFix" result="shape"/>
<feGaussianBlur stdDeviation="42" result="effect1_foregroundBlur_313_224"/>
</filter>
<filter id="filter3_f_313_224" x="63" y="61" width="501" height="501" filterUnits="userSpaceOnUse" color-interpolation-filters="sRGB">
<feFlood flood-opacity="0" result="BackgroundImageFix"/>
<feBlend mode="normal" in="SourceGraphic" in2="BackgroundImageFix" result="shape"/>
<feGaussianBlur stdDeviation="42" result="effect1_foregroundBlur_313_224"/>
</filter>
</defs>
</svg>
