<svg width="12" height="12" viewBox="0 0 12 12" fill="none" xmlns="http://www.w3.org/2000/svg">
<path fill-rule="evenodd" clip-rule="evenodd" d="M5.99536 7.05644L10.2361 11.2974C10.3774 11.434 10.5668 11.5096 10.7634 11.5079C10.9599 11.5062 11.1479 11.4273 11.2869 11.2883C11.4259 11.1493 11.5047 10.9613 11.5065 10.7647C11.5082 10.5681 11.4326 10.3788 11.2961 10.2374L7.05535 5.99638L11.2961 1.75537C11.4326 1.61398 11.5082 1.42461 11.5065 1.22804C11.5047 1.03147 11.4259 0.843442 11.2869 0.704443C11.1479 0.565444 10.9599 0.4866 10.7634 0.484892C10.5668 0.483184 10.3774 0.558748 10.2361 0.69531L5.99536 4.93631L1.75466 0.69531C1.61264 0.562124 1.42438 0.489419 1.22971 0.492581C1.03505 0.495742 0.849245 0.574521 0.711625 0.712249C0.574004 0.849977 0.495362 1.03585 0.492339 1.23053C0.489315 1.42522 0.562148 1.61344 0.695425 1.75537L4.93538 5.99638L0.694676 10.2374C0.623078 10.3065 0.565969 10.3893 0.526681 10.4807C0.487393 10.5722 0.466714 10.6706 0.465849 10.7701C0.464984 10.8697 0.483951 10.9684 0.521643 11.0605C0.559336 11.1526 0.614998 11.2363 0.685384 11.3067C0.755769 11.3771 0.839468 11.4328 0.931596 11.4705C1.02372 11.5082 1.12244 11.5272 1.22197 11.5263C1.32151 11.5254 1.41988 11.5047 1.51133 11.4654C1.60279 11.4262 1.68551 11.369 1.75466 11.2974L5.99536 7.05644Z" fill="white"/>
</svg>
