<svg width="20" height="20" viewBox="0 0 20 20" fill="none" xmlns="http://www.w3.org/2000/svg">
<g id="start icon">
<g id="primary-shape">
<path d="M18.2493 9.16664C18.2493 9.07497 18.1993 8.98331 18.1743 8.89164C18.1358 8.72992 18.0856 8.57118 18.0243 8.41664C17.9827 8.31664 17.9244 8.21664 17.8743 8.10831C17.8244 7.99997 17.7493 7.85831 17.6743 7.74164C17.5993 7.62498 17.4993 7.56664 17.4993 7.49998C17.4993 7.43331 17.3327 7.29164 17.241 7.19164C17.1494 7.09164 17.066 7.02498 16.9743 6.94164L16.666 6.66664L16.366 6.46664C16.2482 6.39457 16.1257 6.33054 15.9994 6.27498L15.6743 6.12498C15.5382 6.07456 15.3991 6.03281 15.2577 5.99997C15.1457 5.96703 15.0315 5.94197 14.916 5.92498H14.766C14.445 4.92436 13.8169 4.05031 12.9709 3.42696C12.125 2.80361 11.1041 2.46265 10.0533 2.4525C9.00248 2.44236 7.9752 2.76354 7.11733 3.37043C6.25946 3.97732 5.6146 4.83908 5.27435 5.83331H5.12435C5.00885 5.8503 4.89468 5.87536 4.78268 5.90831C4.6413 5.94115 4.50213 5.9829 4.36602 6.03331L4.04102 6.18331C3.91462 6.23887 3.79212 6.30291 3.67435 6.37498L3.37435 6.66664L3.06602 6.92498C2.97435 7.00831 2.88268 7.08331 2.79935 7.17497C2.71602 7.26664 2.62435 7.38331 2.54102 7.48331C2.45768 7.58331 2.39102 7.67498 2.32435 7.78331C2.25768 7.89164 2.19102 8.02497 2.12435 8.14997C2.05768 8.27497 2.01602 8.35831 1.97435 8.45831C1.91305 8.61285 1.86292 8.77159 1.82435 8.93331C1.82435 9.02498 1.76602 9.11664 1.74935 9.20831C1.69748 9.4691 1.66959 9.7341 1.66602 9.99997C1.66992 10.2544 1.69501 10.508 1.74102 10.7583C1.74102 10.8416 1.78268 10.9166 1.79935 11C1.84054 11.1637 1.89061 11.325 1.94935 11.4833L2.04935 11.725C2.12271 11.8857 2.20621 12.0415 2.29935 12.1916L2.41602 12.375C2.428 12.3983 2.44194 12.4206 2.45768 12.4416L2.49935 12.5C2.88746 13.0175 3.39073 13.4375 3.96929 13.7268C4.54786 14.016 5.18583 14.1666 5.83268 14.1666C5.83454 13.7253 6.01136 13.3028 6.32435 12.9916C6.63547 12.6787 7.05804 12.5018 7.49935 12.5C7.79249 12.4972 8.08076 12.575 8.33268 12.725V9.99997C8.33268 9.55795 8.50828 9.13402 8.82084 8.82146C9.1334 8.5089 9.55732 8.33331 9.99935 8.33331C10.4414 8.33331 10.8653 8.5089 11.1779 8.82146C11.4904 9.13402 11.666 9.55795 11.666 9.99997V12.8083C11.9192 12.6614 12.2066 12.5838 12.4993 12.5833C12.9508 12.5875 13.3822 12.7703 13.6994 13.0916C13.9799 13.3817 14.1457 13.7636 14.166 14.1666C14.8129 14.1666 15.4508 14.016 16.0294 13.7268C16.608 13.4375 17.1112 13.0175 17.4993 12.5L17.541 12.4583C17.5568 12.4373 17.5707 12.415 17.5827 12.3916L17.6994 12.2083C17.7925 12.0582 17.876 11.9023 17.9494 11.7416L18.0493 11.5C18.1081 11.3417 18.1582 11.1804 18.1994 11.0166C18.1994 10.9333 18.241 10.8583 18.2577 10.775C18.3046 10.5192 18.3297 10.26 18.3327 9.99997C18.3317 9.72017 18.3038 9.4411 18.2493 9.16664Z" fill="#212B36"/>
<path d="M11.9243 13.65L10.8327 14.7V9.99997C10.8327 9.77896 10.7449 9.567 10.5886 9.41072C10.4323 9.25444 10.2204 9.16664 9.99935 9.16664C9.77834 9.16664 9.56637 9.25444 9.41009 9.41072C9.25381 9.567 9.16602 9.77896 9.16602 9.99997V14.6583L8.09102 13.575C8.01332 13.4973 7.92108 13.4356 7.81956 13.3936C7.71804 13.3515 7.60923 13.3299 7.49935 13.3299C7.38947 13.3299 7.28066 13.3515 7.17914 13.3936C7.07762 13.4356 6.98538 13.4973 6.90768 13.575C6.82998 13.6527 6.76835 13.7449 6.7263 13.8464C6.68425 13.948 6.66261 14.0568 6.66261 14.1666C6.66261 14.2765 6.68425 14.3853 6.7263 14.4868C6.76835 14.5884 6.82998 14.6806 6.90768 14.7583L9.40768 17.2583C9.48555 17.3355 9.5779 17.3966 9.67943 17.4381C9.78096 17.4796 9.88968 17.5006 9.99935 17.5C10.2139 17.4991 10.4199 17.4155 10.5743 17.2666L13.0743 14.85C13.1628 14.777 13.2352 14.6866 13.2871 14.5844C13.339 14.4821 13.3692 14.3703 13.3759 14.2558C13.3826 14.1414 13.3656 14.0268 13.326 13.9192C13.2863 13.8116 13.2249 13.7134 13.1456 13.6306C13.0663 13.5479 12.9708 13.4823 12.865 13.4382C12.7592 13.394 12.6454 13.3722 12.5308 13.374C12.4161 13.3758 12.3031 13.4012 12.1988 13.4487C12.0944 13.4962 12.001 13.5647 11.9243 13.65Z" fill="#212B36"/>
<path d="M18.2493 9.16664C18.2493 9.07497 18.1993 8.98331 18.1743 8.89164C18.1358 8.72992 18.0856 8.57118 18.0243 8.41664C17.9827 8.31664 17.9244 8.21664 17.8743 8.10831C17.8244 7.99997 17.7493 7.85831 17.6743 7.74164C17.5993 7.62498 17.4993 7.56664 17.4993 7.49998C17.4993 7.43331 17.3327 7.29164 17.241 7.19164C17.1494 7.09164 17.066 7.02498 16.9743 6.94164L16.666 6.66664L16.366 6.46664C16.2482 6.39457 16.1257 6.33054 15.9994 6.27498L15.6743 6.12498C15.5382 6.07456 15.3991 6.03281 15.2577 5.99997C15.1457 5.96703 15.0315 5.94197 14.916 5.92498H14.766C14.445 4.92436 13.8169 4.05031 12.9709 3.42696C12.125 2.80361 11.1041 2.46265 10.0533 2.4525C9.00248 2.44236 7.9752 2.76354 7.11733 3.37043C6.25946 3.97732 5.6146 4.83908 5.27435 5.83331H5.12435C5.00885 5.8503 4.89468 5.87536 4.78268 5.90831C4.6413 5.94115 4.50213 5.9829 4.36602 6.03331L4.04102 6.18331C3.91462 6.23887 3.79212 6.30291 3.67435 6.37498L3.37435 6.66664L3.06602 6.92498C2.97435 7.00831 2.88268 7.08331 2.79935 7.17497C2.71602 7.26664 2.62435 7.38331 2.54102 7.48331C2.45768 7.58331 2.39102 7.67498 2.32435 7.78331C2.25768 7.89164 2.19102 8.02497 2.12435 8.14997C2.05768 8.27497 2.01602 8.35831 1.97435 8.45831C1.91305 8.61285 1.86292 8.77159 1.82435 8.93331C1.82435 9.02498 1.76602 9.11664 1.74935 9.20831C1.69748 9.4691 1.66959 9.7341 1.66602 9.99997C1.66992 10.2544 1.69501 10.508 1.74102 10.7583C1.74102 10.8416 1.78268 10.9166 1.79935 11C1.84054 11.1637 1.89061 11.325 1.94935 11.4833L2.04935 11.725C2.12271 11.8857 2.20621 12.0415 2.29935 12.1916L2.41602 12.375C2.428 12.3983 2.44194 12.4206 2.45768 12.4416L2.49935 12.5C2.88746 13.0175 3.39073 13.4375 3.96929 13.7268C4.54786 14.016 5.18583 14.1666 5.83268 14.1666C5.83454 13.7253 6.01136 13.3028 6.32435 12.9916C6.63547 12.6787 7.05804 12.5018 7.49935 12.5C7.79249 12.4972 8.08076 12.575 8.33268 12.725V9.99997C8.33268 9.55795 8.50828 9.13402 8.82084 8.82146C9.1334 8.5089 9.55732 8.33331 9.99935 8.33331C10.4414 8.33331 10.8653 8.5089 11.1779 8.82146C11.4904 9.13402 11.666 9.55795 11.666 9.99997V12.8083C11.9192 12.6614 12.2066 12.5838 12.4993 12.5833C12.9508 12.5875 13.3822 12.7703 13.6994 13.0916C13.9799 13.3817 14.1457 13.7636 14.166 14.1666C14.8129 14.1666 15.4508 14.016 16.0294 13.7268C16.608 13.4375 17.1112 13.0175 17.4993 12.5L17.541 12.4583C17.5568 12.4373 17.5707 12.415 17.5827 12.3916L17.6994 12.2083C17.7925 12.0582 17.876 11.9023 17.9494 11.7416L18.0493 11.5C18.1081 11.3417 18.1582 11.1804 18.1994 11.0166C18.1994 10.9333 18.241 10.8583 18.2577 10.775C18.3046 10.5192 18.3297 10.26 18.3327 9.99997C18.3317 9.72017 18.3038 9.4411 18.2493 9.16664Z" fill="#212B36"/>
<path d="M11.9243 13.65L10.8327 14.7V9.99997C10.8327 9.77896 10.7449 9.567 10.5886 9.41072C10.4323 9.25444 10.2204 9.16664 9.99935 9.16664C9.77834 9.16664 9.56637 9.25444 9.41009 9.41072C9.25381 9.567 9.16602 9.77896 9.16602 9.99997V14.6583L8.09102 13.575C8.01332 13.4973 7.92108 13.4356 7.81956 13.3936C7.71804 13.3515 7.60923 13.3299 7.49935 13.3299C7.38947 13.3299 7.28066 13.3515 7.17914 13.3936C7.07762 13.4356 6.98538 13.4973 6.90768 13.575C6.82998 13.6527 6.76835 13.7449 6.7263 13.8464C6.68425 13.948 6.66261 14.0568 6.66261 14.1666C6.66261 14.2765 6.68425 14.3853 6.7263 14.4868C6.76835 14.5884 6.82998 14.6806 6.90768 14.7583L9.40768 17.2583C9.48555 17.3355 9.5779 17.3966 9.67943 17.4381C9.78096 17.4796 9.88968 17.5006 9.99935 17.5C10.2139 17.4991 10.4199 17.4155 10.5743 17.2666L13.0743 14.85C13.1628 14.777 13.2352 14.6866 13.2871 14.5844C13.339 14.4821 13.3692 14.3703 13.3759 14.2558C13.3826 14.1414 13.3656 14.0268 13.326 13.9192C13.2863 13.8116 13.2249 13.7134 13.1456 13.6306C13.0663 13.5479 12.9708 13.4823 12.865 13.4382C12.7592 13.394 12.6454 13.3722 12.5308 13.374C12.4161 13.3758 12.3031 13.4012 12.1988 13.4487C12.0944 13.4962 12.001 13.5647 11.9243 13.65Z" fill="#212B36"/>
</g>
</g>
</svg>
