<svg width="16" height="16" viewBox="0 0 16 16" fill="none" xmlns="http://www.w3.org/2000/svg">
<g id="icons/ic-eva:arrow-ios-downward-fill">
<path id="primary-shape" d="M8.00004 10.334C7.84427 10.3343 7.69331 10.2801 7.57337 10.1807L3.57337 6.84735C3.28986 6.61171 3.25106 6.19086 3.4867 5.90735C3.72234 5.62385 4.1432 5.58505 4.4267 5.82069L8.00004 8.80735L11.5734 5.92735C11.7111 5.81551 11.8877 5.76317 12.0642 5.78194C12.2406 5.80071 12.4023 5.88903 12.5134 6.02735C12.6368 6.16593 12.6969 6.34967 12.6792 6.53439C12.6614 6.71911 12.5675 6.88809 12.42 7.00069L8.42004 10.2207C8.29665 10.3044 8.14877 10.3443 8.00004 10.334Z" fill="#212B36"/>
</g>
</svg>
