<svg width="16" height="16" viewBox="0 0 16 16" fill="none" xmlns="http://www.w3.org/2000/svg">
<g id="icons/ic-eva:info-fill">
<path id="primary-shape" fill-rule="evenodd" clip-rule="evenodd" d="M8.00016 1.33331C4.31826 1.33331 1.3335 4.31808 1.3335 7.99998C1.3335 11.6819 4.31826 14.6666 8.00016 14.6666C11.6821 14.6666 14.6668 11.6819 14.6668 7.99998C14.6668 6.23187 13.9645 4.53618 12.7142 3.28593C11.464 2.03569 9.76827 1.33331 8.00016 1.33331ZM8.66683 10.6666C8.66683 11.0348 8.36835 11.3333 8.00016 11.3333C7.63197 11.3333 7.3335 11.0348 7.3335 10.6666V7.33331C7.3335 6.96512 7.63197 6.66665 8.00016 6.66665C8.36835 6.66665 8.66683 6.96512 8.66683 7.33331V10.6666ZM7.3335 5.33331C7.3335 5.7015 7.63197 5.99998 8.00016 5.99998C8.36835 5.99998 8.66683 5.7015 8.66683 5.33331C8.66683 4.96512 8.36835 4.66665 8.00016 4.66665C7.63197 4.66665 7.3335 4.96512 7.3335 5.33331Z" fill="#637381"/>
</g>
</svg>
