<svg width="18" height="18" viewBox="0 0 18 18" fill="none" xmlns="http://www.w3.org/2000/svg">
<g id="icons/ic-eva:arrow-downward-fill">
<path id="primary-shape" d="M14.0784 10.02C14.0155 9.94406 13.9381 9.88128 13.8509 9.83527C13.7636 9.78925 13.6681 9.7609 13.5699 9.75185C13.4717 9.74279 13.3726 9.7532 13.2784 9.78249C13.1842 9.81177 13.0967 9.85935 13.0209 9.9225L9.75094 12.645V3.75C9.75094 3.55109 9.67192 3.36032 9.53127 3.21967C9.39061 3.07902 9.19985 3 9.00094 3C8.80202 3 8.61126 3.07902 8.47061 3.21967C8.32995 3.36032 8.25094 3.55109 8.25094 3.75V12.645L4.98094 9.9225C4.9051 9.85947 4.81759 9.81199 4.7234 9.78277C4.62921 9.75356 4.53019 9.74318 4.43199 9.75223C4.3338 9.76129 4.23834 9.78959 4.15108 9.83554C4.06383 9.88148 3.98647 9.94416 3.92344 10.02C3.8604 10.0958 3.81292 10.1833 3.78371 10.2775C3.75449 10.3717 3.74412 10.4707 3.75317 10.5689C3.76223 10.6671 3.79053 10.7626 3.83648 10.8499C3.88242 10.9371 3.9451 11.0145 4.02094 11.0775L8.52094 14.8275L8.63344 14.895L8.73094 14.9475C8.90469 15.0145 9.09718 15.0145 9.27094 14.9475L9.36844 14.895L9.48094 14.8275L13.9809 11.0775C14.0569 11.0145 14.1197 10.9372 14.1657 10.85C14.2117 10.7627 14.24 10.6672 14.2491 10.569C14.2581 10.4707 14.2477 10.3717 14.2185 10.2775C14.1892 10.1833 14.1416 10.0958 14.0784 10.02Z" fill="#212B36"/>
</g>
</svg>
