<svg width="16" height="16" viewBox="0 0 16 16" fill="none" xmlns="http://www.w3.org/2000/svg">
<path fill-rule="evenodd" clip-rule="evenodd" d="M15.0402 10.8666L9.9269 2.38663C9.50671 1.72929 8.78039 1.33154 8.00023 1.33154C7.22007 1.33154 6.49375 1.72929 6.07356 2.38663L0.96023 10.8666C0.592594 11.4795 0.579887 12.2419 0.926897 12.8666C1.32821 13.5701 2.07705 14.0031 2.8869 14H13.1136C13.9179 14.0085 14.6655 13.5865 15.0736 12.8933C15.431 12.2617 15.4182 11.4861 15.0402 10.8666ZM8.00023 11.3333C7.63204 11.3333 7.33356 11.0348 7.33356 10.6666C7.33356 10.2984 7.63204 9.99996 8.00023 9.99996C8.36842 9.99996 8.6669 10.2984 8.6669 10.6666C8.6669 11.0348 8.36842 11.3333 8.00023 11.3333ZM8.00023 9.33329C8.36842 9.33329 8.6669 9.03482 8.6669 8.66663V5.99996C8.6669 5.63177 8.36842 5.33329 8.00023 5.33329C7.63204 5.33329 7.33356 5.63177 7.33356 5.99996V8.66663C7.33356 9.03482 7.63204 9.33329 8.00023 9.33329Z" fill="#FF5630"/>
</svg>
