<svg width="16" height="16" viewBox="0 0 16 16" fill="none" xmlns="http://www.w3.org/2000/svg">
<g id="icons/ic-eva:cloud-download-fill">
<g id="primary-shape">
<path d="M14.6007 7.33341C14.6007 7.26008 14.5607 7.18674 14.5407 7.11341C14.5098 6.98404 14.4697 6.85704 14.4207 6.73341C14.3873 6.65341 14.3407 6.57341 14.3007 6.48674C14.2607 6.40008 14.2007 6.28674 14.1407 6.19341C14.0807 6.10008 14.0007 6.05341 14.0007 6.00008C14.0007 5.94674 13.8673 5.83341 13.794 5.75341C13.7207 5.67341 13.654 5.62008 13.5807 5.55341L13.334 5.33341L13.094 5.17341C12.9998 5.11576 12.9018 5.06453 12.8007 5.02008L12.5407 4.90008C12.4318 4.85975 12.3204 4.82635 12.2073 4.80008C12.1177 4.77372 12.0264 4.75367 11.934 4.74008H11.814C11.5572 3.93958 11.0547 3.24035 10.3779 2.74167C9.70113 2.24299 8.88443 1.97022 8.04379 1.9621C7.20316 1.95398 6.38134 2.21093 5.69504 2.69644C5.00874 3.18196 4.49285 3.87136 4.22065 4.66674H4.10065C4.00825 4.68034 3.91692 4.70039 3.82732 4.72674C3.71421 4.75302 3.60288 4.78642 3.49398 4.82674L3.23398 4.94674C3.13287 4.99119 3.03487 5.04242 2.94065 5.10008L2.70065 5.33341L2.45398 5.54008C2.38065 5.60675 2.30732 5.66674 2.24065 5.74008C2.17398 5.81341 2.10065 5.90674 2.03398 5.98674C1.96732 6.06674 1.91398 6.14008 1.86065 6.22674C1.80732 6.31341 1.75398 6.42008 1.70065 6.52008C1.64732 6.62008 1.61398 6.68674 1.58065 6.76674C1.53161 6.89038 1.49151 7.01737 1.46065 7.14674C1.46065 7.22008 1.41398 7.29341 1.40065 7.36674C1.35916 7.57538 1.33684 7.78737 1.33398 8.00008C1.33711 8.20361 1.35718 8.40654 1.39398 8.60674C1.39398 8.67341 1.42732 8.73341 1.44065 8.80008C1.4736 8.93105 1.51366 9.06013 1.56065 9.18674L1.64065 9.38008C1.69934 9.50864 1.76614 9.63333 1.84065 9.75341L1.93398 9.90008C1.94358 9.91876 1.95473 9.9366 1.96732 9.95341L2.00065 10.0001C2.31114 10.4141 2.71375 10.7501 3.17661 10.9815C3.63946 11.2129 4.14983 11.3334 4.66732 11.3334C4.66881 10.9804 4.81026 10.6423 5.06065 10.3934C5.30955 10.143 5.6476 10.0016 6.00065 10.0001C6.23517 9.99787 6.46578 10.0601 6.66732 10.1801V8.00008C6.66732 7.64646 6.80779 7.30732 7.05784 7.05727C7.30789 6.80722 7.64703 6.66674 8.00065 6.66674C8.35427 6.66674 8.69341 6.80722 8.94346 7.05727C9.19351 7.30732 9.33398 7.64646 9.33398 8.00008V10.2467C9.53654 10.1292 9.76648 10.0672 10.0007 10.0667C10.3618 10.0701 10.707 10.2163 10.9607 10.4734C11.1851 10.7054 11.3178 11.011 11.334 11.3334C11.8515 11.3334 12.3618 11.2129 12.8247 10.9815C13.2875 10.7501 13.6902 10.4141 14.0007 10.0001L14.034 9.96674C14.0466 9.94994 14.0577 9.93209 14.0673 9.91341L14.1607 9.76674C14.2352 9.64667 14.302 9.52197 14.3607 9.39341L14.4407 9.20008C14.4876 9.07346 14.5277 8.94438 14.5607 8.81341C14.5607 8.74674 14.594 8.68674 14.6073 8.62008C14.6449 8.41549 14.6649 8.20807 14.6673 8.00008C14.6665 7.77623 14.6442 7.55298 14.6007 7.33341Z" fill="#212B36"/>
<path d="M9.54065 10.9201L8.66732 11.7601V8.00008C8.66732 7.82327 8.59708 7.6537 8.47206 7.52867C8.34703 7.40365 8.17746 7.33341 8.00065 7.33341C7.82384 7.33341 7.65427 7.40365 7.52925 7.52867C7.40422 7.6537 7.33398 7.82327 7.33398 8.00008V11.7267L6.47398 10.8601C6.41183 10.7979 6.33803 10.7486 6.25682 10.715C6.1756 10.6813 6.08856 10.664 6.00065 10.664C5.91274 10.664 5.8257 10.6813 5.74448 10.715C5.66327 10.7486 5.58948 10.7979 5.52732 10.8601C5.46516 10.9222 5.41585 10.996 5.38221 11.0772C5.34857 11.1585 5.33126 11.2455 5.33126 11.3334C5.33126 11.4213 5.34857 11.5084 5.38221 11.5896C5.41585 11.6708 5.46516 11.7446 5.52732 11.8067L7.52732 13.8067C7.58961 13.8685 7.66349 13.9174 7.74471 13.9506C7.82594 13.9838 7.91291 14.0006 8.00065 14.0001C8.1723 13.9994 8.33707 13.9325 8.46065 13.8134L10.4607 11.8801C10.5314 11.8217 10.5893 11.7494 10.6308 11.6676C10.6723 11.5858 10.6965 11.4963 10.7019 11.4048C10.7072 11.3132 10.6936 11.2215 10.6619 11.1355C10.6302 11.0494 10.5811 10.9708 10.5177 10.9046C10.4542 10.8384 10.3778 10.786 10.2931 10.7506C10.2085 10.7153 10.1175 10.6978 10.0258 10.6993C9.93408 10.7007 9.84367 10.7211 9.76019 10.7591C9.67672 10.7971 9.60198 10.8519 9.54065 10.9201Z" fill="#212B36"/>
<path d="M14.6007 7.33341C14.6007 7.26008 14.5607 7.18674 14.5407 7.11341C14.5098 6.98404 14.4697 6.85704 14.4207 6.73341C14.3873 6.65341 14.3407 6.57341 14.3007 6.48674C14.2607 6.40008 14.2007 6.28674 14.1407 6.19341C14.0807 6.10008 14.0007 6.05341 14.0007 6.00008C14.0007 5.94674 13.8673 5.83341 13.794 5.75341C13.7207 5.67341 13.654 5.62008 13.5807 5.55341L13.334 5.33341L13.094 5.17341C12.9998 5.11576 12.9018 5.06453 12.8007 5.02008L12.5407 4.90008C12.4318 4.85975 12.3204 4.82635 12.2073 4.80008C12.1177 4.77372 12.0264 4.75367 11.934 4.74008H11.814C11.5572 3.93958 11.0547 3.24035 10.3779 2.74167C9.70113 2.24299 8.88443 1.97022 8.04379 1.9621C7.20316 1.95398 6.38134 2.21093 5.69504 2.69644C5.00874 3.18196 4.49285 3.87136 4.22065 4.66674H4.10065C4.00825 4.68034 3.91692 4.70039 3.82732 4.72674C3.71421 4.75302 3.60288 4.78642 3.49398 4.82674L3.23398 4.94674C3.13287 4.99119 3.03487 5.04242 2.94065 5.10008L2.70065 5.33341L2.45398 5.54008C2.38065 5.60675 2.30732 5.66674 2.24065 5.74008C2.17398 5.81341 2.10065 5.90674 2.03398 5.98674C1.96732 6.06674 1.91398 6.14008 1.86065 6.22674C1.80732 6.31341 1.75398 6.42008 1.70065 6.52008C1.64732 6.62008 1.61398 6.68674 1.58065 6.76674C1.53161 6.89038 1.49151 7.01737 1.46065 7.14674C1.46065 7.22008 1.41398 7.29341 1.40065 7.36674C1.35916 7.57538 1.33684 7.78737 1.33398 8.00008C1.33711 8.20361 1.35718 8.40654 1.39398 8.60674C1.39398 8.67341 1.42732 8.73341 1.44065 8.80008C1.4736 8.93105 1.51366 9.06013 1.56065 9.18674L1.64065 9.38008C1.69934 9.50864 1.76614 9.63333 1.84065 9.75341L1.93398 9.90008C1.94358 9.91876 1.95473 9.9366 1.96732 9.95341L2.00065 10.0001C2.31114 10.4141 2.71375 10.7501 3.17661 10.9815C3.63946 11.2129 4.14983 11.3334 4.66732 11.3334C4.66881 10.9804 4.81026 10.6423 5.06065 10.3934C5.30955 10.143 5.6476 10.0016 6.00065 10.0001C6.23517 9.99787 6.46578 10.0601 6.66732 10.1801V8.00008C6.66732 7.64646 6.80779 7.30732 7.05784 7.05727C7.30789 6.80722 7.64703 6.66674 8.00065 6.66674C8.35427 6.66674 8.69341 6.80722 8.94346 7.05727C9.19351 7.30732 9.33398 7.64646 9.33398 8.00008V10.2467C9.53654 10.1292 9.76648 10.0672 10.0007 10.0667C10.3618 10.0701 10.707 10.2163 10.9607 10.4734C11.1851 10.7054 11.3178 11.011 11.334 11.3334C11.8515 11.3334 12.3618 11.2129 12.8247 10.9815C13.2875 10.7501 13.6902 10.4141 14.0007 10.0001L14.034 9.96674C14.0466 9.94994 14.0577 9.93209 14.0673 9.91341L14.1607 9.76674C14.2352 9.64667 14.302 9.52197 14.3607 9.39341L14.4407 9.20008C14.4876 9.07346 14.5277 8.94438 14.5607 8.81341C14.5607 8.74674 14.594 8.68674 14.6073 8.62008C14.6449 8.41549 14.6649 8.20807 14.6673 8.00008C14.6665 7.77623 14.6442 7.55298 14.6007 7.33341Z" fill="#212B36"/>
<path d="M9.54065 10.9201L8.66732 11.7601V8.00008C8.66732 7.82327 8.59708 7.6537 8.47206 7.52867C8.34703 7.40365 8.17746 7.33341 8.00065 7.33341C7.82384 7.33341 7.65427 7.40365 7.52925 7.52867C7.40422 7.6537 7.33398 7.82327 7.33398 8.00008V11.7267L6.47398 10.8601C6.41183 10.7979 6.33803 10.7486 6.25682 10.715C6.1756 10.6813 6.08856 10.664 6.00065 10.664C5.91274 10.664 5.8257 10.6813 5.74448 10.715C5.66327 10.7486 5.58948 10.7979 5.52732 10.8601C5.46516 10.9222 5.41585 10.996 5.38221 11.0772C5.34857 11.1585 5.33126 11.2455 5.33126 11.3334C5.33126 11.4213 5.34857 11.5084 5.38221 11.5896C5.41585 11.6708 5.46516 11.7446 5.52732 11.8067L7.52732 13.8067C7.58961 13.8685 7.66349 13.9174 7.74471 13.9506C7.82594 13.9838 7.91291 14.0006 8.00065 14.0001C8.1723 13.9994 8.33707 13.9325 8.46065 13.8134L10.4607 11.8801C10.5314 11.8217 10.5893 11.7494 10.6308 11.6676C10.6723 11.5858 10.6965 11.4963 10.7019 11.4048C10.7072 11.3132 10.6936 11.2215 10.6619 11.1355C10.6302 11.0494 10.5811 10.9708 10.5177 10.9046C10.4542 10.8384 10.3778 10.786 10.2931 10.7506C10.2085 10.7153 10.1175 10.6978 10.0258 10.6993C9.93408 10.7007 9.84367 10.7211 9.76019 10.7591C9.67672 10.7971 9.60198 10.8519 9.54065 10.9201Z" fill="#212B36"/>
</g>
</g>
</svg>
