<svg width="16" height="16" viewBox="0 0 16 16" fill="none" xmlns="http://www.w3.org/2000/svg">
<g id="icons/ic-eva:cloud-upload-fill">
<g id="primary-shape">
<path d="M14.6007 7.99999C14.6007 7.92665 14.5607 7.85332 14.5407 7.77999C14.5098 7.65061 14.4697 7.52362 14.4207 7.39999C14.3873 7.31999 14.3407 7.23999 14.3007 7.15332C14.2607 7.06665 14.2007 6.95332 14.1407 6.85999C14.0807 6.76665 14.0007 6.71999 14.0007 6.66665C14.0007 6.61332 13.8673 6.49999 13.794 6.41999C13.7207 6.33999 13.654 6.28665 13.5807 6.21999L13.334 5.99999L13.094 5.83999C12.9998 5.78233 12.9018 5.7311 12.8007 5.68665L12.5407 5.56665C12.4318 5.52632 12.3204 5.49292 12.2073 5.46665C12.1177 5.4403 12.0264 5.42025 11.934 5.40665L11.7807 5.33332C11.5086 4.54736 10.9984 3.86573 10.3209 3.38329C9.64338 2.90086 8.83236 2.6416 8.00065 2.6416C7.16894 2.6416 6.35792 2.90086 5.68043 3.38329C5.00294 3.86573 4.49268 4.54736 4.22065 5.33332L4.10065 5.36665C4.00825 5.38025 3.91692 5.4003 3.82732 5.42665C3.71421 5.45292 3.60288 5.48632 3.49398 5.52665L3.23398 5.64665C3.13287 5.6911 3.03487 5.74233 2.94065 5.79999L2.70065 5.99999L2.45398 6.20665C2.38065 6.27332 2.30732 6.33332 2.24065 6.40665C2.17398 6.47999 2.10065 6.57332 2.03398 6.65332C1.96732 6.73332 1.91398 6.80665 1.86065 6.89332C1.80732 6.97999 1.75398 7.08665 1.70065 7.18665C1.64732 7.28665 1.61398 7.35332 1.58065 7.43332C1.53161 7.55695 1.49151 7.68395 1.46065 7.81332C1.46065 7.88665 1.41398 7.95999 1.40065 8.03332C1.35916 8.24196 1.33684 8.45395 1.33398 8.66665C1.33711 8.87019 1.35718 9.07311 1.39398 9.27332C1.39398 9.33999 1.42732 9.39999 1.44065 9.46665C1.4736 9.59762 1.51366 9.7267 1.56065 9.85332L1.64065 10.0467C1.69934 10.1752 1.76614 10.2999 1.84065 10.42L1.93398 10.5667C1.94358 10.5853 1.95473 10.6032 1.96732 10.62L2.00065 10.6667C2.31114 11.0806 2.71375 11.4167 3.17661 11.6481C3.63946 11.8795 4.14983 12 4.66732 12H6.66732V11.0867C6.46476 11.2042 6.23482 11.2662 6.00065 11.2667C5.63949 11.2633 5.29434 11.1171 5.04065 10.86C4.91885 10.734 4.82308 10.5852 4.75882 10.4221C4.69457 10.2591 4.66309 10.085 4.66618 9.90974C4.66928 9.73451 4.70689 9.56162 4.77686 9.40094C4.84684 9.24026 4.9478 9.09495 5.07398 8.97332L7.07398 7.03999C7.32282 6.80015 7.65505 6.6663 8.00065 6.66665C8.3537 6.66814 8.69175 6.8096 8.94065 7.05999L10.9407 9.05999C11.189 9.3098 11.3284 9.64774 11.3284 9.99999C11.3284 10.3522 11.189 10.6902 10.9407 10.94C10.6918 11.1904 10.3537 11.3318 10.0007 11.3333C9.76614 11.3355 9.53552 11.2733 9.33398 11.1533V12H11.334C11.8515 12 12.3618 11.8795 12.8247 11.6481C13.2875 11.4167 13.6902 11.0806 14.0007 10.6667L14.034 10.6333C14.0466 10.6165 14.0577 10.5987 14.0673 10.58L14.1607 10.4333C14.2352 10.3132 14.302 10.1885 14.3607 10.06L14.4407 9.86665C14.4876 9.74004 14.5277 9.61096 14.5607 9.47999C14.5607 9.41332 14.594 9.35332 14.6073 9.28665C14.6449 9.08206 14.6649 8.87465 14.6673 8.66665C14.6665 8.44281 14.6442 8.21955 14.6007 7.99999Z" fill="#212B36"/>
<path d="M8.47398 7.52665C8.34937 7.4045 8.18182 7.33608 8.00732 7.33608C7.83282 7.33608 7.66527 7.4045 7.54065 7.52665L5.54065 9.45999C5.46991 9.51836 5.41198 9.5907 5.37047 9.67248C5.32896 9.75427 5.30478 9.84373 5.29942 9.93529C5.29407 10.0268 5.30767 10.1185 5.33937 10.2046C5.37106 10.2907 5.42017 10.3692 5.48363 10.4355C5.54709 10.5017 5.62352 10.5541 5.70816 10.5894C5.7928 10.6247 5.88381 10.6422 5.97552 10.6408C6.06722 10.6393 6.15763 10.619 6.24111 10.581C6.32458 10.543 6.39932 10.4882 6.46065 10.42L7.33398 9.57332V13.3333C7.33398 13.5101 7.40422 13.6797 7.52925 13.8047C7.65427 13.9297 7.82384 14 8.00065 14C8.17746 14 8.34703 13.9297 8.47206 13.8047C8.59708 13.6797 8.66732 13.5101 8.66732 13.3333V9.60665L9.52732 10.4733C9.58929 10.5358 9.66303 10.5854 9.74427 10.6192C9.82551 10.6531 9.91264 10.6705 10.0007 10.6705C10.0887 10.6705 10.1758 10.6531 10.257 10.6192C10.3383 10.5854 10.412 10.5358 10.474 10.4733C10.5365 10.4113 10.5861 10.3376 10.6199 10.2564C10.6538 10.1751 10.6712 10.088 10.6712 9.99999C10.6712 9.91198 10.6538 9.82484 10.6199 9.7436C10.5861 9.66236 10.5365 9.58863 10.474 9.52665L8.47398 7.52665Z" fill="#212B36"/>
</g>
</g>
</svg>
