<svg width="20" height="20" viewBox="0 0 20 20" fill="none" xmlns="http://www.w3.org/2000/svg">
<g id="icons/ic-eva:more-vertical-fill">
<g id="primary-shape">
<path d="M10.0007 11.6667C10.9211 11.6667 11.6673 10.9205 11.6673 10C11.6673 9.07952 10.9211 8.33333 10.0007 8.33333C9.08018 8.33333 8.33398 9.07952 8.33398 10C8.33398 10.9205 9.08018 11.6667 10.0007 11.6667Z" fill="#637381"/>
<path d="M10.0007 5.83333C10.9211 5.83333 11.6673 5.08714 11.6673 4.16667C11.6673 3.24619 10.9211 2.5 10.0007 2.5C9.08018 2.5 8.33398 3.24619 8.33398 4.16667C8.33398 5.08714 9.08018 5.83333 10.0007 5.83333Z" fill="#637381"/>
<path d="M10.0007 17.5C10.9211 17.5 11.6673 16.7538 11.6673 15.8333C11.6673 14.9129 10.9211 14.1667 10.0007 14.1667C9.08018 14.1667 8.33398 14.9129 8.33398 15.8333C8.33398 16.7538 9.08018 17.5 10.0007 17.5Z" fill="#637381"/>
</g>
</g>
</svg>
