<svg width="20" height="20" viewBox="0 0 20 20" fill="none" xmlns="http://www.w3.org/2000/svg">
<g id="start icon">
<g id="primary-shape">
<path d="M18.2493 9.99998C18.2493 9.90832 18.1993 9.81665 18.1743 9.72498C18.1358 9.56327 18.0856 9.40453 18.0243 9.24998C17.9827 9.14998 17.9244 9.04998 17.8743 8.94165C17.8244 8.83332 17.7493 8.69165 17.6743 8.57498C17.5993 8.45832 17.4993 8.39998 17.4993 8.33332C17.4993 8.26665 17.3327 8.12498 17.241 8.02498C17.1494 7.92498 17.066 7.85832 16.9743 7.77498L16.666 7.49998L16.366 7.29998C16.2482 7.22791 16.1257 7.16388 15.9994 7.10832L15.6743 6.95832C15.5382 6.90791 15.3991 6.86616 15.2577 6.83332C15.1457 6.80037 15.0315 6.77531 14.916 6.75832L14.7243 6.66665C14.3843 5.68419 13.7465 4.83217 12.8996 4.22912C12.0528 3.62607 11.039 3.302 9.99935 3.302C8.95971 3.302 7.94593 3.62607 7.09907 4.22912C6.25221 4.83217 5.61438 5.68419 5.27435 6.66665L5.12435 6.70832C5.00885 6.72531 4.89468 6.75037 4.78268 6.78332C4.6413 6.81616 4.50213 6.85791 4.36602 6.90832L4.04102 7.05832C3.91462 7.11388 3.79212 7.17791 3.67435 7.24998L3.37435 7.49998L3.06602 7.75832C2.97435 7.84165 2.88268 7.91665 2.79935 8.00832C2.71602 8.09998 2.62435 8.21665 2.54102 8.31665C2.45768 8.41665 2.39102 8.50832 2.32435 8.61665C2.25768 8.72498 2.19102 8.85832 2.12435 8.98332C2.05768 9.10832 2.01602 9.19165 1.97435 9.29165C1.91305 9.44619 1.86292 9.60493 1.82435 9.76665C1.82435 9.85832 1.76602 9.94998 1.74935 10.0416C1.69748 10.3024 1.66959 10.5674 1.66602 10.8333C1.66992 11.0877 1.69501 11.3414 1.74102 11.5917C1.74102 11.675 1.78268 11.75 1.79935 11.8333C1.84054 11.997 1.89061 12.1584 1.94935 12.3166L2.04935 12.5583C2.12271 12.719 2.20621 12.8749 2.29935 13.025L2.41602 13.2083C2.428 13.2317 2.44194 13.254 2.45768 13.275L2.49935 13.3333C2.88746 13.8508 3.39073 14.2708 3.96929 14.5601C4.54786 14.8494 5.18583 15 5.83268 15H8.33268V13.8583C8.07948 14.0052 7.79207 14.0828 7.49935 14.0833C7.04789 14.0791 6.61646 13.8963 6.29935 13.575C6.14709 13.4175 6.02738 13.2315 5.94706 13.0277C5.86674 12.8239 5.82739 12.6062 5.83126 12.3872C5.83513 12.1681 5.88215 11.952 5.96961 11.7512C6.05708 11.5503 6.18329 11.3687 6.34102 11.2167L8.84102 8.79998C9.15206 8.50019 9.56735 8.33287 9.99935 8.33332C10.4407 8.33518 10.8632 8.51199 11.1743 8.82498L13.6743 11.325C13.9848 11.6373 14.159 12.0597 14.159 12.5C14.159 12.9403 13.9848 13.3627 13.6743 13.675C13.3632 13.988 12.9407 14.1648 12.4993 14.1667C12.2062 14.1694 11.9179 14.0916 11.666 13.9417V15H14.166C14.8129 15 15.4508 14.8494 16.0294 14.5601C16.608 14.2708 17.1112 13.8508 17.4993 13.3333L17.541 13.2916C17.5568 13.2706 17.5707 13.2483 17.5827 13.225L17.6994 13.0416C17.7925 12.8916 17.876 12.7357 17.9494 12.575L18.0493 12.3333C18.1081 12.175 18.1582 12.0137 18.1994 11.85C18.1994 11.7667 18.241 11.6917 18.2577 11.6083C18.3046 11.3526 18.3297 11.0933 18.3327 10.8333C18.3317 10.5535 18.3038 10.2744 18.2493 9.99998Z" fill="#212B36"/>
<path d="M10.591 9.40832C10.4352 9.25563 10.2258 9.1701 10.0077 9.1701C9.78956 9.1701 9.58012 9.25563 9.42435 9.40832L6.92435 11.825C6.83592 11.8979 6.7635 11.9884 6.71162 12.0906C6.65974 12.1928 6.62951 12.3047 6.62282 12.4191C6.61613 12.5336 6.63312 12.6482 6.67274 12.7557C6.71236 12.8633 6.77375 12.9616 6.85307 13.0443C6.93239 13.1271 7.02794 13.1926 7.13374 13.2368C7.23953 13.2809 7.3533 13.3028 7.46793 13.301C7.58256 13.2992 7.69558 13.2737 7.79992 13.2262C7.90427 13.1787 7.99769 13.1102 8.07435 13.025L9.16602 11.9666V16.6667C9.16602 16.8877 9.25381 17.0996 9.41009 17.2559C9.56637 17.4122 9.77834 17.5 9.99935 17.5C10.2204 17.5 10.4323 17.4122 10.5886 17.2559C10.7449 17.0996 10.8327 16.8877 10.8327 16.6667V12.0083L11.9077 13.0917C11.9852 13.1698 12.0773 13.2318 12.1789 13.2741C12.2804 13.3164 12.3893 13.3381 12.4993 13.3381C12.6094 13.3381 12.7183 13.3164 12.8198 13.2741C12.9214 13.2318 13.0135 13.1698 13.091 13.0917C13.1691 13.0142 13.2311 12.922 13.2734 12.8205C13.3157 12.7189 13.3375 12.61 13.3375 12.5C13.3375 12.39 13.3157 12.2811 13.2734 12.1795C13.2311 12.078 13.1691 11.9858 13.091 11.9083L10.591 9.40832Z" fill="#212B36"/>
</g>
</g>
</svg>
