<svg width="20" height="20" viewBox="0 0 20 20" fill="none" xmlns="http://www.w3.org/2000/svg">
<g id="icons/ic-mingcute:close-line">
<path id="primary-shape" fill-rule="evenodd" clip-rule="evenodd" d="M9.9955 11.1738L14.7074 15.886C14.8645 16.0378 15.0749 16.1217 15.2933 16.1198C15.5117 16.1179 15.7206 16.0303 15.875 15.8759C16.0294 15.7215 16.117 15.5125 16.1189 15.2941C16.1208 15.0757 16.0369 14.8653 15.8852 14.7082L11.1733 9.99597L15.8852 5.28375C16.0369 5.12664 16.1208 4.91623 16.1189 4.69782C16.117 4.47941 16.0294 4.27049 15.875 4.11605C15.7206 3.9616 15.5117 3.874 15.2933 3.8721C15.0749 3.8702 14.8645 3.95416 14.7074 4.1059L9.9955 8.81813L5.28361 4.1059C5.12581 3.95792 4.91663 3.87713 4.70033 3.88065C4.48404 3.88416 4.27759 3.97169 4.12468 4.12472C3.97177 4.27775 3.88439 4.48427 3.88103 4.70059C3.87767 4.91691 3.95859 5.12604 4.10668 5.28375L8.81774 9.99597L4.10585 14.7082C4.02629 14.785 3.96284 14.877 3.91919 14.9786C3.87553 15.0802 3.85255 15.1895 3.85159 15.3001C3.85063 15.4107 3.87171 15.5204 3.91359 15.6228C3.95547 15.7252 4.01732 15.8182 4.09552 15.8964C4.17373 15.9746 4.26673 16.0364 4.36909 16.0783C4.47146 16.1202 4.58113 16.1413 4.69173 16.1403C4.80233 16.1394 4.91162 16.1164 5.01324 16.0727C5.11487 16.0291 5.20678 15.9656 5.28361 15.886L9.9955 11.1738Z" fill="#637381"/>
</g>
</svg>
