<svg width="20" height="20" viewBox="0 0 20 20" fill="none" xmlns="http://www.w3.org/2000/svg">
<g id="select arrow">
<path id="primary-shape" d="M10.0004 12.9179C9.8057 12.9183 9.61701 12.8505 9.46708 12.7262L4.46708 8.55956C4.1127 8.26501 4.06419 7.73894 4.35874 7.38456C4.6533 7.03018 5.17936 6.98167 5.53374 7.27623L10.0004 11.0096L14.4671 7.40956C14.6392 7.26975 14.86 7.20433 15.0806 7.2278C15.3011 7.25126 15.5032 7.36166 15.6421 7.53456C15.7964 7.70777 15.8715 7.93746 15.8493 8.16836C15.8272 8.39926 15.7098 8.61048 15.5254 8.75123L10.5254 12.7762C10.3712 12.8808 10.1863 12.9307 10.0004 12.9179Z" fill="#637381"/>
</g>
</svg>
