<svg width="18" height="18" viewBox="0 0 18 18" fill="none" xmlns="http://www.w3.org/2000/svg">
<g id="icons/ic-solar:close-circle-bold" opacity="0.48">
<path id="primary-shape" fill-rule="evenodd" clip-rule="evenodd" d="M16.5 9C16.5 13.1423 13.1423 16.5 9 16.5C4.85775 16.5 1.5 13.1423 1.5 9C1.5 4.85775 4.85775 1.5 9 1.5C13.1423 1.5 16.5 4.85775 16.5 9ZM6.7275 6.7275C6.83297 6.62216 6.97594 6.56299 7.125 6.56299C7.27406 6.56299 7.41703 6.62216 7.5225 6.7275L9 8.205L10.4775 6.7275C10.5841 6.62814 10.7252 6.57405 10.8709 6.57662C11.0166 6.57919 11.1557 6.63822 11.2587 6.74128C11.3618 6.84434 11.4208 6.98338 11.4234 7.12911C11.426 7.27483 11.3719 7.41587 11.2725 7.5225L9.795 9L11.2725 10.4775C11.3719 10.5841 11.426 10.7252 11.4234 10.8709C11.4208 11.0166 11.3618 11.1557 11.2587 11.2587C11.1557 11.3618 11.0166 11.4208 10.8709 11.4234C10.7252 11.426 10.5841 11.3719 10.4775 11.2725L9 9.795L7.5225 11.2725C7.41587 11.3719 7.27483 11.426 7.12911 11.4234C6.98338 11.4208 6.84434 11.3618 6.74128 11.2587C6.63822 11.1557 6.57919 11.0166 6.57662 10.8709C6.57405 10.7252 6.62814 10.5841 6.7275 10.4775L8.205 9L6.7275 7.5225C6.62216 7.41703 6.56299 7.27406 6.56299 7.125C6.56299 6.97594 6.62216 6.83297 6.7275 6.7275Z" fill="#007867"/>
</g>
</svg>
