<svg width="20" height="20" viewBox="0 0 20 20" fill="none" xmlns="http://www.w3.org/2000/svg">
<g id="icons/ic-solar:trash-bin-trash-bold">
<g id="primary-shape">
<path d="M2.5 5.3132C2.5 4.90987 2.7875 4.58237 3.1425 4.58237H5.36333C5.80417 4.56904 6.19333 4.24987 6.34333 3.7782L6.36833 3.69487L6.46417 3.36904C6.5225 3.16904 6.57333 2.99404 6.645 2.8382C6.92667 2.22237 7.44833 1.79487 8.05083 1.6857C8.20417 1.6582 8.36583 1.6582 8.55083 1.6582H11.4492C11.635 1.6582 11.7967 1.6582 11.9492 1.6857C12.5517 1.79487 13.0742 2.22237 13.355 2.8382C13.4267 2.99404 13.4775 3.1682 13.5367 3.36904L13.6317 3.69487L13.6567 3.7782C13.8067 4.24987 14.2733 4.56987 14.715 4.58237H16.8567C17.2125 4.58237 17.5 4.90987 17.5 5.3132C17.5 5.71654 17.2125 6.04404 16.8575 6.04404H3.14167C2.7875 6.04404 2.5 5.71654 2.5 5.3132Z" fill="#637381"/>
<path fill-rule="evenodd" clip-rule="evenodd" d="M9.66333 18.3249H10.3367C12.6558 18.3249 13.815 18.3249 14.57 17.5865C15.3233 16.8482 15.4 15.6374 15.5542 13.2157L15.7767 9.7257C15.86 8.41154 15.9017 7.75404 15.5242 7.3382C15.1458 6.92154 14.5075 6.92154 13.23 6.92154H6.77C5.4925 6.92154 4.85333 6.92154 4.47583 7.3382C4.0975 7.75487 4.13917 8.41154 4.22333 9.7257L4.44583 13.2157C4.6 15.6374 4.67667 16.849 5.43083 17.5865C6.185 18.3249 7.34417 18.3249 9.66333 18.3249ZM8.53833 10.149C8.505 9.78737 8.19833 9.52404 7.855 9.55987C7.51083 9.5957 7.26083 9.9182 7.295 10.2799L7.71167 14.6657C7.745 15.0274 8.05167 15.2907 8.395 15.2549C8.73917 15.219 8.98917 14.8965 8.955 14.5349L8.53833 10.149ZM12.1458 9.55987C12.4892 9.5957 12.74 9.9182 12.705 10.2799L12.2883 14.6657C12.255 15.0274 11.9475 15.2907 11.605 15.2549C11.2608 15.219 11.0108 14.8965 11.045 14.5349L11.4617 10.149C11.495 9.78737 11.8033 9.52404 12.1458 9.55987Z" fill="#637381"/>
</g>
</g>
</svg>
