<svg width="24" height="24" viewBox="0 0 24 24" fill="none" xmlns="http://www.w3.org/2000/svg">
<path fill-rule="evenodd" clip-rule="evenodd" d="M1.60623 6.07998C1.72698 6.02828 1.85673 6.00088 1.98807 5.99934C2.11941 5.99779 2.24976 6.02214 2.37169 6.07099C2.49362 6.11983 2.60473 6.19222 2.69868 6.28402C2.79263 6.37581 2.86757 6.48522 2.91923 6.60598L2.00023 6.99998L2.92023 6.60598L2.92323 6.61398L2.94423 6.65898C2.96423 6.70098 2.99523 6.76698 3.03823 6.85298C3.12423 7.02498 3.25723 7.27698 3.43823 7.58198C3.91531 8.38388 4.47503 9.13363 5.10823 9.81898C5.29794 10.0231 5.49473 10.2206 5.69823 10.411C7.18023 11.8 9.25123 13 12.0002 13C13.102 13.0049 14.1947 12.8006 15.2202 12.398C16.4472 11.915 17.4742 11.188 18.3162 10.4C19.4415 9.33069 20.367 8.06927 21.0492 6.67498L21.0762 6.61698L21.0812 6.60598C21.1882 6.36599 21.3853 6.17774 21.63 6.08193C21.8746 5.98612 22.1472 5.99045 22.3887 6.09398C22.6301 6.19751 22.8212 6.39193 22.9205 6.6352C23.0198 6.87847 23.0193 7.15104 22.9192 7.39398L22.9172 7.39898L22.9132 7.40698L22.9022 7.43298L22.8622 7.51998C22.64 7.98251 22.3927 8.43252 22.1212 8.86798C21.6215 9.67103 21.0488 10.4262 20.4102 11.124L21.2072 11.921C21.3949 12.1085 21.5003 12.3629 21.5004 12.6281C21.5005 12.8934 21.3952 13.1478 21.2077 13.3355C21.0202 13.5231 20.7659 13.6286 20.5006 13.6287C20.2353 13.6288 19.9809 13.5235 19.7932 13.336L18.9532 12.496C18.3628 12.9747 17.7275 13.3953 17.0562 13.752L17.8382 14.954C17.912 15.064 17.9632 15.1876 17.9888 15.3176C18.0144 15.4475 18.0139 15.5813 17.9874 15.7111C17.9609 15.8409 17.9089 15.9641 17.8343 16.0736C17.7598 16.1831 17.6642 16.2767 17.5532 16.349C17.4422 16.4212 17.3179 16.4707 17.1876 16.4946C17.0573 16.5184 16.9236 16.5161 16.7942 16.4878C16.6647 16.4596 16.5422 16.4058 16.4338 16.3298C16.3253 16.2538 16.233 16.157 16.1622 16.045L15.1762 14.531C14.4972 14.739 13.7722 14.886 13.0002 14.955V16.5C13.0002 16.7652 12.8949 17.0196 12.7073 17.2071C12.5198 17.3946 12.2654 17.5 12.0002 17.5C11.735 17.5 11.4807 17.3946 11.2931 17.2071C11.1056 17.0196 11.0002 16.7652 11.0002 16.5V14.956C10.2252 14.886 9.50023 14.739 8.82323 14.531L7.83823 16.045C7.69033 16.2595 7.46457 16.4078 7.20898 16.4583C6.9534 16.5089 6.68818 16.4577 6.46977 16.3156C6.25136 16.1736 6.09701 15.9519 6.03958 15.6978C5.98214 15.4437 6.02614 15.1771 6.16223 14.955L6.94423 13.752C6.24423 13.382 5.61223 12.952 5.04723 12.495L4.20723 13.335C4.01863 13.5171 3.76602 13.6179 3.50383 13.6157C3.24163 13.6134 2.99082 13.5082 2.80541 13.3228C2.62 13.1374 2.51483 12.8866 2.51256 12.6244C2.51028 12.3622 2.61107 12.1096 2.79323 11.921L3.59023 11.124C2.8828 10.3501 2.25622 9.50609 1.72023 8.60498C1.50612 8.24537 1.30891 7.87597 1.12923 7.49798C1.11805 7.47406 1.10705 7.45006 1.09623 7.42598L1.08623 7.40498L1.08423 7.39798L1.08323 7.39598C1.08023 7.39598 1.08023 7.39398 2.00023 6.99998L1.08123 7.39498C1.02935 7.27424 1.00177 7.14446 1.00008 7.01305C0.998392 6.88165 1.02262 6.7512 1.07138 6.62916C1.12014 6.50713 1.19247 6.3959 1.28424 6.30184C1.37602 6.20778 1.48543 6.13173 1.60623 6.07998Z" fill="#637381"/>
</svg>
