<svg width="20" height="20" viewBox="0 0 20 20" fill="none" xmlns="http://www.w3.org/2000/svg">
<g id="icons/ic-solar:pen-bold">
<path id="primary-shape" d="M9.49993 15.126L15.6633 8.96263C14.6263 8.52969 13.6846 7.89714 12.8916 7.10096C12.095 6.3078 11.4622 5.36577 11.0291 4.32846L4.86577 10.4918C4.38493 10.9726 4.1441 11.2135 3.93743 11.4785C3.69336 11.7912 3.48407 12.1296 3.31327 12.4876C3.1691 12.791 3.0616 13.1143 2.8466 13.7593L1.7116 17.1618C1.65936 17.3176 1.65161 17.4849 1.68922 17.6448C1.72683 17.8048 1.80831 17.951 1.92449 18.0672C2.04068 18.1834 2.18697 18.2649 2.34692 18.3025C2.50688 18.3401 2.67415 18.3324 2.82993 18.2801L6.23243 17.1451C6.87827 16.9301 7.20077 16.8226 7.5041 16.6785C7.86243 16.5076 8.20077 16.2985 8.51327 16.0543C8.77827 15.8476 9.0191 15.6068 9.49993 15.126ZM17.3733 7.25263C17.9878 6.6381 18.333 5.80462 18.333 4.93554C18.333 4.06647 17.9878 3.23299 17.3733 2.61846C16.7587 2.00393 15.9253 1.65869 15.0562 1.65869C14.1871 1.65869 13.3536 2.00393 12.7391 2.61846L11.9999 3.35763L12.0316 3.45013C12.3959 4.49239 12.9919 5.43838 13.7749 6.21679C14.5766 7.02321 15.5557 7.63105 16.6341 7.99179L17.3733 7.25263Z" fill="#637381"/>
</g>
</svg>
