<svg width="20" height="20" viewBox="0 0 20 20" fill="none" xmlns="http://www.w3.org/2000/svg">
<g id="start icon">
<g id="primary-shape">
<path d="M18.2503 10.0002C18.2503 9.90856 18.2003 9.81689 18.1753 9.72523C18.1368 9.56351 18.0866 9.40477 18.0253 9.25023C17.9837 9.15023 17.9253 9.05023 17.8753 8.94189C17.8253 8.83356 17.7503 8.69189 17.6753 8.57523C17.6003 8.45856 17.5003 8.40023 17.5003 8.33356C17.5003 8.26689 17.3337 8.12523 17.242 8.02523C17.1503 7.92523 17.067 7.85856 16.9753 7.77523L16.667 7.50023L16.367 7.30023C16.2492 7.22816 16.1267 7.16412 16.0003 7.10856L15.6753 6.95856C15.5392 6.90815 15.4 6.8664 15.2587 6.83356C15.1467 6.80061 15.0325 6.77555 14.917 6.75856L14.7253 6.66689C14.3853 5.68444 13.7475 4.83241 12.9006 4.22936C12.0537 3.62632 11.04 3.30225 10.0003 3.30225C8.96069 3.30225 7.94691 3.62632 7.10005 4.22936C6.25318 4.83241 5.61536 5.68444 5.27533 6.66689L5.12533 6.70856C5.00983 6.72555 4.89566 6.75061 4.78366 6.78356C4.64227 6.8164 4.50311 6.85815 4.36699 6.90856L4.04199 7.05856C3.91559 7.11412 3.79309 7.17816 3.67533 7.25023L3.37533 7.50023L3.06699 7.75856C2.97533 7.84189 2.88366 7.91689 2.80033 8.00856C2.71699 8.10023 2.62533 8.21689 2.54199 8.31689C2.45866 8.41689 2.39199 8.50856 2.32533 8.61689C2.25866 8.72523 2.19199 8.85856 2.12533 8.98356C2.05866 9.10856 2.01699 9.19189 1.97533 9.29189C1.91403 9.44644 1.8639 9.60518 1.82533 9.76689C1.82533 9.85856 1.76699 9.95023 1.75033 10.0419C1.69846 10.3027 1.67056 10.5677 1.66699 10.8336C1.6709 11.088 1.69599 11.3416 1.74199 11.5919C1.74199 11.6752 1.78366 11.7502 1.80033 11.8336C1.84151 11.9973 1.89159 12.1586 1.95033 12.3169L2.05033 12.5586C2.12368 12.7193 2.20718 12.8751 2.30033 13.0252L2.41699 13.2086C2.42898 13.2319 2.44292 13.2542 2.45866 13.2752L2.50033 13.3336C2.88844 13.851 3.3917 14.2711 3.97027 14.5603C4.54883 14.8496 5.1868 15.0002 5.83366 15.0002H8.33366V13.8586C8.08046 14.0054 7.79304 14.083 7.50033 14.0836C7.04887 14.0793 6.61744 13.8966 6.30033 13.5752C6.14807 13.4177 6.02836 13.2317 5.94804 13.0279C5.86772 12.8241 5.82837 12.6065 5.83224 12.3874C5.83611 12.1684 5.88312 11.9523 5.97059 11.7514C6.05806 11.5506 6.18427 11.3689 6.34199 11.2169L8.84199 8.80023C9.15303 8.50043 9.56833 8.33312 10.0003 8.33356C10.4416 8.33542 10.8642 8.51224 11.1753 8.82523L13.6753 11.3252C13.9857 11.6375 14.16 12.0599 14.16 12.5002C14.16 12.9405 13.9857 13.363 13.6753 13.6752C13.3642 13.9882 12.9416 14.165 12.5003 14.1669C12.2072 14.1697 11.9189 14.0918 11.667 13.9419V15.0002H14.167C14.8138 15.0002 15.4518 14.8496 16.0304 14.5603C16.6089 14.2711 17.1122 13.851 17.5003 13.3336L17.542 13.2919C17.5577 13.2709 17.5717 13.2486 17.5837 13.2252L17.7003 13.0419C17.7935 12.8918 17.877 12.7359 17.9503 12.5752L18.0503 12.3336C18.1091 12.1753 18.1591 12.0139 18.2003 11.8502C18.2003 11.7669 18.242 11.6919 18.2587 11.6086C18.3056 11.3528 18.3307 11.0936 18.3337 10.8336C18.3327 10.5538 18.3048 10.2747 18.2503 10.0002Z" fill="white"/>
<path d="M10.592 9.40856C10.4362 9.25587 10.2268 9.17035 10.0087 9.17035C9.79053 9.17035 9.5811 9.25587 9.42533 9.40856L6.92533 11.8252C6.8369 11.8982 6.76448 11.9886 6.7126 12.0908C6.66071 12.1931 6.63048 12.3049 6.62379 12.4194C6.6171 12.5338 6.6341 12.6484 6.67372 12.756C6.71334 12.8636 6.77473 12.9618 6.85405 13.0446C6.93337 13.1273 7.02892 13.1929 7.13471 13.237C7.24051 13.2812 7.35428 13.303 7.46891 13.3012C7.58353 13.2994 7.69655 13.274 7.8009 13.2265C7.90524 13.179 7.99867 13.1105 8.07533 13.0252L9.16699 11.9669V16.6669C9.16699 16.8879 9.25479 17.0999 9.41107 17.2562C9.56735 17.4124 9.77931 17.5002 10.0003 17.5002C10.2213 17.5002 10.4333 17.4124 10.5896 17.2562C10.7459 17.0999 10.8337 16.8879 10.8337 16.6669V12.0086L11.9087 13.0919C11.9861 13.17 12.0783 13.232 12.1798 13.2743C12.2814 13.3166 12.3903 13.3384 12.5003 13.3384C12.6103 13.3384 12.7193 13.3166 12.8208 13.2743C12.9224 13.232 13.0145 13.17 13.092 13.0919C13.1701 13.0144 13.2321 12.9223 13.2744 12.8207C13.3167 12.7192 13.3385 12.6102 13.3385 12.5002C13.3385 12.3902 13.3167 12.2813 13.2744 12.1797C13.2321 12.0782 13.1701 11.986 13.092 11.9086L10.592 9.40856Z" fill="white"/>
</g>
</g>
</svg>
