<svg width="70" height="20" viewBox="0 0 70 20" fill="none" xmlns="http://www.w3.org/2000/svg">
<path d="M0.4 15V0.599999H2.57L7.55 10.8L12.53 0.599999H14.7V15H12.45V5.77L8.03 15H7.07L2.66 5.77V15H0.4ZM18.9294 19.8L21.0094 14.09L21.0494 15.77L16.3394 4.2H18.8494L22.1894 12.76H21.5494L24.7994 4.2H27.2094L21.1894 19.8H18.9294ZM34.0308 15.3C32.9774 15.3 32.0274 15.1167 31.1808 14.75C30.3408 14.3833 29.6474 13.86 29.1008 13.18C28.5608 12.4933 28.2174 11.68 28.0708 10.74L30.5708 10.36C30.7841 11.2133 31.2208 11.8733 31.8808 12.34C32.5474 12.8067 33.3141 13.04 34.1808 13.04C34.6941 13.04 35.1774 12.96 35.6308 12.8C36.0841 12.64 36.4508 12.4067 36.7308 12.1C37.0174 11.7933 37.1608 11.4167 37.1608 10.97C37.1608 10.77 37.1274 10.5867 37.0608 10.42C36.9941 10.2467 36.8941 10.0933 36.7608 9.96C36.6341 9.82667 36.4674 9.70667 36.2608 9.6C36.0608 9.48667 35.8274 9.39 35.5608 9.31L31.8408 8.21C31.5208 8.11667 31.1741 7.99333 30.8008 7.84C30.4341 7.68 30.0841 7.46333 29.7508 7.19C29.4241 6.91 29.1541 6.55667 28.9408 6.13C28.7341 5.69667 28.6308 5.16333 28.6308 4.53C28.6308 3.60333 28.8641 2.82667 29.3308 2.2C29.8041 1.56667 30.4374 1.09333 31.2308 0.779999C32.0308 0.466666 32.9174 0.313332 33.8908 0.319999C34.8774 0.326666 35.7574 0.496666 36.5308 0.829999C37.3041 1.15667 37.9508 1.63333 38.4708 2.26C38.9908 2.88667 39.3574 3.64333 39.5708 4.53L36.9808 4.98C36.8741 4.47333 36.6674 4.04333 36.3608 3.69C36.0608 3.33 35.6908 3.05667 35.2508 2.87C34.8174 2.68333 34.3541 2.58333 33.8608 2.57C33.3808 2.56333 32.9341 2.63667 32.5208 2.79C32.1141 2.93667 31.7841 3.15 31.5308 3.43C31.2841 3.71 31.1608 4.03667 31.1608 4.41C31.1608 4.76333 31.2674 5.05333 31.4808 5.28C31.6941 5.5 31.9574 5.67667 32.2708 5.81C32.5908 5.93667 32.9141 6.04333 33.2408 6.13L35.8208 6.85C36.1741 6.94333 36.5708 7.07 37.0108 7.23C37.4508 7.39 37.8741 7.61333 38.2808 7.9C38.6874 8.18667 39.0208 8.56333 39.2808 9.03C39.5474 9.49667 39.6808 10.09 39.6808 10.81C39.6808 11.5567 39.5241 12.2133 39.2108 12.78C38.9041 13.34 38.4874 13.8067 37.9608 14.18C37.4341 14.5533 36.8308 14.8333 36.1508 15.02C35.4774 15.2067 34.7708 15.3 34.0308 15.3ZM46.6153 15.3C45.5353 15.3 44.592 15.0567 43.7853 14.57C42.9786 14.0833 42.352 13.4133 41.9053 12.56C41.4653 11.7 41.2453 10.7133 41.2453 9.6C41.2453 8.46667 41.472 7.47333 41.9253 6.62C42.3786 5.76667 43.0086 5.1 43.8153 4.62C44.622 4.14 45.5553 3.9 46.6153 3.9C47.702 3.9 48.6486 4.14333 49.4553 4.63C50.262 5.11667 50.8886 5.79 51.3353 6.65C51.782 7.50333 52.0053 8.48667 52.0053 9.6C52.0053 10.72 51.7786 11.71 51.3253 12.57C50.8786 13.4233 50.252 14.0933 49.4453 14.58C48.6386 15.06 47.6953 15.3 46.6153 15.3ZM46.6153 13.04C47.5753 13.04 48.2886 12.72 48.7553 12.08C49.222 11.44 49.4553 10.6133 49.4553 9.6C49.4553 8.55333 49.2186 7.72 48.7453 7.1C48.272 6.47333 47.562 6.16 46.6153 6.16C45.9686 6.16 45.4353 6.30667 45.0153 6.6C44.602 6.88667 44.2953 7.29 44.0953 7.81C43.8953 8.32333 43.7953 8.92 43.7953 9.6C43.7953 10.6467 44.032 11.4833 44.5053 12.11C44.9853 12.73 45.6886 13.04 46.6153 13.04ZM58.2586 15.31C57.4586 15.31 56.7986 15.1767 56.2786 14.91C55.7586 14.6433 55.3453 14.3033 55.0386 13.89C54.7319 13.4767 54.5053 13.0367 54.3586 12.57C54.2119 12.1033 54.1153 11.6633 54.0686 11.25C54.0286 10.83 54.0086 10.49 54.0086 10.23V4.2H56.4486V9.4C56.4486 9.73333 56.4719 10.11 56.5186 10.53C56.5653 10.9433 56.6719 11.3433 56.8386 11.73C57.0119 12.11 57.2653 12.4233 57.5986 12.67C57.9386 12.9167 58.3953 13.04 58.9686 13.04C59.2753 13.04 59.5786 12.99 59.8786 12.89C60.1786 12.79 60.4486 12.62 60.6886 12.38C60.9353 12.1333 61.1319 11.7967 61.2786 11.37C61.4253 10.9433 61.4986 10.4033 61.4986 9.75L62.9286 10.36C62.9286 11.28 62.7486 12.1133 62.3886 12.86C62.0353 13.6067 61.5119 14.2033 60.8186 14.65C60.1253 15.09 59.2719 15.31 58.2586 15.31ZM61.7886 15V11.65H61.4986V4.2H63.9186V15H61.7886ZM66.9281 15V0.3H69.3381V15H66.9281Z" fill="#006C9C"/>
</svg>
