<svg width="19" height="22" viewBox="0 0 19 22" fill="none" xmlns="http://www.w3.org/2000/svg">
<g id="dictionary-language-book">
<path id="Subtract" fill-rule="evenodd" clip-rule="evenodd" d="M16.5 16.8931V19.6431H3.73218C2.97278 19.6431 2.35718 19.0274 2.35718 18.2681C2.35718 17.5088 2.97278 16.8931 3.73218 16.8931H16.5Z" fill="#637381"/>
<path id="Union" opacity="0.32" fill-rule="evenodd" clip-rule="evenodd" d="M0 3.53571V18.2679C0 20.3291 1.67093 22 3.73214 22H16.8929C17.5437 22 18.0714 21.4723 18.0714 20.8214C18.0714 20.1705 17.5437 19.6429 16.8929 19.6429H3.73214C2.97275 19.6429 2.35714 19.0272 2.35714 18.2679C2.35714 17.5085 2.97275 16.8929 3.73214 16.8929H16.8929C17.5437 16.8929 18.0714 16.3652 18.0714 15.7143V3.53571C18.0714 1.58299 16.4884 0 14.5357 0H3.53571C1.58299 0 0 1.58299 0 3.53571Z" fill="#637381"/>
<path id="Union_2" fill-rule="evenodd" clip-rule="evenodd" d="M7.17166 4.13175C6.97883 3.55327 6.43747 3.16309 5.82771 3.16309C5.21795 3.16309 4.67659 3.55327 4.48378 4.13175L3.42072 7.32088C3.41662 7.33229 3.41279 7.34382 3.4092 7.35547L2.8086 9.15727C2.67137 9.56894 2.89385 10.0139 3.30554 10.1511C3.7172 10.2883 4.16217 10.0659 4.29939 9.65419L4.72663 8.37247H6.9288L7.35604 9.65419C7.49327 10.0659 7.93823 10.2883 8.3499 10.1511C8.76157 10.0139 8.98405 9.56894 8.84683 9.15727L8.24623 7.35548C8.24265 7.34382 8.2388 7.33229 8.2347 7.32088L7.17166 4.13175ZM5.25045 6.80104L5.82771 5.06921L6.40499 6.80104H5.25045ZM14.3258 7.07439C14.6197 7.07439 14.8889 7.23826 15.0238 7.49919C15.1587 7.76013 15.1368 8.07455 14.967 8.31426L11.9799 12.5313H14.5532C14.9872 12.5313 15.3389 12.8831 15.3389 13.317C15.3389 13.751 14.9872 14.1027 14.5532 14.1027H10.4605C10.1668 14.1027 9.89755 13.9389 9.76262 13.6779C9.62768 13.417 9.64957 13.1026 9.81938 12.8629L12.8065 8.64582H10.6879C10.254 8.64582 9.90219 8.29405 9.90219 7.8601C9.90219 7.42617 10.254 7.07439 10.6879 7.07439H14.3258Z" fill="#637381"/>
</g>
</svg>
