<svg width="16" height="16" viewBox="0 0 16 16" fill="none" xmlns="http://www.w3.org/2000/svg">
<g id="icons/ic-eva:arrow-ios-downward-fill">
<path id="primary-shape" d="M8.00028 10.334C7.84451 10.3343 7.69355 10.2801 7.57361 10.1807L3.57361 6.84735C3.29011 6.61171 3.25131 6.19086 3.48695 5.90735C3.72259 5.62385 4.14344 5.58505 4.42695 5.82069L8.00028 8.80735L11.5736 5.92735C11.7113 5.81551 11.888 5.76317 12.0644 5.78194C12.2408 5.80071 12.4025 5.88903 12.5136 6.02735C12.637 6.16593 12.6971 6.34967 12.6794 6.53439C12.6617 6.71911 12.5678 6.88809 12.4203 7.00069L8.42028 10.2207C8.29689 10.3044 8.14901 10.3443 8.00028 10.334Z" fill="#00B8D9"/>
</g>
</svg>
