<svg width="16" height="16" viewBox="0 0 16 16" fill="none" xmlns="http://www.w3.org/2000/svg">
<g id="icons/ic-eva:arrow-ios-forward-fill">
<path id="primary-shape" d="M6.66662 12.6663C6.51085 12.6666 6.3599 12.6124 6.23995 12.513C6.10362 12.3999 6.01786 12.2373 6.0016 12.061C5.98534 11.8846 6.03992 11.709 6.15329 11.573L9.13995 7.99964L6.25995 4.41964C6.14811 4.28191 6.09578 4.10528 6.11454 3.92885C6.13331 3.75242 6.22163 3.59075 6.35995 3.47964C6.4994 3.35694 6.68371 3.29799 6.86847 3.31697C7.05324 3.33595 7.2217 3.43115 7.33329 3.57964L10.5533 7.57964C10.7555 7.82564 10.7555 8.1803 10.5533 8.4263L7.21995 12.4263C7.08431 12.5899 6.87878 12.6791 6.66662 12.6663Z" fill="#637381"/>
</g>
</svg>
